G04 #@! TF.GenerationSoftware,KiCad,Pcbnew,7.0.10*
G04 #@! TF.CreationDate,2024-03-01T12:45:03+01:00*
G04 #@! TF.ProjectId,zapdos,7a617064-6f73-42e6-9b69-6361645f7063,rev?*
G04 #@! TF.SameCoordinates,Original*
G04 #@! TF.FileFunction,Legend,Top*
G04 #@! TF.FilePolarity,Positive*
%FSLAX46Y46*%
G04 Gerber Fmt 4.6, Leading zero omitted, Abs format (unit mm)*
G04 Created by KiCad (PCBNEW 7.0.10) date 2024-03-01 12:45:03*
%MOMM*%
%LPD*%
G01*
G04 APERTURE LIST*
G04 Aperture macros list*
%AMRoundRect*
0 Rectangle with rounded corners*
0 $1 Rounding radius*
0 $2 $3 $4 $5 $6 $7 $8 $9 X,Y pos of 4 corners*
0 Add a 4 corners polygon primitive as box body*
4,1,4,$2,$3,$4,$5,$6,$7,$8,$9,$2,$3,0*
0 Add four circle primitives for the rounded corners*
1,1,$1+$1,$2,$3*
1,1,$1+$1,$4,$5*
1,1,$1+$1,$6,$7*
1,1,$1+$1,$8,$9*
0 Add four rect primitives between the rounded corners*
20,1,$1+$1,$2,$3,$4,$5,0*
20,1,$1+$1,$4,$5,$6,$7,0*
20,1,$1+$1,$6,$7,$8,$9,0*
20,1,$1+$1,$8,$9,$2,$3,0*%
G04 Aperture macros list end*
%ADD10C,0.150000*%
%ADD11C,0.300000*%
%ADD12C,0.120000*%
%ADD13C,0.127000*%
%ADD14C,0.200000*%
%ADD15RoundRect,0.250000X-0.625000X0.350000X-0.625000X-0.350000X0.625000X-0.350000X0.625000X0.350000X0*%
%ADD16O,1.750000X1.200000*%
%ADD17RoundRect,0.102000X0.765000X0.765000X-0.765000X0.765000X-0.765000X-0.765000X0.765000X-0.765000X0*%
%ADD18C,1.734000*%
%ADD19RoundRect,0.250000X-1.100000X0.412500X-1.100000X-0.412500X1.100000X-0.412500X1.100000X0.412500X0*%
%ADD20RoundRect,0.250000X1.100000X-0.412500X1.100000X0.412500X-1.100000X0.412500X-1.100000X-0.412500X0*%
%ADD21RoundRect,0.150000X-0.825000X-0.150000X0.825000X-0.150000X0.825000X0.150000X-0.825000X0.150000X0*%
%ADD22C,3.200000*%
%ADD23R,1.700000X1.700000*%
%ADD24O,1.700000X1.700000*%
%ADD25R,2.500000X2.500000*%
%ADD26RoundRect,0.250000X-0.350000X-0.625000X0.350000X-0.625000X0.350000X0.625000X-0.350000X0.625000X0*%
%ADD27O,1.200000X1.750000*%
%ADD28RoundRect,0.250000X0.350000X0.450000X-0.350000X0.450000X-0.350000X-0.450000X0.350000X-0.450000X0*%
%ADD29RoundRect,0.250000X-0.450000X0.350000X-0.450000X-0.350000X0.450000X-0.350000X0.450000X0.350000X0*%
%ADD30C,6.000000*%
%ADD31RoundRect,0.102000X-0.765000X-0.765000X0.765000X-0.765000X0.765000X0.765000X-0.765000X0.765000X0*%
G04 APERTURE END LIST*
D10*
X74241541Y-33869819D02*
X74860588Y-33869819D01*
X74860588Y-33869819D02*
X74527255Y-34250771D01*
X74527255Y-34250771D02*
X74670112Y-34250771D01*
X74670112Y-34250771D02*
X74765350Y-34298390D01*
X74765350Y-34298390D02*
X74812969Y-34346009D01*
X74812969Y-34346009D02*
X74860588Y-34441247D01*
X74860588Y-34441247D02*
X74860588Y-34679342D01*
X74860588Y-34679342D02*
X74812969Y-34774580D01*
X74812969Y-34774580D02*
X74765350Y-34822200D01*
X74765350Y-34822200D02*
X74670112Y-34869819D01*
X74670112Y-34869819D02*
X74384398Y-34869819D01*
X74384398Y-34869819D02*
X74289160Y-34822200D01*
X74289160Y-34822200D02*
X74241541Y-34774580D01*
X75146303Y-33869819D02*
X75479636Y-34869819D01*
X75479636Y-34869819D02*
X75812969Y-33869819D01*
X76051065Y-33869819D02*
X76717731Y-33869819D01*
X76717731Y-33869819D02*
X76289160Y-34869819D01*
X69193922Y-30869819D02*
X69527255Y-31869819D01*
X69527255Y-31869819D02*
X69860588Y-30869819D01*
X70193922Y-31869819D02*
X70193922Y-30869819D01*
X70193922Y-30869819D02*
X70432017Y-30869819D01*
X70432017Y-30869819D02*
X70574874Y-30917438D01*
X70574874Y-30917438D02*
X70670112Y-31012676D01*
X70670112Y-31012676D02*
X70717731Y-31107914D01*
X70717731Y-31107914D02*
X70765350Y-31298390D01*
X70765350Y-31298390D02*
X70765350Y-31441247D01*
X70765350Y-31441247D02*
X70717731Y-31631723D01*
X70717731Y-31631723D02*
X70670112Y-31726961D01*
X70670112Y-31726961D02*
X70574874Y-31822200D01*
X70574874Y-31822200D02*
X70432017Y-31869819D01*
X70432017Y-31869819D02*
X70193922Y-31869819D01*
X71193922Y-31869819D02*
X71193922Y-30869819D01*
X71193922Y-30869819D02*
X71432017Y-30869819D01*
X71432017Y-30869819D02*
X71574874Y-30917438D01*
X71574874Y-30917438D02*
X71670112Y-31012676D01*
X71670112Y-31012676D02*
X71717731Y-31107914D01*
X71717731Y-31107914D02*
X71765350Y-31298390D01*
X71765350Y-31298390D02*
X71765350Y-31441247D01*
X71765350Y-31441247D02*
X71717731Y-31631723D01*
X71717731Y-31631723D02*
X71670112Y-31726961D01*
X71670112Y-31726961D02*
X71574874Y-31822200D01*
X71574874Y-31822200D02*
X71432017Y-31869819D01*
X71432017Y-31869819D02*
X71193922Y-31869819D01*
X71955827Y-31965057D02*
X72717731Y-31965057D01*
X72955827Y-31869819D02*
X72955827Y-30869819D01*
X72955827Y-30869819D02*
X73289160Y-31584104D01*
X73289160Y-31584104D02*
X73622493Y-30869819D01*
X73622493Y-30869819D02*
X73622493Y-31869819D01*
X74289160Y-30869819D02*
X74479636Y-30869819D01*
X74479636Y-30869819D02*
X74574874Y-30917438D01*
X74574874Y-30917438D02*
X74670112Y-31012676D01*
X74670112Y-31012676D02*
X74717731Y-31203152D01*
X74717731Y-31203152D02*
X74717731Y-31536485D01*
X74717731Y-31536485D02*
X74670112Y-31726961D01*
X74670112Y-31726961D02*
X74574874Y-31822200D01*
X74574874Y-31822200D02*
X74479636Y-31869819D01*
X74479636Y-31869819D02*
X74289160Y-31869819D01*
X74289160Y-31869819D02*
X74193922Y-31822200D01*
X74193922Y-31822200D02*
X74098684Y-31726961D01*
X74098684Y-31726961D02*
X74051065Y-31536485D01*
X74051065Y-31536485D02*
X74051065Y-31203152D01*
X74051065Y-31203152D02*
X74098684Y-31012676D01*
X74098684Y-31012676D02*
X74193922Y-30917438D01*
X74193922Y-30917438D02*
X74289160Y-30869819D01*
X75146303Y-31869819D02*
X75146303Y-30869819D01*
X75146303Y-30869819D02*
X75384398Y-30869819D01*
X75384398Y-30869819D02*
X75527255Y-30917438D01*
X75527255Y-30917438D02*
X75622493Y-31012676D01*
X75622493Y-31012676D02*
X75670112Y-31107914D01*
X75670112Y-31107914D02*
X75717731Y-31298390D01*
X75717731Y-31298390D02*
X75717731Y-31441247D01*
X75717731Y-31441247D02*
X75670112Y-31631723D01*
X75670112Y-31631723D02*
X75622493Y-31726961D01*
X75622493Y-31726961D02*
X75527255Y-31822200D01*
X75527255Y-31822200D02*
X75384398Y-31869819D01*
X75384398Y-31869819D02*
X75146303Y-31869819D01*
X76146303Y-31346009D02*
X76479636Y-31346009D01*
X76622493Y-31869819D02*
X76146303Y-31869819D01*
X76146303Y-31869819D02*
X76146303Y-30869819D01*
X76146303Y-30869819D02*
X76622493Y-30869819D01*
X77051065Y-31869819D02*
X77051065Y-30869819D01*
X77051065Y-30869819D02*
X77384398Y-31584104D01*
X77384398Y-31584104D02*
X77717731Y-30869819D01*
X77717731Y-30869819D02*
X77717731Y-31869819D01*
X75812969Y-28869819D02*
X75336779Y-28869819D01*
X75336779Y-28869819D02*
X75289160Y-29346009D01*
X75289160Y-29346009D02*
X75336779Y-29298390D01*
X75336779Y-29298390D02*
X75432017Y-29250771D01*
X75432017Y-29250771D02*
X75670112Y-29250771D01*
X75670112Y-29250771D02*
X75765350Y-29298390D01*
X75765350Y-29298390D02*
X75812969Y-29346009D01*
X75812969Y-29346009D02*
X75860588Y-29441247D01*
X75860588Y-29441247D02*
X75860588Y-29679342D01*
X75860588Y-29679342D02*
X75812969Y-29774580D01*
X75812969Y-29774580D02*
X75765350Y-29822200D01*
X75765350Y-29822200D02*
X75670112Y-29869819D01*
X75670112Y-29869819D02*
X75432017Y-29869819D01*
X75432017Y-29869819D02*
X75336779Y-29822200D01*
X75336779Y-29822200D02*
X75289160Y-29774580D01*
X76146303Y-28869819D02*
X76479636Y-29869819D01*
X76479636Y-29869819D02*
X76812969Y-28869819D01*
X168360588Y-77417438D02*
X168265350Y-77369819D01*
X168265350Y-77369819D02*
X168122493Y-77369819D01*
X168122493Y-77369819D02*
X167979636Y-77417438D01*
X167979636Y-77417438D02*
X167884398Y-77512676D01*
X167884398Y-77512676D02*
X167836779Y-77607914D01*
X167836779Y-77607914D02*
X167789160Y-77798390D01*
X167789160Y-77798390D02*
X167789160Y-77941247D01*
X167789160Y-77941247D02*
X167836779Y-78131723D01*
X167836779Y-78131723D02*
X167884398Y-78226961D01*
X167884398Y-78226961D02*
X167979636Y-78322200D01*
X167979636Y-78322200D02*
X168122493Y-78369819D01*
X168122493Y-78369819D02*
X168217731Y-78369819D01*
X168217731Y-78369819D02*
X168360588Y-78322200D01*
X168360588Y-78322200D02*
X168408207Y-78274580D01*
X168408207Y-78274580D02*
X168408207Y-77941247D01*
X168408207Y-77941247D02*
X168217731Y-77941247D01*
X168836779Y-78369819D02*
X168836779Y-77369819D01*
X168836779Y-77369819D02*
X169408207Y-78369819D01*
X169408207Y-78369819D02*
X169408207Y-77369819D01*
X169884398Y-78369819D02*
X169884398Y-77369819D01*
X169884398Y-77369819D02*
X170122493Y-77369819D01*
X170122493Y-77369819D02*
X170265350Y-77417438D01*
X170265350Y-77417438D02*
X170360588Y-77512676D01*
X170360588Y-77512676D02*
X170408207Y-77607914D01*
X170408207Y-77607914D02*
X170455826Y-77798390D01*
X170455826Y-77798390D02*
X170455826Y-77941247D01*
X170455826Y-77941247D02*
X170408207Y-78131723D01*
X170408207Y-78131723D02*
X170360588Y-78226961D01*
X170360588Y-78226961D02*
X170265350Y-78322200D01*
X170265350Y-78322200D02*
X170122493Y-78369819D01*
X170122493Y-78369819D02*
X169884398Y-78369819D01*
X167789160Y-76322200D02*
X167932017Y-76369819D01*
X167932017Y-76369819D02*
X168170112Y-76369819D01*
X168170112Y-76369819D02*
X168265350Y-76322200D01*
X168265350Y-76322200D02*
X168312969Y-76274580D01*
X168312969Y-76274580D02*
X168360588Y-76179342D01*
X168360588Y-76179342D02*
X168360588Y-76084104D01*
X168360588Y-76084104D02*
X168312969Y-75988866D01*
X168312969Y-75988866D02*
X168265350Y-75941247D01*
X168265350Y-75941247D02*
X168170112Y-75893628D01*
X168170112Y-75893628D02*
X167979636Y-75846009D01*
X167979636Y-75846009D02*
X167884398Y-75798390D01*
X167884398Y-75798390D02*
X167836779Y-75750771D01*
X167836779Y-75750771D02*
X167789160Y-75655533D01*
X167789160Y-75655533D02*
X167789160Y-75560295D01*
X167789160Y-75560295D02*
X167836779Y-75465057D01*
X167836779Y-75465057D02*
X167884398Y-75417438D01*
X167884398Y-75417438D02*
X167979636Y-75369819D01*
X167979636Y-75369819D02*
X168217731Y-75369819D01*
X168217731Y-75369819D02*
X168360588Y-75417438D01*
X168789160Y-76369819D02*
X168789160Y-75369819D01*
X168789160Y-75369819D02*
X169027255Y-75369819D01*
X169027255Y-75369819D02*
X169170112Y-75417438D01*
X169170112Y-75417438D02*
X169265350Y-75512676D01*
X169265350Y-75512676D02*
X169312969Y-75607914D01*
X169312969Y-75607914D02*
X169360588Y-75798390D01*
X169360588Y-75798390D02*
X169360588Y-75941247D01*
X169360588Y-75941247D02*
X169312969Y-76131723D01*
X169312969Y-76131723D02*
X169265350Y-76226961D01*
X169265350Y-76226961D02*
X169170112Y-76322200D01*
X169170112Y-76322200D02*
X169027255Y-76369819D01*
X169027255Y-76369819D02*
X168789160Y-76369819D01*
X169741541Y-76084104D02*
X170217731Y-76084104D01*
X169646303Y-76369819D02*
X169979636Y-75369819D01*
X169979636Y-75369819D02*
X170312969Y-76369819D01*
X167789160Y-74322200D02*
X167932017Y-74369819D01*
X167932017Y-74369819D02*
X168170112Y-74369819D01*
X168170112Y-74369819D02*
X168265350Y-74322200D01*
X168265350Y-74322200D02*
X168312969Y-74274580D01*
X168312969Y-74274580D02*
X168360588Y-74179342D01*
X168360588Y-74179342D02*
X168360588Y-74084104D01*
X168360588Y-74084104D02*
X168312969Y-73988866D01*
X168312969Y-73988866D02*
X168265350Y-73941247D01*
X168265350Y-73941247D02*
X168170112Y-73893628D01*
X168170112Y-73893628D02*
X167979636Y-73846009D01*
X167979636Y-73846009D02*
X167884398Y-73798390D01*
X167884398Y-73798390D02*
X167836779Y-73750771D01*
X167836779Y-73750771D02*
X167789160Y-73655533D01*
X167789160Y-73655533D02*
X167789160Y-73560295D01*
X167789160Y-73560295D02*
X167836779Y-73465057D01*
X167836779Y-73465057D02*
X167884398Y-73417438D01*
X167884398Y-73417438D02*
X167979636Y-73369819D01*
X167979636Y-73369819D02*
X168217731Y-73369819D01*
X168217731Y-73369819D02*
X168360588Y-73417438D01*
X169360588Y-74274580D02*
X169312969Y-74322200D01*
X169312969Y-74322200D02*
X169170112Y-74369819D01*
X169170112Y-74369819D02*
X169074874Y-74369819D01*
X169074874Y-74369819D02*
X168932017Y-74322200D01*
X168932017Y-74322200D02*
X168836779Y-74226961D01*
X168836779Y-74226961D02*
X168789160Y-74131723D01*
X168789160Y-74131723D02*
X168741541Y-73941247D01*
X168741541Y-73941247D02*
X168741541Y-73798390D01*
X168741541Y-73798390D02*
X168789160Y-73607914D01*
X168789160Y-73607914D02*
X168836779Y-73512676D01*
X168836779Y-73512676D02*
X168932017Y-73417438D01*
X168932017Y-73417438D02*
X169074874Y-73369819D01*
X169074874Y-73369819D02*
X169170112Y-73369819D01*
X169170112Y-73369819D02*
X169312969Y-73417438D01*
X169312969Y-73417438D02*
X169360588Y-73465057D01*
X170265350Y-74369819D02*
X169789160Y-74369819D01*
X169789160Y-74369819D02*
X169789160Y-73369819D01*
X167741541Y-71369819D02*
X168360588Y-71369819D01*
X168360588Y-71369819D02*
X168027255Y-71750771D01*
X168027255Y-71750771D02*
X168170112Y-71750771D01*
X168170112Y-71750771D02*
X168265350Y-71798390D01*
X168265350Y-71798390D02*
X168312969Y-71846009D01*
X168312969Y-71846009D02*
X168360588Y-71941247D01*
X168360588Y-71941247D02*
X168360588Y-72179342D01*
X168360588Y-72179342D02*
X168312969Y-72274580D01*
X168312969Y-72274580D02*
X168265350Y-72322200D01*
X168265350Y-72322200D02*
X168170112Y-72369819D01*
X168170112Y-72369819D02*
X167884398Y-72369819D01*
X167884398Y-72369819D02*
X167789160Y-72322200D01*
X167789160Y-72322200D02*
X167741541Y-72274580D01*
X168646303Y-71369819D02*
X168979636Y-72369819D01*
X168979636Y-72369819D02*
X169312969Y-71369819D01*
X169551065Y-71369819D02*
X170170112Y-71369819D01*
X170170112Y-71369819D02*
X169836779Y-71750771D01*
X169836779Y-71750771D02*
X169979636Y-71750771D01*
X169979636Y-71750771D02*
X170074874Y-71798390D01*
X170074874Y-71798390D02*
X170122493Y-71846009D01*
X170122493Y-71846009D02*
X170170112Y-71941247D01*
X170170112Y-71941247D02*
X170170112Y-72179342D01*
X170170112Y-72179342D02*
X170122493Y-72274580D01*
X170122493Y-72274580D02*
X170074874Y-72322200D01*
X170074874Y-72322200D02*
X169979636Y-72369819D01*
X169979636Y-72369819D02*
X169693922Y-72369819D01*
X169693922Y-72369819D02*
X169598684Y-72322200D01*
X169598684Y-72322200D02*
X169551065Y-72274580D01*
X178360588Y-125417438D02*
X178265350Y-125369819D01*
X178265350Y-125369819D02*
X178122493Y-125369819D01*
X178122493Y-125369819D02*
X177979636Y-125417438D01*
X177979636Y-125417438D02*
X177884398Y-125512676D01*
X177884398Y-125512676D02*
X177836779Y-125607914D01*
X177836779Y-125607914D02*
X177789160Y-125798390D01*
X177789160Y-125798390D02*
X177789160Y-125941247D01*
X177789160Y-125941247D02*
X177836779Y-126131723D01*
X177836779Y-126131723D02*
X177884398Y-126226961D01*
X177884398Y-126226961D02*
X177979636Y-126322200D01*
X177979636Y-126322200D02*
X178122493Y-126369819D01*
X178122493Y-126369819D02*
X178217731Y-126369819D01*
X178217731Y-126369819D02*
X178360588Y-126322200D01*
X178360588Y-126322200D02*
X178408207Y-126274580D01*
X178408207Y-126274580D02*
X178408207Y-125941247D01*
X178408207Y-125941247D02*
X178217731Y-125941247D01*
X178836779Y-126369819D02*
X178836779Y-125369819D01*
X178836779Y-125369819D02*
X179408207Y-126369819D01*
X179408207Y-126369819D02*
X179408207Y-125369819D01*
X179884398Y-126369819D02*
X179884398Y-125369819D01*
X179884398Y-125369819D02*
X180122493Y-125369819D01*
X180122493Y-125369819D02*
X180265350Y-125417438D01*
X180265350Y-125417438D02*
X180360588Y-125512676D01*
X180360588Y-125512676D02*
X180408207Y-125607914D01*
X180408207Y-125607914D02*
X180455826Y-125798390D01*
X180455826Y-125798390D02*
X180455826Y-125941247D01*
X180455826Y-125941247D02*
X180408207Y-126131723D01*
X180408207Y-126131723D02*
X180360588Y-126226961D01*
X180360588Y-126226961D02*
X180265350Y-126322200D01*
X180265350Y-126322200D02*
X180122493Y-126369819D01*
X180122493Y-126369819D02*
X179884398Y-126369819D01*
X178241541Y-123369819D02*
X178479636Y-124369819D01*
X178479636Y-124369819D02*
X178670112Y-123655533D01*
X178670112Y-123655533D02*
X178860588Y-124369819D01*
X178860588Y-124369819D02*
X179098684Y-123369819D01*
X180003445Y-124369819D02*
X179432017Y-124369819D01*
X179717731Y-124369819D02*
X179717731Y-123369819D01*
X179717731Y-123369819D02*
X179622493Y-123512676D01*
X179622493Y-123512676D02*
X179527255Y-123607914D01*
X179527255Y-123607914D02*
X179432017Y-123655533D01*
X177741541Y-121369819D02*
X178360588Y-121369819D01*
X178360588Y-121369819D02*
X178027255Y-121750771D01*
X178027255Y-121750771D02*
X178170112Y-121750771D01*
X178170112Y-121750771D02*
X178265350Y-121798390D01*
X178265350Y-121798390D02*
X178312969Y-121846009D01*
X178312969Y-121846009D02*
X178360588Y-121941247D01*
X178360588Y-121941247D02*
X178360588Y-122179342D01*
X178360588Y-122179342D02*
X178312969Y-122274580D01*
X178312969Y-122274580D02*
X178265350Y-122322200D01*
X178265350Y-122322200D02*
X178170112Y-122369819D01*
X178170112Y-122369819D02*
X177884398Y-122369819D01*
X177884398Y-122369819D02*
X177789160Y-122322200D01*
X177789160Y-122322200D02*
X177741541Y-122274580D01*
X178646303Y-121369819D02*
X178979636Y-122369819D01*
X178979636Y-122369819D02*
X179312969Y-121369819D01*
X179551065Y-121369819D02*
X180170112Y-121369819D01*
X180170112Y-121369819D02*
X179836779Y-121750771D01*
X179836779Y-121750771D02*
X179979636Y-121750771D01*
X179979636Y-121750771D02*
X180074874Y-121798390D01*
X180074874Y-121798390D02*
X180122493Y-121846009D01*
X180122493Y-121846009D02*
X180170112Y-121941247D01*
X180170112Y-121941247D02*
X180170112Y-122179342D01*
X180170112Y-122179342D02*
X180122493Y-122274580D01*
X180122493Y-122274580D02*
X180074874Y-122322200D01*
X180074874Y-122322200D02*
X179979636Y-122369819D01*
X179979636Y-122369819D02*
X179693922Y-122369819D01*
X179693922Y-122369819D02*
X179598684Y-122322200D01*
X179598684Y-122322200D02*
X179551065Y-122274580D01*
X169908207Y-51774580D02*
X169860588Y-51822200D01*
X169860588Y-51822200D02*
X169717731Y-51869819D01*
X169717731Y-51869819D02*
X169622493Y-51869819D01*
X169622493Y-51869819D02*
X169479636Y-51822200D01*
X169479636Y-51822200D02*
X169384398Y-51726961D01*
X169384398Y-51726961D02*
X169336779Y-51631723D01*
X169336779Y-51631723D02*
X169289160Y-51441247D01*
X169289160Y-51441247D02*
X169289160Y-51298390D01*
X169289160Y-51298390D02*
X169336779Y-51107914D01*
X169336779Y-51107914D02*
X169384398Y-51012676D01*
X169384398Y-51012676D02*
X169479636Y-50917438D01*
X169479636Y-50917438D02*
X169622493Y-50869819D01*
X169622493Y-50869819D02*
X169717731Y-50869819D01*
X169717731Y-50869819D02*
X169860588Y-50917438D01*
X169860588Y-50917438D02*
X169908207Y-50965057D01*
X170812969Y-51869819D02*
X170336779Y-51869819D01*
X170336779Y-51869819D02*
X170336779Y-50869819D01*
X171146303Y-51869819D02*
X171146303Y-50869819D01*
X171717731Y-51869819D02*
X171289160Y-51298390D01*
X171717731Y-50869819D02*
X171146303Y-51441247D01*
X178822200Y-91210839D02*
X178869819Y-91067982D01*
X178869819Y-91067982D02*
X178869819Y-90829887D01*
X178869819Y-90829887D02*
X178822200Y-90734649D01*
X178822200Y-90734649D02*
X178774580Y-90687030D01*
X178774580Y-90687030D02*
X178679342Y-90639411D01*
X178679342Y-90639411D02*
X178584104Y-90639411D01*
X178584104Y-90639411D02*
X178488866Y-90687030D01*
X178488866Y-90687030D02*
X178441247Y-90734649D01*
X178441247Y-90734649D02*
X178393628Y-90829887D01*
X178393628Y-90829887D02*
X178346009Y-91020363D01*
X178346009Y-91020363D02*
X178298390Y-91115601D01*
X178298390Y-91115601D02*
X178250771Y-91163220D01*
X178250771Y-91163220D02*
X178155533Y-91210839D01*
X178155533Y-91210839D02*
X178060295Y-91210839D01*
X178060295Y-91210839D02*
X177965057Y-91163220D01*
X177965057Y-91163220D02*
X177917438Y-91115601D01*
X177917438Y-91115601D02*
X177869819Y-91020363D01*
X177869819Y-91020363D02*
X177869819Y-90782268D01*
X177869819Y-90782268D02*
X177917438Y-90639411D01*
X178869819Y-90210839D02*
X177869819Y-90210839D01*
X177869819Y-90210839D02*
X177869819Y-89829887D01*
X177869819Y-89829887D02*
X177917438Y-89734649D01*
X177917438Y-89734649D02*
X177965057Y-89687030D01*
X177965057Y-89687030D02*
X178060295Y-89639411D01*
X178060295Y-89639411D02*
X178203152Y-89639411D01*
X178203152Y-89639411D02*
X178298390Y-89687030D01*
X178298390Y-89687030D02*
X178346009Y-89734649D01*
X178346009Y-89734649D02*
X178393628Y-89829887D01*
X178393628Y-89829887D02*
X178393628Y-90210839D01*
X178869819Y-89210839D02*
X177869819Y-89210839D01*
X178869819Y-88210840D02*
X178869819Y-88782268D01*
X178869819Y-88496554D02*
X177869819Y-88496554D01*
X177869819Y-88496554D02*
X178012676Y-88591792D01*
X178012676Y-88591792D02*
X178107914Y-88687030D01*
X178107914Y-88687030D02*
X178155533Y-88782268D01*
X178822200Y-108710839D02*
X178869819Y-108567982D01*
X178869819Y-108567982D02*
X178869819Y-108329887D01*
X178869819Y-108329887D02*
X178822200Y-108234649D01*
X178822200Y-108234649D02*
X178774580Y-108187030D01*
X178774580Y-108187030D02*
X178679342Y-108139411D01*
X178679342Y-108139411D02*
X178584104Y-108139411D01*
X178584104Y-108139411D02*
X178488866Y-108187030D01*
X178488866Y-108187030D02*
X178441247Y-108234649D01*
X178441247Y-108234649D02*
X178393628Y-108329887D01*
X178393628Y-108329887D02*
X178346009Y-108520363D01*
X178346009Y-108520363D02*
X178298390Y-108615601D01*
X178298390Y-108615601D02*
X178250771Y-108663220D01*
X178250771Y-108663220D02*
X178155533Y-108710839D01*
X178155533Y-108710839D02*
X178060295Y-108710839D01*
X178060295Y-108710839D02*
X177965057Y-108663220D01*
X177965057Y-108663220D02*
X177917438Y-108615601D01*
X177917438Y-108615601D02*
X177869819Y-108520363D01*
X177869819Y-108520363D02*
X177869819Y-108282268D01*
X177869819Y-108282268D02*
X177917438Y-108139411D01*
X178869819Y-107710839D02*
X177869819Y-107710839D01*
X177869819Y-107710839D02*
X177869819Y-107329887D01*
X177869819Y-107329887D02*
X177917438Y-107234649D01*
X177917438Y-107234649D02*
X177965057Y-107187030D01*
X177965057Y-107187030D02*
X178060295Y-107139411D01*
X178060295Y-107139411D02*
X178203152Y-107139411D01*
X178203152Y-107139411D02*
X178298390Y-107187030D01*
X178298390Y-107187030D02*
X178346009Y-107234649D01*
X178346009Y-107234649D02*
X178393628Y-107329887D01*
X178393628Y-107329887D02*
X178393628Y-107710839D01*
X178869819Y-106710839D02*
X177869819Y-106710839D01*
X177869819Y-106329887D02*
X177869819Y-105710840D01*
X177869819Y-105710840D02*
X178250771Y-106044173D01*
X178250771Y-106044173D02*
X178250771Y-105901316D01*
X178250771Y-105901316D02*
X178298390Y-105806078D01*
X178298390Y-105806078D02*
X178346009Y-105758459D01*
X178346009Y-105758459D02*
X178441247Y-105710840D01*
X178441247Y-105710840D02*
X178679342Y-105710840D01*
X178679342Y-105710840D02*
X178774580Y-105758459D01*
X178774580Y-105758459D02*
X178822200Y-105806078D01*
X178822200Y-105806078D02*
X178869819Y-105901316D01*
X178869819Y-105901316D02*
X178869819Y-106187030D01*
X178869819Y-106187030D02*
X178822200Y-106282268D01*
X178822200Y-106282268D02*
X178774580Y-106329887D01*
X177869819Y-161663220D02*
X178679342Y-161663220D01*
X178679342Y-161663220D02*
X178774580Y-161615601D01*
X178774580Y-161615601D02*
X178822200Y-161567982D01*
X178822200Y-161567982D02*
X178869819Y-161472744D01*
X178869819Y-161472744D02*
X178869819Y-161282268D01*
X178869819Y-161282268D02*
X178822200Y-161187030D01*
X178822200Y-161187030D02*
X178774580Y-161139411D01*
X178774580Y-161139411D02*
X178679342Y-161091792D01*
X178679342Y-161091792D02*
X177869819Y-161091792D01*
X178584104Y-160663220D02*
X178584104Y-160187030D01*
X178869819Y-160758458D02*
X177869819Y-160425125D01*
X177869819Y-160425125D02*
X178869819Y-160091792D01*
X178869819Y-159187030D02*
X178393628Y-159520363D01*
X178869819Y-159758458D02*
X177869819Y-159758458D01*
X177869819Y-159758458D02*
X177869819Y-159377506D01*
X177869819Y-159377506D02*
X177917438Y-159282268D01*
X177917438Y-159282268D02*
X177965057Y-159234649D01*
X177965057Y-159234649D02*
X178060295Y-159187030D01*
X178060295Y-159187030D02*
X178203152Y-159187030D01*
X178203152Y-159187030D02*
X178298390Y-159234649D01*
X178298390Y-159234649D02*
X178346009Y-159282268D01*
X178346009Y-159282268D02*
X178393628Y-159377506D01*
X178393628Y-159377506D02*
X178393628Y-159758458D01*
X177869819Y-158901315D02*
X177869819Y-158329887D01*
X178869819Y-158615601D02*
X177869819Y-158615601D01*
X177869819Y-158091791D02*
X177869819Y-157425125D01*
X177869819Y-157425125D02*
X178869819Y-157853696D01*
X177869819Y-149163220D02*
X178679342Y-149163220D01*
X178679342Y-149163220D02*
X178774580Y-149115601D01*
X178774580Y-149115601D02*
X178822200Y-149067982D01*
X178822200Y-149067982D02*
X178869819Y-148972744D01*
X178869819Y-148972744D02*
X178869819Y-148782268D01*
X178869819Y-148782268D02*
X178822200Y-148687030D01*
X178822200Y-148687030D02*
X178774580Y-148639411D01*
X178774580Y-148639411D02*
X178679342Y-148591792D01*
X178679342Y-148591792D02*
X177869819Y-148591792D01*
X178584104Y-148163220D02*
X178584104Y-147687030D01*
X178869819Y-148258458D02*
X177869819Y-147925125D01*
X177869819Y-147925125D02*
X178869819Y-147591792D01*
X178869819Y-146687030D02*
X178393628Y-147020363D01*
X178869819Y-147258458D02*
X177869819Y-147258458D01*
X177869819Y-147258458D02*
X177869819Y-146877506D01*
X177869819Y-146877506D02*
X177917438Y-146782268D01*
X177917438Y-146782268D02*
X177965057Y-146734649D01*
X177965057Y-146734649D02*
X178060295Y-146687030D01*
X178060295Y-146687030D02*
X178203152Y-146687030D01*
X178203152Y-146687030D02*
X178298390Y-146734649D01*
X178298390Y-146734649D02*
X178346009Y-146782268D01*
X178346009Y-146782268D02*
X178393628Y-146877506D01*
X178393628Y-146877506D02*
X178393628Y-147258458D01*
X177869819Y-146401315D02*
X177869819Y-145829887D01*
X178869819Y-146115601D02*
X177869819Y-146115601D01*
X177869819Y-145067982D02*
X177869819Y-145258458D01*
X177869819Y-145258458D02*
X177917438Y-145353696D01*
X177917438Y-145353696D02*
X177965057Y-145401315D01*
X177965057Y-145401315D02*
X178107914Y-145496553D01*
X178107914Y-145496553D02*
X178298390Y-145544172D01*
X178298390Y-145544172D02*
X178679342Y-145544172D01*
X178679342Y-145544172D02*
X178774580Y-145496553D01*
X178774580Y-145496553D02*
X178822200Y-145448934D01*
X178822200Y-145448934D02*
X178869819Y-145353696D01*
X178869819Y-145353696D02*
X178869819Y-145163220D01*
X178869819Y-145163220D02*
X178822200Y-145067982D01*
X178822200Y-145067982D02*
X178774580Y-145020363D01*
X178774580Y-145020363D02*
X178679342Y-144972744D01*
X178679342Y-144972744D02*
X178441247Y-144972744D01*
X178441247Y-144972744D02*
X178346009Y-145020363D01*
X178346009Y-145020363D02*
X178298390Y-145067982D01*
X178298390Y-145067982D02*
X178250771Y-145163220D01*
X178250771Y-145163220D02*
X178250771Y-145353696D01*
X178250771Y-145353696D02*
X178298390Y-145448934D01*
X178298390Y-145448934D02*
X178346009Y-145496553D01*
X178346009Y-145496553D02*
X178441247Y-145544172D01*
X177869819Y-137163220D02*
X178679342Y-137163220D01*
X178679342Y-137163220D02*
X178774580Y-137115601D01*
X178774580Y-137115601D02*
X178822200Y-137067982D01*
X178822200Y-137067982D02*
X178869819Y-136972744D01*
X178869819Y-136972744D02*
X178869819Y-136782268D01*
X178869819Y-136782268D02*
X178822200Y-136687030D01*
X178822200Y-136687030D02*
X178774580Y-136639411D01*
X178774580Y-136639411D02*
X178679342Y-136591792D01*
X178679342Y-136591792D02*
X177869819Y-136591792D01*
X178584104Y-136163220D02*
X178584104Y-135687030D01*
X178869819Y-136258458D02*
X177869819Y-135925125D01*
X177869819Y-135925125D02*
X178869819Y-135591792D01*
X178869819Y-134687030D02*
X178393628Y-135020363D01*
X178869819Y-135258458D02*
X177869819Y-135258458D01*
X177869819Y-135258458D02*
X177869819Y-134877506D01*
X177869819Y-134877506D02*
X177917438Y-134782268D01*
X177917438Y-134782268D02*
X177965057Y-134734649D01*
X177965057Y-134734649D02*
X178060295Y-134687030D01*
X178060295Y-134687030D02*
X178203152Y-134687030D01*
X178203152Y-134687030D02*
X178298390Y-134734649D01*
X178298390Y-134734649D02*
X178346009Y-134782268D01*
X178346009Y-134782268D02*
X178393628Y-134877506D01*
X178393628Y-134877506D02*
X178393628Y-135258458D01*
X177869819Y-134401315D02*
X177869819Y-133829887D01*
X178869819Y-134115601D02*
X177869819Y-134115601D01*
X177869819Y-133020363D02*
X177869819Y-133496553D01*
X177869819Y-133496553D02*
X178346009Y-133544172D01*
X178346009Y-133544172D02*
X178298390Y-133496553D01*
X178298390Y-133496553D02*
X178250771Y-133401315D01*
X178250771Y-133401315D02*
X178250771Y-133163220D01*
X178250771Y-133163220D02*
X178298390Y-133067982D01*
X178298390Y-133067982D02*
X178346009Y-133020363D01*
X178346009Y-133020363D02*
X178441247Y-132972744D01*
X178441247Y-132972744D02*
X178679342Y-132972744D01*
X178679342Y-132972744D02*
X178774580Y-133020363D01*
X178774580Y-133020363D02*
X178822200Y-133067982D01*
X178822200Y-133067982D02*
X178869819Y-133163220D01*
X178869819Y-133163220D02*
X178869819Y-133401315D01*
X178869819Y-133401315D02*
X178822200Y-133496553D01*
X178822200Y-133496553D02*
X178774580Y-133544172D01*
X169336779Y-61869819D02*
X169336779Y-60869819D01*
X169336779Y-60869819D02*
X169908207Y-61869819D01*
X169908207Y-61869819D02*
X169908207Y-60869819D01*
X170955826Y-61774580D02*
X170908207Y-61822200D01*
X170908207Y-61822200D02*
X170765350Y-61869819D01*
X170765350Y-61869819D02*
X170670112Y-61869819D01*
X170670112Y-61869819D02*
X170527255Y-61822200D01*
X170527255Y-61822200D02*
X170432017Y-61726961D01*
X170432017Y-61726961D02*
X170384398Y-61631723D01*
X170384398Y-61631723D02*
X170336779Y-61441247D01*
X170336779Y-61441247D02*
X170336779Y-61298390D01*
X170336779Y-61298390D02*
X170384398Y-61107914D01*
X170384398Y-61107914D02*
X170432017Y-61012676D01*
X170432017Y-61012676D02*
X170527255Y-60917438D01*
X170527255Y-60917438D02*
X170670112Y-60869819D01*
X170670112Y-60869819D02*
X170765350Y-60869819D01*
X170765350Y-60869819D02*
X170908207Y-60917438D01*
X170908207Y-60917438D02*
X170955826Y-60965057D01*
X169908207Y-59369819D02*
X169574874Y-58893628D01*
X169336779Y-59369819D02*
X169336779Y-58369819D01*
X169336779Y-58369819D02*
X169717731Y-58369819D01*
X169717731Y-58369819D02*
X169812969Y-58417438D01*
X169812969Y-58417438D02*
X169860588Y-58465057D01*
X169860588Y-58465057D02*
X169908207Y-58560295D01*
X169908207Y-58560295D02*
X169908207Y-58703152D01*
X169908207Y-58703152D02*
X169860588Y-58798390D01*
X169860588Y-58798390D02*
X169812969Y-58846009D01*
X169812969Y-58846009D02*
X169717731Y-58893628D01*
X169717731Y-58893628D02*
X169336779Y-58893628D01*
X170289160Y-59322200D02*
X170432017Y-59369819D01*
X170432017Y-59369819D02*
X170670112Y-59369819D01*
X170670112Y-59369819D02*
X170765350Y-59322200D01*
X170765350Y-59322200D02*
X170812969Y-59274580D01*
X170812969Y-59274580D02*
X170860588Y-59179342D01*
X170860588Y-59179342D02*
X170860588Y-59084104D01*
X170860588Y-59084104D02*
X170812969Y-58988866D01*
X170812969Y-58988866D02*
X170765350Y-58941247D01*
X170765350Y-58941247D02*
X170670112Y-58893628D01*
X170670112Y-58893628D02*
X170479636Y-58846009D01*
X170479636Y-58846009D02*
X170384398Y-58798390D01*
X170384398Y-58798390D02*
X170336779Y-58750771D01*
X170336779Y-58750771D02*
X170289160Y-58655533D01*
X170289160Y-58655533D02*
X170289160Y-58560295D01*
X170289160Y-58560295D02*
X170336779Y-58465057D01*
X170336779Y-58465057D02*
X170384398Y-58417438D01*
X170384398Y-58417438D02*
X170479636Y-58369819D01*
X170479636Y-58369819D02*
X170717731Y-58369819D01*
X170717731Y-58369819D02*
X170860588Y-58417438D01*
X171146303Y-58369819D02*
X171717731Y-58369819D01*
X171432017Y-59369819D02*
X171432017Y-58369819D01*
X169336779Y-56869819D02*
X169336779Y-55869819D01*
X169336779Y-55869819D02*
X169574874Y-55869819D01*
X169574874Y-55869819D02*
X169717731Y-55917438D01*
X169717731Y-55917438D02*
X169812969Y-56012676D01*
X169812969Y-56012676D02*
X169860588Y-56107914D01*
X169860588Y-56107914D02*
X169908207Y-56298390D01*
X169908207Y-56298390D02*
X169908207Y-56441247D01*
X169908207Y-56441247D02*
X169860588Y-56631723D01*
X169860588Y-56631723D02*
X169812969Y-56726961D01*
X169812969Y-56726961D02*
X169717731Y-56822200D01*
X169717731Y-56822200D02*
X169574874Y-56869819D01*
X169574874Y-56869819D02*
X169336779Y-56869819D01*
X170336779Y-56869819D02*
X170336779Y-55869819D01*
X171003445Y-55869819D02*
X171193921Y-55869819D01*
X171193921Y-55869819D02*
X171289159Y-55917438D01*
X171289159Y-55917438D02*
X171384397Y-56012676D01*
X171384397Y-56012676D02*
X171432016Y-56203152D01*
X171432016Y-56203152D02*
X171432016Y-56536485D01*
X171432016Y-56536485D02*
X171384397Y-56726961D01*
X171384397Y-56726961D02*
X171289159Y-56822200D01*
X171289159Y-56822200D02*
X171193921Y-56869819D01*
X171193921Y-56869819D02*
X171003445Y-56869819D01*
X171003445Y-56869819D02*
X170908207Y-56822200D01*
X170908207Y-56822200D02*
X170812969Y-56726961D01*
X170812969Y-56726961D02*
X170765350Y-56536485D01*
X170765350Y-56536485D02*
X170765350Y-56203152D01*
X170765350Y-56203152D02*
X170812969Y-56012676D01*
X170812969Y-56012676D02*
X170908207Y-55917438D01*
X170908207Y-55917438D02*
X171003445Y-55869819D01*
X169860588Y-53417438D02*
X169765350Y-53369819D01*
X169765350Y-53369819D02*
X169622493Y-53369819D01*
X169622493Y-53369819D02*
X169479636Y-53417438D01*
X169479636Y-53417438D02*
X169384398Y-53512676D01*
X169384398Y-53512676D02*
X169336779Y-53607914D01*
X169336779Y-53607914D02*
X169289160Y-53798390D01*
X169289160Y-53798390D02*
X169289160Y-53941247D01*
X169289160Y-53941247D02*
X169336779Y-54131723D01*
X169336779Y-54131723D02*
X169384398Y-54226961D01*
X169384398Y-54226961D02*
X169479636Y-54322200D01*
X169479636Y-54322200D02*
X169622493Y-54369819D01*
X169622493Y-54369819D02*
X169717731Y-54369819D01*
X169717731Y-54369819D02*
X169860588Y-54322200D01*
X169860588Y-54322200D02*
X169908207Y-54274580D01*
X169908207Y-54274580D02*
X169908207Y-53941247D01*
X169908207Y-53941247D02*
X169717731Y-53941247D01*
X170336779Y-54369819D02*
X170336779Y-53369819D01*
X170336779Y-53369819D02*
X170908207Y-54369819D01*
X170908207Y-54369819D02*
X170908207Y-53369819D01*
X171384398Y-54369819D02*
X171384398Y-53369819D01*
X171384398Y-53369819D02*
X171622493Y-53369819D01*
X171622493Y-53369819D02*
X171765350Y-53417438D01*
X171765350Y-53417438D02*
X171860588Y-53512676D01*
X171860588Y-53512676D02*
X171908207Y-53607914D01*
X171908207Y-53607914D02*
X171955826Y-53798390D01*
X171955826Y-53798390D02*
X171955826Y-53941247D01*
X171955826Y-53941247D02*
X171908207Y-54131723D01*
X171908207Y-54131723D02*
X171860588Y-54226961D01*
X171860588Y-54226961D02*
X171765350Y-54322200D01*
X171765350Y-54322200D02*
X171622493Y-54369819D01*
X171622493Y-54369819D02*
X171384398Y-54369819D01*
X169193922Y-48369819D02*
X169527255Y-49369819D01*
X169527255Y-49369819D02*
X169860588Y-48369819D01*
X170193922Y-49369819D02*
X170193922Y-48369819D01*
X170193922Y-48369819D02*
X170432017Y-48369819D01*
X170432017Y-48369819D02*
X170574874Y-48417438D01*
X170574874Y-48417438D02*
X170670112Y-48512676D01*
X170670112Y-48512676D02*
X170717731Y-48607914D01*
X170717731Y-48607914D02*
X170765350Y-48798390D01*
X170765350Y-48798390D02*
X170765350Y-48941247D01*
X170765350Y-48941247D02*
X170717731Y-49131723D01*
X170717731Y-49131723D02*
X170670112Y-49226961D01*
X170670112Y-49226961D02*
X170574874Y-49322200D01*
X170574874Y-49322200D02*
X170432017Y-49369819D01*
X170432017Y-49369819D02*
X170193922Y-49369819D01*
X171193922Y-49369819D02*
X171193922Y-48369819D01*
X171193922Y-48369819D02*
X171432017Y-48369819D01*
X171432017Y-48369819D02*
X171574874Y-48417438D01*
X171574874Y-48417438D02*
X171670112Y-48512676D01*
X171670112Y-48512676D02*
X171717731Y-48607914D01*
X171717731Y-48607914D02*
X171765350Y-48798390D01*
X171765350Y-48798390D02*
X171765350Y-48941247D01*
X171765350Y-48941247D02*
X171717731Y-49131723D01*
X171717731Y-49131723D02*
X171670112Y-49226961D01*
X171670112Y-49226961D02*
X171574874Y-49322200D01*
X171574874Y-49322200D02*
X171432017Y-49369819D01*
X171432017Y-49369819D02*
X171193922Y-49369819D01*
X168241541Y-24869819D02*
X168860588Y-24869819D01*
X168860588Y-24869819D02*
X168527255Y-25250771D01*
X168527255Y-25250771D02*
X168670112Y-25250771D01*
X168670112Y-25250771D02*
X168765350Y-25298390D01*
X168765350Y-25298390D02*
X168812969Y-25346009D01*
X168812969Y-25346009D02*
X168860588Y-25441247D01*
X168860588Y-25441247D02*
X168860588Y-25679342D01*
X168860588Y-25679342D02*
X168812969Y-25774580D01*
X168812969Y-25774580D02*
X168765350Y-25822200D01*
X168765350Y-25822200D02*
X168670112Y-25869819D01*
X168670112Y-25869819D02*
X168384398Y-25869819D01*
X168384398Y-25869819D02*
X168289160Y-25822200D01*
X168289160Y-25822200D02*
X168241541Y-25774580D01*
X169146303Y-24869819D02*
X169479636Y-25869819D01*
X169479636Y-25869819D02*
X169812969Y-24869819D01*
X170051065Y-24869819D02*
X170670112Y-24869819D01*
X170670112Y-24869819D02*
X170336779Y-25250771D01*
X170336779Y-25250771D02*
X170479636Y-25250771D01*
X170479636Y-25250771D02*
X170574874Y-25298390D01*
X170574874Y-25298390D02*
X170622493Y-25346009D01*
X170622493Y-25346009D02*
X170670112Y-25441247D01*
X170670112Y-25441247D02*
X170670112Y-25679342D01*
X170670112Y-25679342D02*
X170622493Y-25774580D01*
X170622493Y-25774580D02*
X170574874Y-25822200D01*
X170574874Y-25822200D02*
X170479636Y-25869819D01*
X170479636Y-25869819D02*
X170193922Y-25869819D01*
X170193922Y-25869819D02*
X170098684Y-25822200D01*
X170098684Y-25822200D02*
X170051065Y-25774580D01*
X162241541Y-24869819D02*
X162860588Y-24869819D01*
X162860588Y-24869819D02*
X162527255Y-25250771D01*
X162527255Y-25250771D02*
X162670112Y-25250771D01*
X162670112Y-25250771D02*
X162765350Y-25298390D01*
X162765350Y-25298390D02*
X162812969Y-25346009D01*
X162812969Y-25346009D02*
X162860588Y-25441247D01*
X162860588Y-25441247D02*
X162860588Y-25679342D01*
X162860588Y-25679342D02*
X162812969Y-25774580D01*
X162812969Y-25774580D02*
X162765350Y-25822200D01*
X162765350Y-25822200D02*
X162670112Y-25869819D01*
X162670112Y-25869819D02*
X162384398Y-25869819D01*
X162384398Y-25869819D02*
X162289160Y-25822200D01*
X162289160Y-25822200D02*
X162241541Y-25774580D01*
X163146303Y-24869819D02*
X163479636Y-25869819D01*
X163479636Y-25869819D02*
X163812969Y-24869819D01*
X164051065Y-24869819D02*
X164717731Y-24869819D01*
X164717731Y-24869819D02*
X164289160Y-25869819D01*
X157312969Y-24869819D02*
X156836779Y-24869819D01*
X156836779Y-24869819D02*
X156789160Y-25346009D01*
X156789160Y-25346009D02*
X156836779Y-25298390D01*
X156836779Y-25298390D02*
X156932017Y-25250771D01*
X156932017Y-25250771D02*
X157170112Y-25250771D01*
X157170112Y-25250771D02*
X157265350Y-25298390D01*
X157265350Y-25298390D02*
X157312969Y-25346009D01*
X157312969Y-25346009D02*
X157360588Y-25441247D01*
X157360588Y-25441247D02*
X157360588Y-25679342D01*
X157360588Y-25679342D02*
X157312969Y-25774580D01*
X157312969Y-25774580D02*
X157265350Y-25822200D01*
X157265350Y-25822200D02*
X157170112Y-25869819D01*
X157170112Y-25869819D02*
X156932017Y-25869819D01*
X156932017Y-25869819D02*
X156836779Y-25822200D01*
X156836779Y-25822200D02*
X156789160Y-25774580D01*
X157646303Y-24869819D02*
X157979636Y-25869819D01*
X157979636Y-25869819D02*
X158312969Y-24869819D01*
X150860588Y-24917438D02*
X150765350Y-24869819D01*
X150765350Y-24869819D02*
X150622493Y-24869819D01*
X150622493Y-24869819D02*
X150479636Y-24917438D01*
X150479636Y-24917438D02*
X150384398Y-25012676D01*
X150384398Y-25012676D02*
X150336779Y-25107914D01*
X150336779Y-25107914D02*
X150289160Y-25298390D01*
X150289160Y-25298390D02*
X150289160Y-25441247D01*
X150289160Y-25441247D02*
X150336779Y-25631723D01*
X150336779Y-25631723D02*
X150384398Y-25726961D01*
X150384398Y-25726961D02*
X150479636Y-25822200D01*
X150479636Y-25822200D02*
X150622493Y-25869819D01*
X150622493Y-25869819D02*
X150717731Y-25869819D01*
X150717731Y-25869819D02*
X150860588Y-25822200D01*
X150860588Y-25822200D02*
X150908207Y-25774580D01*
X150908207Y-25774580D02*
X150908207Y-25441247D01*
X150908207Y-25441247D02*
X150717731Y-25441247D01*
X151336779Y-25869819D02*
X151336779Y-24869819D01*
X151336779Y-24869819D02*
X151908207Y-25869819D01*
X151908207Y-25869819D02*
X151908207Y-24869819D01*
X152384398Y-25869819D02*
X152384398Y-24869819D01*
X152384398Y-24869819D02*
X152622493Y-24869819D01*
X152622493Y-24869819D02*
X152765350Y-24917438D01*
X152765350Y-24917438D02*
X152860588Y-25012676D01*
X152860588Y-25012676D02*
X152908207Y-25107914D01*
X152908207Y-25107914D02*
X152955826Y-25298390D01*
X152955826Y-25298390D02*
X152955826Y-25441247D01*
X152955826Y-25441247D02*
X152908207Y-25631723D01*
X152908207Y-25631723D02*
X152860588Y-25726961D01*
X152860588Y-25726961D02*
X152765350Y-25822200D01*
X152765350Y-25822200D02*
X152622493Y-25869819D01*
X152622493Y-25869819D02*
X152384398Y-25869819D01*
X48336779Y-147846009D02*
X48670112Y-147846009D01*
X48812969Y-148369819D02*
X48336779Y-148369819D01*
X48336779Y-148369819D02*
X48336779Y-147369819D01*
X48336779Y-147369819D02*
X48812969Y-147369819D01*
X49193922Y-148322200D02*
X49336779Y-148369819D01*
X49336779Y-148369819D02*
X49574874Y-148369819D01*
X49574874Y-148369819D02*
X49670112Y-148322200D01*
X49670112Y-148322200D02*
X49717731Y-148274580D01*
X49717731Y-148274580D02*
X49765350Y-148179342D01*
X49765350Y-148179342D02*
X49765350Y-148084104D01*
X49765350Y-148084104D02*
X49717731Y-147988866D01*
X49717731Y-147988866D02*
X49670112Y-147941247D01*
X49670112Y-147941247D02*
X49574874Y-147893628D01*
X49574874Y-147893628D02*
X49384398Y-147846009D01*
X49384398Y-147846009D02*
X49289160Y-147798390D01*
X49289160Y-147798390D02*
X49241541Y-147750771D01*
X49241541Y-147750771D02*
X49193922Y-147655533D01*
X49193922Y-147655533D02*
X49193922Y-147560295D01*
X49193922Y-147560295D02*
X49241541Y-147465057D01*
X49241541Y-147465057D02*
X49289160Y-147417438D01*
X49289160Y-147417438D02*
X49384398Y-147369819D01*
X49384398Y-147369819D02*
X49622493Y-147369819D01*
X49622493Y-147369819D02*
X49765350Y-147417438D01*
X50193922Y-148369819D02*
X50193922Y-147369819D01*
X50193922Y-147369819D02*
X50574874Y-147369819D01*
X50574874Y-147369819D02*
X50670112Y-147417438D01*
X50670112Y-147417438D02*
X50717731Y-147465057D01*
X50717731Y-147465057D02*
X50765350Y-147560295D01*
X50765350Y-147560295D02*
X50765350Y-147703152D01*
X50765350Y-147703152D02*
X50717731Y-147798390D01*
X50717731Y-147798390D02*
X50670112Y-147846009D01*
X50670112Y-147846009D02*
X50574874Y-147893628D01*
X50574874Y-147893628D02*
X50193922Y-147893628D01*
X51098684Y-147369819D02*
X51717731Y-147369819D01*
X51717731Y-147369819D02*
X51384398Y-147750771D01*
X51384398Y-147750771D02*
X51527255Y-147750771D01*
X51527255Y-147750771D02*
X51622493Y-147798390D01*
X51622493Y-147798390D02*
X51670112Y-147846009D01*
X51670112Y-147846009D02*
X51717731Y-147941247D01*
X51717731Y-147941247D02*
X51717731Y-148179342D01*
X51717731Y-148179342D02*
X51670112Y-148274580D01*
X51670112Y-148274580D02*
X51622493Y-148322200D01*
X51622493Y-148322200D02*
X51527255Y-148369819D01*
X51527255Y-148369819D02*
X51241541Y-148369819D01*
X51241541Y-148369819D02*
X51146303Y-148322200D01*
X51146303Y-148322200D02*
X51098684Y-148274580D01*
X52098684Y-147465057D02*
X52146303Y-147417438D01*
X52146303Y-147417438D02*
X52241541Y-147369819D01*
X52241541Y-147369819D02*
X52479636Y-147369819D01*
X52479636Y-147369819D02*
X52574874Y-147417438D01*
X52574874Y-147417438D02*
X52622493Y-147465057D01*
X52622493Y-147465057D02*
X52670112Y-147560295D01*
X52670112Y-147560295D02*
X52670112Y-147655533D01*
X52670112Y-147655533D02*
X52622493Y-147798390D01*
X52622493Y-147798390D02*
X52051065Y-148369819D01*
X52051065Y-148369819D02*
X52670112Y-148369819D01*
X53860589Y-148369819D02*
X53860589Y-147369819D01*
X53860589Y-147369819D02*
X54098684Y-147369819D01*
X54098684Y-147369819D02*
X54241541Y-147417438D01*
X54241541Y-147417438D02*
X54336779Y-147512676D01*
X54336779Y-147512676D02*
X54384398Y-147607914D01*
X54384398Y-147607914D02*
X54432017Y-147798390D01*
X54432017Y-147798390D02*
X54432017Y-147941247D01*
X54432017Y-147941247D02*
X54384398Y-148131723D01*
X54384398Y-148131723D02*
X54336779Y-148226961D01*
X54336779Y-148226961D02*
X54241541Y-148322200D01*
X54241541Y-148322200D02*
X54098684Y-148369819D01*
X54098684Y-148369819D02*
X53860589Y-148369819D01*
X54860589Y-147846009D02*
X55193922Y-147846009D01*
X55336779Y-148369819D02*
X54860589Y-148369819D01*
X54860589Y-148369819D02*
X54860589Y-147369819D01*
X54860589Y-147369819D02*
X55336779Y-147369819D01*
X55622494Y-147369819D02*
X55955827Y-148369819D01*
X55955827Y-148369819D02*
X56289160Y-147369819D01*
X56622494Y-148369819D02*
X56622494Y-147369819D01*
X57193922Y-148369819D02*
X56765351Y-147798390D01*
X57193922Y-147369819D02*
X56622494Y-147941247D01*
X57622494Y-148369819D02*
X57622494Y-147369819D01*
X57955827Y-147369819D02*
X58527255Y-147369819D01*
X58241541Y-148369819D02*
X58241541Y-147369819D01*
X58860589Y-147988866D02*
X59622494Y-147988866D01*
X60670112Y-148274580D02*
X60622493Y-148322200D01*
X60622493Y-148322200D02*
X60479636Y-148369819D01*
X60479636Y-148369819D02*
X60384398Y-148369819D01*
X60384398Y-148369819D02*
X60241541Y-148322200D01*
X60241541Y-148322200D02*
X60146303Y-148226961D01*
X60146303Y-148226961D02*
X60098684Y-148131723D01*
X60098684Y-148131723D02*
X60051065Y-147941247D01*
X60051065Y-147941247D02*
X60051065Y-147798390D01*
X60051065Y-147798390D02*
X60098684Y-147607914D01*
X60098684Y-147607914D02*
X60146303Y-147512676D01*
X60146303Y-147512676D02*
X60241541Y-147417438D01*
X60241541Y-147417438D02*
X60384398Y-147369819D01*
X60384398Y-147369819D02*
X60479636Y-147369819D01*
X60479636Y-147369819D02*
X60622493Y-147417438D01*
X60622493Y-147417438D02*
X60670112Y-147465057D01*
X49836779Y-57869819D02*
X49836779Y-56869819D01*
X49836779Y-56869819D02*
X50170112Y-57584104D01*
X50170112Y-57584104D02*
X50503445Y-56869819D01*
X50503445Y-56869819D02*
X50503445Y-57869819D01*
X51170112Y-56869819D02*
X51360588Y-56869819D01*
X51360588Y-56869819D02*
X51455826Y-56917438D01*
X51455826Y-56917438D02*
X51551064Y-57012676D01*
X51551064Y-57012676D02*
X51598683Y-57203152D01*
X51598683Y-57203152D02*
X51598683Y-57536485D01*
X51598683Y-57536485D02*
X51551064Y-57726961D01*
X51551064Y-57726961D02*
X51455826Y-57822200D01*
X51455826Y-57822200D02*
X51360588Y-57869819D01*
X51360588Y-57869819D02*
X51170112Y-57869819D01*
X51170112Y-57869819D02*
X51074874Y-57822200D01*
X51074874Y-57822200D02*
X50979636Y-57726961D01*
X50979636Y-57726961D02*
X50932017Y-57536485D01*
X50932017Y-57536485D02*
X50932017Y-57203152D01*
X50932017Y-57203152D02*
X50979636Y-57012676D01*
X50979636Y-57012676D02*
X51074874Y-56917438D01*
X51074874Y-56917438D02*
X51170112Y-56869819D01*
X52027255Y-57869819D02*
X52027255Y-56869819D01*
X52027255Y-56869819D02*
X52265350Y-56869819D01*
X52265350Y-56869819D02*
X52408207Y-56917438D01*
X52408207Y-56917438D02*
X52503445Y-57012676D01*
X52503445Y-57012676D02*
X52551064Y-57107914D01*
X52551064Y-57107914D02*
X52598683Y-57298390D01*
X52598683Y-57298390D02*
X52598683Y-57441247D01*
X52598683Y-57441247D02*
X52551064Y-57631723D01*
X52551064Y-57631723D02*
X52503445Y-57726961D01*
X52503445Y-57726961D02*
X52408207Y-57822200D01*
X52408207Y-57822200D02*
X52265350Y-57869819D01*
X52265350Y-57869819D02*
X52027255Y-57869819D01*
X53027255Y-57346009D02*
X53360588Y-57346009D01*
X53503445Y-57869819D02*
X53027255Y-57869819D01*
X53027255Y-57869819D02*
X53027255Y-56869819D01*
X53027255Y-56869819D02*
X53503445Y-56869819D01*
X53932017Y-57869819D02*
X53932017Y-56869819D01*
X53932017Y-56869819D02*
X54265350Y-57584104D01*
X54265350Y-57584104D02*
X54598683Y-56869819D01*
X54598683Y-56869819D02*
X54598683Y-57869819D01*
X130869819Y-33187030D02*
X130869819Y-33663220D01*
X130869819Y-33663220D02*
X131346009Y-33710839D01*
X131346009Y-33710839D02*
X131298390Y-33663220D01*
X131298390Y-33663220D02*
X131250771Y-33567982D01*
X131250771Y-33567982D02*
X131250771Y-33329887D01*
X131250771Y-33329887D02*
X131298390Y-33234649D01*
X131298390Y-33234649D02*
X131346009Y-33187030D01*
X131346009Y-33187030D02*
X131441247Y-33139411D01*
X131441247Y-33139411D02*
X131679342Y-33139411D01*
X131679342Y-33139411D02*
X131774580Y-33187030D01*
X131774580Y-33187030D02*
X131822200Y-33234649D01*
X131822200Y-33234649D02*
X131869819Y-33329887D01*
X131869819Y-33329887D02*
X131869819Y-33567982D01*
X131869819Y-33567982D02*
X131822200Y-33663220D01*
X131822200Y-33663220D02*
X131774580Y-33710839D01*
X130869819Y-32853696D02*
X131869819Y-32520363D01*
X131869819Y-32520363D02*
X130869819Y-32187030D01*
X128417438Y-34377506D02*
X128369819Y-34472744D01*
X128369819Y-34472744D02*
X128369819Y-34615601D01*
X128369819Y-34615601D02*
X128417438Y-34758458D01*
X128417438Y-34758458D02*
X128512676Y-34853696D01*
X128512676Y-34853696D02*
X128607914Y-34901315D01*
X128607914Y-34901315D02*
X128798390Y-34948934D01*
X128798390Y-34948934D02*
X128941247Y-34948934D01*
X128941247Y-34948934D02*
X129131723Y-34901315D01*
X129131723Y-34901315D02*
X129226961Y-34853696D01*
X129226961Y-34853696D02*
X129322200Y-34758458D01*
X129322200Y-34758458D02*
X129369819Y-34615601D01*
X129369819Y-34615601D02*
X129369819Y-34520363D01*
X129369819Y-34520363D02*
X129322200Y-34377506D01*
X129322200Y-34377506D02*
X129274580Y-34329887D01*
X129274580Y-34329887D02*
X128941247Y-34329887D01*
X128941247Y-34329887D02*
X128941247Y-34520363D01*
X129369819Y-33901315D02*
X128369819Y-33901315D01*
X128369819Y-33901315D02*
X129369819Y-33329887D01*
X129369819Y-33329887D02*
X128369819Y-33329887D01*
X129369819Y-32853696D02*
X128369819Y-32853696D01*
X128369819Y-32853696D02*
X128369819Y-32615601D01*
X128369819Y-32615601D02*
X128417438Y-32472744D01*
X128417438Y-32472744D02*
X128512676Y-32377506D01*
X128512676Y-32377506D02*
X128607914Y-32329887D01*
X128607914Y-32329887D02*
X128798390Y-32282268D01*
X128798390Y-32282268D02*
X128941247Y-32282268D01*
X128941247Y-32282268D02*
X129131723Y-32329887D01*
X129131723Y-32329887D02*
X129226961Y-32377506D01*
X129226961Y-32377506D02*
X129322200Y-32472744D01*
X129322200Y-32472744D02*
X129369819Y-32615601D01*
X129369819Y-32615601D02*
X129369819Y-32853696D01*
X121369819Y-34710839D02*
X121369819Y-34091792D01*
X121369819Y-34091792D02*
X121750771Y-34425125D01*
X121750771Y-34425125D02*
X121750771Y-34282268D01*
X121750771Y-34282268D02*
X121798390Y-34187030D01*
X121798390Y-34187030D02*
X121846009Y-34139411D01*
X121846009Y-34139411D02*
X121941247Y-34091792D01*
X121941247Y-34091792D02*
X122179342Y-34091792D01*
X122179342Y-34091792D02*
X122274580Y-34139411D01*
X122274580Y-34139411D02*
X122322200Y-34187030D01*
X122322200Y-34187030D02*
X122369819Y-34282268D01*
X122369819Y-34282268D02*
X122369819Y-34567982D01*
X122369819Y-34567982D02*
X122322200Y-34663220D01*
X122322200Y-34663220D02*
X122274580Y-34710839D01*
X121369819Y-33806077D02*
X122369819Y-33472744D01*
X122369819Y-33472744D02*
X121369819Y-33139411D01*
X121369819Y-32901315D02*
X121369819Y-32234649D01*
X121369819Y-32234649D02*
X122369819Y-32663220D01*
X119417438Y-34377506D02*
X119369819Y-34472744D01*
X119369819Y-34472744D02*
X119369819Y-34615601D01*
X119369819Y-34615601D02*
X119417438Y-34758458D01*
X119417438Y-34758458D02*
X119512676Y-34853696D01*
X119512676Y-34853696D02*
X119607914Y-34901315D01*
X119607914Y-34901315D02*
X119798390Y-34948934D01*
X119798390Y-34948934D02*
X119941247Y-34948934D01*
X119941247Y-34948934D02*
X120131723Y-34901315D01*
X120131723Y-34901315D02*
X120226961Y-34853696D01*
X120226961Y-34853696D02*
X120322200Y-34758458D01*
X120322200Y-34758458D02*
X120369819Y-34615601D01*
X120369819Y-34615601D02*
X120369819Y-34520363D01*
X120369819Y-34520363D02*
X120322200Y-34377506D01*
X120322200Y-34377506D02*
X120274580Y-34329887D01*
X120274580Y-34329887D02*
X119941247Y-34329887D01*
X119941247Y-34329887D02*
X119941247Y-34520363D01*
X120369819Y-33901315D02*
X119369819Y-33901315D01*
X119369819Y-33901315D02*
X120369819Y-33329887D01*
X120369819Y-33329887D02*
X119369819Y-33329887D01*
X120369819Y-32853696D02*
X119369819Y-32853696D01*
X119369819Y-32853696D02*
X119369819Y-32615601D01*
X119369819Y-32615601D02*
X119417438Y-32472744D01*
X119417438Y-32472744D02*
X119512676Y-32377506D01*
X119512676Y-32377506D02*
X119607914Y-32329887D01*
X119607914Y-32329887D02*
X119798390Y-32282268D01*
X119798390Y-32282268D02*
X119941247Y-32282268D01*
X119941247Y-32282268D02*
X120131723Y-32329887D01*
X120131723Y-32329887D02*
X120226961Y-32377506D01*
X120226961Y-32377506D02*
X120322200Y-32472744D01*
X120322200Y-32472744D02*
X120369819Y-32615601D01*
X120369819Y-32615601D02*
X120369819Y-32853696D01*
X111869819Y-34710839D02*
X111869819Y-34091792D01*
X111869819Y-34091792D02*
X112250771Y-34425125D01*
X112250771Y-34425125D02*
X112250771Y-34282268D01*
X112250771Y-34282268D02*
X112298390Y-34187030D01*
X112298390Y-34187030D02*
X112346009Y-34139411D01*
X112346009Y-34139411D02*
X112441247Y-34091792D01*
X112441247Y-34091792D02*
X112679342Y-34091792D01*
X112679342Y-34091792D02*
X112774580Y-34139411D01*
X112774580Y-34139411D02*
X112822200Y-34187030D01*
X112822200Y-34187030D02*
X112869819Y-34282268D01*
X112869819Y-34282268D02*
X112869819Y-34567982D01*
X112869819Y-34567982D02*
X112822200Y-34663220D01*
X112822200Y-34663220D02*
X112774580Y-34710839D01*
X111869819Y-33806077D02*
X112869819Y-33472744D01*
X112869819Y-33472744D02*
X111869819Y-33139411D01*
X111869819Y-32901315D02*
X111869819Y-32282268D01*
X111869819Y-32282268D02*
X112250771Y-32615601D01*
X112250771Y-32615601D02*
X112250771Y-32472744D01*
X112250771Y-32472744D02*
X112298390Y-32377506D01*
X112298390Y-32377506D02*
X112346009Y-32329887D01*
X112346009Y-32329887D02*
X112441247Y-32282268D01*
X112441247Y-32282268D02*
X112679342Y-32282268D01*
X112679342Y-32282268D02*
X112774580Y-32329887D01*
X112774580Y-32329887D02*
X112822200Y-32377506D01*
X112822200Y-32377506D02*
X112869819Y-32472744D01*
X112869819Y-32472744D02*
X112869819Y-32758458D01*
X112869819Y-32758458D02*
X112822200Y-32853696D01*
X112822200Y-32853696D02*
X112774580Y-32901315D01*
X109917438Y-34377506D02*
X109869819Y-34472744D01*
X109869819Y-34472744D02*
X109869819Y-34615601D01*
X109869819Y-34615601D02*
X109917438Y-34758458D01*
X109917438Y-34758458D02*
X110012676Y-34853696D01*
X110012676Y-34853696D02*
X110107914Y-34901315D01*
X110107914Y-34901315D02*
X110298390Y-34948934D01*
X110298390Y-34948934D02*
X110441247Y-34948934D01*
X110441247Y-34948934D02*
X110631723Y-34901315D01*
X110631723Y-34901315D02*
X110726961Y-34853696D01*
X110726961Y-34853696D02*
X110822200Y-34758458D01*
X110822200Y-34758458D02*
X110869819Y-34615601D01*
X110869819Y-34615601D02*
X110869819Y-34520363D01*
X110869819Y-34520363D02*
X110822200Y-34377506D01*
X110822200Y-34377506D02*
X110774580Y-34329887D01*
X110774580Y-34329887D02*
X110441247Y-34329887D01*
X110441247Y-34329887D02*
X110441247Y-34520363D01*
X110869819Y-33901315D02*
X109869819Y-33901315D01*
X109869819Y-33901315D02*
X110869819Y-33329887D01*
X110869819Y-33329887D02*
X109869819Y-33329887D01*
X110869819Y-32853696D02*
X109869819Y-32853696D01*
X109869819Y-32853696D02*
X109869819Y-32615601D01*
X109869819Y-32615601D02*
X109917438Y-32472744D01*
X109917438Y-32472744D02*
X110012676Y-32377506D01*
X110012676Y-32377506D02*
X110107914Y-32329887D01*
X110107914Y-32329887D02*
X110298390Y-32282268D01*
X110298390Y-32282268D02*
X110441247Y-32282268D01*
X110441247Y-32282268D02*
X110631723Y-32329887D01*
X110631723Y-32329887D02*
X110726961Y-32377506D01*
X110726961Y-32377506D02*
X110822200Y-32472744D01*
X110822200Y-32472744D02*
X110869819Y-32615601D01*
X110869819Y-32615601D02*
X110869819Y-32853696D01*
X168265350Y-161917438D02*
X168170112Y-161869819D01*
X168170112Y-161869819D02*
X168027255Y-161869819D01*
X168027255Y-161869819D02*
X167884398Y-161917438D01*
X167884398Y-161917438D02*
X167789160Y-162012676D01*
X167789160Y-162012676D02*
X167741541Y-162107914D01*
X167741541Y-162107914D02*
X167693922Y-162298390D01*
X167693922Y-162298390D02*
X167693922Y-162441247D01*
X167693922Y-162441247D02*
X167741541Y-162631723D01*
X167741541Y-162631723D02*
X167789160Y-162726961D01*
X167789160Y-162726961D02*
X167884398Y-162822200D01*
X167884398Y-162822200D02*
X168027255Y-162869819D01*
X168027255Y-162869819D02*
X168122493Y-162869819D01*
X168122493Y-162869819D02*
X168265350Y-162822200D01*
X168265350Y-162822200D02*
X168312969Y-162774580D01*
X168312969Y-162774580D02*
X168312969Y-162441247D01*
X168312969Y-162441247D02*
X168122493Y-162441247D01*
X168741541Y-162869819D02*
X168741541Y-161869819D01*
X168741541Y-161869819D02*
X169312969Y-162869819D01*
X169312969Y-162869819D02*
X169312969Y-161869819D01*
X169789160Y-162869819D02*
X169789160Y-161869819D01*
X169789160Y-161869819D02*
X170027255Y-161869819D01*
X170027255Y-161869819D02*
X170170112Y-161917438D01*
X170170112Y-161917438D02*
X170265350Y-162012676D01*
X170265350Y-162012676D02*
X170312969Y-162107914D01*
X170312969Y-162107914D02*
X170360588Y-162298390D01*
X170360588Y-162298390D02*
X170360588Y-162441247D01*
X170360588Y-162441247D02*
X170312969Y-162631723D01*
X170312969Y-162631723D02*
X170265350Y-162726961D01*
X170265350Y-162726961D02*
X170170112Y-162822200D01*
X170170112Y-162822200D02*
X170027255Y-162869819D01*
X170027255Y-162869819D02*
X169789160Y-162869819D01*
X167646303Y-156869819D02*
X167646303Y-155869819D01*
X167646303Y-155869819D02*
X168027255Y-155869819D01*
X168027255Y-155869819D02*
X168122493Y-155917438D01*
X168122493Y-155917438D02*
X168170112Y-155965057D01*
X168170112Y-155965057D02*
X168217731Y-156060295D01*
X168217731Y-156060295D02*
X168217731Y-156203152D01*
X168217731Y-156203152D02*
X168170112Y-156298390D01*
X168170112Y-156298390D02*
X168122493Y-156346009D01*
X168122493Y-156346009D02*
X168027255Y-156393628D01*
X168027255Y-156393628D02*
X167646303Y-156393628D01*
X168551065Y-155869819D02*
X168789160Y-156869819D01*
X168789160Y-156869819D02*
X168979636Y-156155533D01*
X168979636Y-156155533D02*
X169170112Y-156869819D01*
X169170112Y-156869819D02*
X169408208Y-155869819D01*
X170360588Y-156869819D02*
X170027255Y-156393628D01*
X169789160Y-156869819D02*
X169789160Y-155869819D01*
X169789160Y-155869819D02*
X170170112Y-155869819D01*
X170170112Y-155869819D02*
X170265350Y-155917438D01*
X170265350Y-155917438D02*
X170312969Y-155965057D01*
X170312969Y-155965057D02*
X170360588Y-156060295D01*
X170360588Y-156060295D02*
X170360588Y-156203152D01*
X170360588Y-156203152D02*
X170312969Y-156298390D01*
X170312969Y-156298390D02*
X170265350Y-156346009D01*
X170265350Y-156346009D02*
X170170112Y-156393628D01*
X170170112Y-156393628D02*
X169789160Y-156393628D01*
X169408207Y-160869819D02*
X169074874Y-160393628D01*
X168836779Y-160869819D02*
X168836779Y-159869819D01*
X168836779Y-159869819D02*
X169217731Y-159869819D01*
X169217731Y-159869819D02*
X169312969Y-159917438D01*
X169312969Y-159917438D02*
X169360588Y-159965057D01*
X169360588Y-159965057D02*
X169408207Y-160060295D01*
X169408207Y-160060295D02*
X169408207Y-160203152D01*
X169408207Y-160203152D02*
X169360588Y-160298390D01*
X169360588Y-160298390D02*
X169312969Y-160346009D01*
X169312969Y-160346009D02*
X169217731Y-160393628D01*
X169217731Y-160393628D02*
X168836779Y-160393628D01*
X169741541Y-159869819D02*
X170408207Y-160869819D01*
X170408207Y-159869819D02*
X169741541Y-160869819D01*
X165408207Y-158822200D02*
X165551064Y-158869819D01*
X165551064Y-158869819D02*
X165789159Y-158869819D01*
X165789159Y-158869819D02*
X165884397Y-158822200D01*
X165884397Y-158822200D02*
X165932016Y-158774580D01*
X165932016Y-158774580D02*
X165979635Y-158679342D01*
X165979635Y-158679342D02*
X165979635Y-158584104D01*
X165979635Y-158584104D02*
X165932016Y-158488866D01*
X165932016Y-158488866D02*
X165884397Y-158441247D01*
X165884397Y-158441247D02*
X165789159Y-158393628D01*
X165789159Y-158393628D02*
X165598683Y-158346009D01*
X165598683Y-158346009D02*
X165503445Y-158298390D01*
X165503445Y-158298390D02*
X165455826Y-158250771D01*
X165455826Y-158250771D02*
X165408207Y-158155533D01*
X165408207Y-158155533D02*
X165408207Y-158060295D01*
X165408207Y-158060295D02*
X165455826Y-157965057D01*
X165455826Y-157965057D02*
X165503445Y-157917438D01*
X165503445Y-157917438D02*
X165598683Y-157869819D01*
X165598683Y-157869819D02*
X165836778Y-157869819D01*
X165836778Y-157869819D02*
X165979635Y-157917438D01*
X166265350Y-157869819D02*
X166836778Y-157869819D01*
X166551064Y-158869819D02*
X166551064Y-157869819D01*
X167170112Y-158869819D02*
X167170112Y-157869819D01*
X167170112Y-157869819D02*
X167503445Y-158584104D01*
X167503445Y-158584104D02*
X167836778Y-157869819D01*
X167836778Y-157869819D02*
X167836778Y-158869819D01*
X168074874Y-158965057D02*
X168836778Y-158965057D01*
X168932017Y-157869819D02*
X169503445Y-157869819D01*
X169217731Y-158869819D02*
X169217731Y-157869819D01*
X169741541Y-157869819D02*
X170408207Y-158869819D01*
X170408207Y-157869819D02*
X169741541Y-158869819D01*
X168265350Y-149417438D02*
X168170112Y-149369819D01*
X168170112Y-149369819D02*
X168027255Y-149369819D01*
X168027255Y-149369819D02*
X167884398Y-149417438D01*
X167884398Y-149417438D02*
X167789160Y-149512676D01*
X167789160Y-149512676D02*
X167741541Y-149607914D01*
X167741541Y-149607914D02*
X167693922Y-149798390D01*
X167693922Y-149798390D02*
X167693922Y-149941247D01*
X167693922Y-149941247D02*
X167741541Y-150131723D01*
X167741541Y-150131723D02*
X167789160Y-150226961D01*
X167789160Y-150226961D02*
X167884398Y-150322200D01*
X167884398Y-150322200D02*
X168027255Y-150369819D01*
X168027255Y-150369819D02*
X168122493Y-150369819D01*
X168122493Y-150369819D02*
X168265350Y-150322200D01*
X168265350Y-150322200D02*
X168312969Y-150274580D01*
X168312969Y-150274580D02*
X168312969Y-149941247D01*
X168312969Y-149941247D02*
X168122493Y-149941247D01*
X168741541Y-150369819D02*
X168741541Y-149369819D01*
X168741541Y-149369819D02*
X169312969Y-150369819D01*
X169312969Y-150369819D02*
X169312969Y-149369819D01*
X169789160Y-150369819D02*
X169789160Y-149369819D01*
X169789160Y-149369819D02*
X170027255Y-149369819D01*
X170027255Y-149369819D02*
X170170112Y-149417438D01*
X170170112Y-149417438D02*
X170265350Y-149512676D01*
X170265350Y-149512676D02*
X170312969Y-149607914D01*
X170312969Y-149607914D02*
X170360588Y-149798390D01*
X170360588Y-149798390D02*
X170360588Y-149941247D01*
X170360588Y-149941247D02*
X170312969Y-150131723D01*
X170312969Y-150131723D02*
X170265350Y-150226961D01*
X170265350Y-150226961D02*
X170170112Y-150322200D01*
X170170112Y-150322200D02*
X170027255Y-150369819D01*
X170027255Y-150369819D02*
X169789160Y-150369819D01*
X167646303Y-144369819D02*
X167646303Y-143369819D01*
X167646303Y-143369819D02*
X168027255Y-143369819D01*
X168027255Y-143369819D02*
X168122493Y-143417438D01*
X168122493Y-143417438D02*
X168170112Y-143465057D01*
X168170112Y-143465057D02*
X168217731Y-143560295D01*
X168217731Y-143560295D02*
X168217731Y-143703152D01*
X168217731Y-143703152D02*
X168170112Y-143798390D01*
X168170112Y-143798390D02*
X168122493Y-143846009D01*
X168122493Y-143846009D02*
X168027255Y-143893628D01*
X168027255Y-143893628D02*
X167646303Y-143893628D01*
X168551065Y-143369819D02*
X168789160Y-144369819D01*
X168789160Y-144369819D02*
X168979636Y-143655533D01*
X168979636Y-143655533D02*
X169170112Y-144369819D01*
X169170112Y-144369819D02*
X169408208Y-143369819D01*
X170360588Y-144369819D02*
X170027255Y-143893628D01*
X169789160Y-144369819D02*
X169789160Y-143369819D01*
X169789160Y-143369819D02*
X170170112Y-143369819D01*
X170170112Y-143369819D02*
X170265350Y-143417438D01*
X170265350Y-143417438D02*
X170312969Y-143465057D01*
X170312969Y-143465057D02*
X170360588Y-143560295D01*
X170360588Y-143560295D02*
X170360588Y-143703152D01*
X170360588Y-143703152D02*
X170312969Y-143798390D01*
X170312969Y-143798390D02*
X170265350Y-143846009D01*
X170265350Y-143846009D02*
X170170112Y-143893628D01*
X170170112Y-143893628D02*
X169789160Y-143893628D01*
X169408207Y-148369819D02*
X169074874Y-147893628D01*
X168836779Y-148369819D02*
X168836779Y-147369819D01*
X168836779Y-147369819D02*
X169217731Y-147369819D01*
X169217731Y-147369819D02*
X169312969Y-147417438D01*
X169312969Y-147417438D02*
X169360588Y-147465057D01*
X169360588Y-147465057D02*
X169408207Y-147560295D01*
X169408207Y-147560295D02*
X169408207Y-147703152D01*
X169408207Y-147703152D02*
X169360588Y-147798390D01*
X169360588Y-147798390D02*
X169312969Y-147846009D01*
X169312969Y-147846009D02*
X169217731Y-147893628D01*
X169217731Y-147893628D02*
X168836779Y-147893628D01*
X169741541Y-147369819D02*
X170408207Y-148369819D01*
X170408207Y-147369819D02*
X169741541Y-148369819D01*
X165408207Y-146322200D02*
X165551064Y-146369819D01*
X165551064Y-146369819D02*
X165789159Y-146369819D01*
X165789159Y-146369819D02*
X165884397Y-146322200D01*
X165884397Y-146322200D02*
X165932016Y-146274580D01*
X165932016Y-146274580D02*
X165979635Y-146179342D01*
X165979635Y-146179342D02*
X165979635Y-146084104D01*
X165979635Y-146084104D02*
X165932016Y-145988866D01*
X165932016Y-145988866D02*
X165884397Y-145941247D01*
X165884397Y-145941247D02*
X165789159Y-145893628D01*
X165789159Y-145893628D02*
X165598683Y-145846009D01*
X165598683Y-145846009D02*
X165503445Y-145798390D01*
X165503445Y-145798390D02*
X165455826Y-145750771D01*
X165455826Y-145750771D02*
X165408207Y-145655533D01*
X165408207Y-145655533D02*
X165408207Y-145560295D01*
X165408207Y-145560295D02*
X165455826Y-145465057D01*
X165455826Y-145465057D02*
X165503445Y-145417438D01*
X165503445Y-145417438D02*
X165598683Y-145369819D01*
X165598683Y-145369819D02*
X165836778Y-145369819D01*
X165836778Y-145369819D02*
X165979635Y-145417438D01*
X166265350Y-145369819D02*
X166836778Y-145369819D01*
X166551064Y-146369819D02*
X166551064Y-145369819D01*
X167170112Y-146369819D02*
X167170112Y-145369819D01*
X167170112Y-145369819D02*
X167503445Y-146084104D01*
X167503445Y-146084104D02*
X167836778Y-145369819D01*
X167836778Y-145369819D02*
X167836778Y-146369819D01*
X168074874Y-146465057D02*
X168836778Y-146465057D01*
X168932017Y-145369819D02*
X169503445Y-145369819D01*
X169217731Y-146369819D02*
X169217731Y-145369819D01*
X169741541Y-145369819D02*
X170408207Y-146369819D01*
X170408207Y-145369819D02*
X169741541Y-146369819D01*
X169408207Y-136869819D02*
X169074874Y-136393628D01*
X168836779Y-136869819D02*
X168836779Y-135869819D01*
X168836779Y-135869819D02*
X169217731Y-135869819D01*
X169217731Y-135869819D02*
X169312969Y-135917438D01*
X169312969Y-135917438D02*
X169360588Y-135965057D01*
X169360588Y-135965057D02*
X169408207Y-136060295D01*
X169408207Y-136060295D02*
X169408207Y-136203152D01*
X169408207Y-136203152D02*
X169360588Y-136298390D01*
X169360588Y-136298390D02*
X169312969Y-136346009D01*
X169312969Y-136346009D02*
X169217731Y-136393628D01*
X169217731Y-136393628D02*
X168836779Y-136393628D01*
X169741541Y-135869819D02*
X170408207Y-136869819D01*
X170408207Y-135869819D02*
X169741541Y-136869819D01*
X165408207Y-134822200D02*
X165551064Y-134869819D01*
X165551064Y-134869819D02*
X165789159Y-134869819D01*
X165789159Y-134869819D02*
X165884397Y-134822200D01*
X165884397Y-134822200D02*
X165932016Y-134774580D01*
X165932016Y-134774580D02*
X165979635Y-134679342D01*
X165979635Y-134679342D02*
X165979635Y-134584104D01*
X165979635Y-134584104D02*
X165932016Y-134488866D01*
X165932016Y-134488866D02*
X165884397Y-134441247D01*
X165884397Y-134441247D02*
X165789159Y-134393628D01*
X165789159Y-134393628D02*
X165598683Y-134346009D01*
X165598683Y-134346009D02*
X165503445Y-134298390D01*
X165503445Y-134298390D02*
X165455826Y-134250771D01*
X165455826Y-134250771D02*
X165408207Y-134155533D01*
X165408207Y-134155533D02*
X165408207Y-134060295D01*
X165408207Y-134060295D02*
X165455826Y-133965057D01*
X165455826Y-133965057D02*
X165503445Y-133917438D01*
X165503445Y-133917438D02*
X165598683Y-133869819D01*
X165598683Y-133869819D02*
X165836778Y-133869819D01*
X165836778Y-133869819D02*
X165979635Y-133917438D01*
X166265350Y-133869819D02*
X166836778Y-133869819D01*
X166551064Y-134869819D02*
X166551064Y-133869819D01*
X167170112Y-134869819D02*
X167170112Y-133869819D01*
X167170112Y-133869819D02*
X167503445Y-134584104D01*
X167503445Y-134584104D02*
X167836778Y-133869819D01*
X167836778Y-133869819D02*
X167836778Y-134869819D01*
X168074874Y-134965057D02*
X168836778Y-134965057D01*
X168932017Y-133869819D02*
X169503445Y-133869819D01*
X169217731Y-134869819D02*
X169217731Y-133869819D01*
X169741541Y-133869819D02*
X170408207Y-134869819D01*
X170408207Y-133869819D02*
X169741541Y-134869819D01*
X168265350Y-137917438D02*
X168170112Y-137869819D01*
X168170112Y-137869819D02*
X168027255Y-137869819D01*
X168027255Y-137869819D02*
X167884398Y-137917438D01*
X167884398Y-137917438D02*
X167789160Y-138012676D01*
X167789160Y-138012676D02*
X167741541Y-138107914D01*
X167741541Y-138107914D02*
X167693922Y-138298390D01*
X167693922Y-138298390D02*
X167693922Y-138441247D01*
X167693922Y-138441247D02*
X167741541Y-138631723D01*
X167741541Y-138631723D02*
X167789160Y-138726961D01*
X167789160Y-138726961D02*
X167884398Y-138822200D01*
X167884398Y-138822200D02*
X168027255Y-138869819D01*
X168027255Y-138869819D02*
X168122493Y-138869819D01*
X168122493Y-138869819D02*
X168265350Y-138822200D01*
X168265350Y-138822200D02*
X168312969Y-138774580D01*
X168312969Y-138774580D02*
X168312969Y-138441247D01*
X168312969Y-138441247D02*
X168122493Y-138441247D01*
X168741541Y-138869819D02*
X168741541Y-137869819D01*
X168741541Y-137869819D02*
X169312969Y-138869819D01*
X169312969Y-138869819D02*
X169312969Y-137869819D01*
X169789160Y-138869819D02*
X169789160Y-137869819D01*
X169789160Y-137869819D02*
X170027255Y-137869819D01*
X170027255Y-137869819D02*
X170170112Y-137917438D01*
X170170112Y-137917438D02*
X170265350Y-138012676D01*
X170265350Y-138012676D02*
X170312969Y-138107914D01*
X170312969Y-138107914D02*
X170360588Y-138298390D01*
X170360588Y-138298390D02*
X170360588Y-138441247D01*
X170360588Y-138441247D02*
X170312969Y-138631723D01*
X170312969Y-138631723D02*
X170265350Y-138726961D01*
X170265350Y-138726961D02*
X170170112Y-138822200D01*
X170170112Y-138822200D02*
X170027255Y-138869819D01*
X170027255Y-138869819D02*
X169789160Y-138869819D01*
X167646303Y-132869819D02*
X167646303Y-131869819D01*
X167646303Y-131869819D02*
X168027255Y-131869819D01*
X168027255Y-131869819D02*
X168122493Y-131917438D01*
X168122493Y-131917438D02*
X168170112Y-131965057D01*
X168170112Y-131965057D02*
X168217731Y-132060295D01*
X168217731Y-132060295D02*
X168217731Y-132203152D01*
X168217731Y-132203152D02*
X168170112Y-132298390D01*
X168170112Y-132298390D02*
X168122493Y-132346009D01*
X168122493Y-132346009D02*
X168027255Y-132393628D01*
X168027255Y-132393628D02*
X167646303Y-132393628D01*
X168551065Y-131869819D02*
X168789160Y-132869819D01*
X168789160Y-132869819D02*
X168979636Y-132155533D01*
X168979636Y-132155533D02*
X169170112Y-132869819D01*
X169170112Y-132869819D02*
X169408208Y-131869819D01*
X170360588Y-132869819D02*
X170027255Y-132393628D01*
X169789160Y-132869819D02*
X169789160Y-131869819D01*
X169789160Y-131869819D02*
X170170112Y-131869819D01*
X170170112Y-131869819D02*
X170265350Y-131917438D01*
X170265350Y-131917438D02*
X170312969Y-131965057D01*
X170312969Y-131965057D02*
X170360588Y-132060295D01*
X170360588Y-132060295D02*
X170360588Y-132203152D01*
X170360588Y-132203152D02*
X170312969Y-132298390D01*
X170312969Y-132298390D02*
X170265350Y-132346009D01*
X170265350Y-132346009D02*
X170170112Y-132393628D01*
X170170112Y-132393628D02*
X169789160Y-132393628D01*
X168908207Y-112774580D02*
X168860588Y-112822200D01*
X168860588Y-112822200D02*
X168717731Y-112869819D01*
X168717731Y-112869819D02*
X168622493Y-112869819D01*
X168622493Y-112869819D02*
X168479636Y-112822200D01*
X168479636Y-112822200D02*
X168384398Y-112726961D01*
X168384398Y-112726961D02*
X168336779Y-112631723D01*
X168336779Y-112631723D02*
X168289160Y-112441247D01*
X168289160Y-112441247D02*
X168289160Y-112298390D01*
X168289160Y-112298390D02*
X168336779Y-112107914D01*
X168336779Y-112107914D02*
X168384398Y-112012676D01*
X168384398Y-112012676D02*
X168479636Y-111917438D01*
X168479636Y-111917438D02*
X168622493Y-111869819D01*
X168622493Y-111869819D02*
X168717731Y-111869819D01*
X168717731Y-111869819D02*
X168860588Y-111917438D01*
X168860588Y-111917438D02*
X168908207Y-111965057D01*
X169289160Y-112822200D02*
X169432017Y-112869819D01*
X169432017Y-112869819D02*
X169670112Y-112869819D01*
X169670112Y-112869819D02*
X169765350Y-112822200D01*
X169765350Y-112822200D02*
X169812969Y-112774580D01*
X169812969Y-112774580D02*
X169860588Y-112679342D01*
X169860588Y-112679342D02*
X169860588Y-112584104D01*
X169860588Y-112584104D02*
X169812969Y-112488866D01*
X169812969Y-112488866D02*
X169765350Y-112441247D01*
X169765350Y-112441247D02*
X169670112Y-112393628D01*
X169670112Y-112393628D02*
X169479636Y-112346009D01*
X169479636Y-112346009D02*
X169384398Y-112298390D01*
X169384398Y-112298390D02*
X169336779Y-112250771D01*
X169336779Y-112250771D02*
X169289160Y-112155533D01*
X169289160Y-112155533D02*
X169289160Y-112060295D01*
X169289160Y-112060295D02*
X169336779Y-111965057D01*
X169336779Y-111965057D02*
X169384398Y-111917438D01*
X169384398Y-111917438D02*
X169479636Y-111869819D01*
X169479636Y-111869819D02*
X169717731Y-111869819D01*
X169717731Y-111869819D02*
X169860588Y-111917438D01*
X166836779Y-108869819D02*
X166836779Y-107869819D01*
X166836779Y-107869819D02*
X167170112Y-108584104D01*
X167170112Y-108584104D02*
X167503445Y-107869819D01*
X167503445Y-107869819D02*
X167503445Y-108869819D01*
X167979636Y-108869819D02*
X167979636Y-107869819D01*
X168408207Y-108822200D02*
X168551064Y-108869819D01*
X168551064Y-108869819D02*
X168789159Y-108869819D01*
X168789159Y-108869819D02*
X168884397Y-108822200D01*
X168884397Y-108822200D02*
X168932016Y-108774580D01*
X168932016Y-108774580D02*
X168979635Y-108679342D01*
X168979635Y-108679342D02*
X168979635Y-108584104D01*
X168979635Y-108584104D02*
X168932016Y-108488866D01*
X168932016Y-108488866D02*
X168884397Y-108441247D01*
X168884397Y-108441247D02*
X168789159Y-108393628D01*
X168789159Y-108393628D02*
X168598683Y-108346009D01*
X168598683Y-108346009D02*
X168503445Y-108298390D01*
X168503445Y-108298390D02*
X168455826Y-108250771D01*
X168455826Y-108250771D02*
X168408207Y-108155533D01*
X168408207Y-108155533D02*
X168408207Y-108060295D01*
X168408207Y-108060295D02*
X168455826Y-107965057D01*
X168455826Y-107965057D02*
X168503445Y-107917438D01*
X168503445Y-107917438D02*
X168598683Y-107869819D01*
X168598683Y-107869819D02*
X168836778Y-107869819D01*
X168836778Y-107869819D02*
X168979635Y-107917438D01*
X169598683Y-107869819D02*
X169789159Y-107869819D01*
X169789159Y-107869819D02*
X169884397Y-107917438D01*
X169884397Y-107917438D02*
X169979635Y-108012676D01*
X169979635Y-108012676D02*
X170027254Y-108203152D01*
X170027254Y-108203152D02*
X170027254Y-108536485D01*
X170027254Y-108536485D02*
X169979635Y-108726961D01*
X169979635Y-108726961D02*
X169884397Y-108822200D01*
X169884397Y-108822200D02*
X169789159Y-108869819D01*
X169789159Y-108869819D02*
X169598683Y-108869819D01*
X169598683Y-108869819D02*
X169503445Y-108822200D01*
X169503445Y-108822200D02*
X169408207Y-108726961D01*
X169408207Y-108726961D02*
X169360588Y-108536485D01*
X169360588Y-108536485D02*
X169360588Y-108203152D01*
X169360588Y-108203152D02*
X169408207Y-108012676D01*
X169408207Y-108012676D02*
X169503445Y-107917438D01*
X169503445Y-107917438D02*
X169598683Y-107869819D01*
X167860588Y-103917438D02*
X167765350Y-103869819D01*
X167765350Y-103869819D02*
X167622493Y-103869819D01*
X167622493Y-103869819D02*
X167479636Y-103917438D01*
X167479636Y-103917438D02*
X167384398Y-104012676D01*
X167384398Y-104012676D02*
X167336779Y-104107914D01*
X167336779Y-104107914D02*
X167289160Y-104298390D01*
X167289160Y-104298390D02*
X167289160Y-104441247D01*
X167289160Y-104441247D02*
X167336779Y-104631723D01*
X167336779Y-104631723D02*
X167384398Y-104726961D01*
X167384398Y-104726961D02*
X167479636Y-104822200D01*
X167479636Y-104822200D02*
X167622493Y-104869819D01*
X167622493Y-104869819D02*
X167717731Y-104869819D01*
X167717731Y-104869819D02*
X167860588Y-104822200D01*
X167860588Y-104822200D02*
X167908207Y-104774580D01*
X167908207Y-104774580D02*
X167908207Y-104441247D01*
X167908207Y-104441247D02*
X167717731Y-104441247D01*
X168336779Y-104869819D02*
X168336779Y-103869819D01*
X168336779Y-103869819D02*
X168908207Y-104869819D01*
X168908207Y-104869819D02*
X168908207Y-103869819D01*
X169384398Y-104869819D02*
X169384398Y-103869819D01*
X169384398Y-103869819D02*
X169622493Y-103869819D01*
X169622493Y-103869819D02*
X169765350Y-103917438D01*
X169765350Y-103917438D02*
X169860588Y-104012676D01*
X169860588Y-104012676D02*
X169908207Y-104107914D01*
X169908207Y-104107914D02*
X169955826Y-104298390D01*
X169955826Y-104298390D02*
X169955826Y-104441247D01*
X169955826Y-104441247D02*
X169908207Y-104631723D01*
X169908207Y-104631723D02*
X169860588Y-104726961D01*
X169860588Y-104726961D02*
X169765350Y-104822200D01*
X169765350Y-104822200D02*
X169622493Y-104869819D01*
X169622493Y-104869819D02*
X169384398Y-104869819D01*
X167241541Y-101869819D02*
X167860588Y-101869819D01*
X167860588Y-101869819D02*
X167527255Y-102250771D01*
X167527255Y-102250771D02*
X167670112Y-102250771D01*
X167670112Y-102250771D02*
X167765350Y-102298390D01*
X167765350Y-102298390D02*
X167812969Y-102346009D01*
X167812969Y-102346009D02*
X167860588Y-102441247D01*
X167860588Y-102441247D02*
X167860588Y-102679342D01*
X167860588Y-102679342D02*
X167812969Y-102774580D01*
X167812969Y-102774580D02*
X167765350Y-102822200D01*
X167765350Y-102822200D02*
X167670112Y-102869819D01*
X167670112Y-102869819D02*
X167384398Y-102869819D01*
X167384398Y-102869819D02*
X167289160Y-102822200D01*
X167289160Y-102822200D02*
X167241541Y-102774580D01*
X168146303Y-101869819D02*
X168479636Y-102869819D01*
X168479636Y-102869819D02*
X168812969Y-101869819D01*
X169051065Y-101869819D02*
X169670112Y-101869819D01*
X169670112Y-101869819D02*
X169336779Y-102250771D01*
X169336779Y-102250771D02*
X169479636Y-102250771D01*
X169479636Y-102250771D02*
X169574874Y-102298390D01*
X169574874Y-102298390D02*
X169622493Y-102346009D01*
X169622493Y-102346009D02*
X169670112Y-102441247D01*
X169670112Y-102441247D02*
X169670112Y-102679342D01*
X169670112Y-102679342D02*
X169622493Y-102774580D01*
X169622493Y-102774580D02*
X169574874Y-102822200D01*
X169574874Y-102822200D02*
X169479636Y-102869819D01*
X169479636Y-102869819D02*
X169193922Y-102869819D01*
X169193922Y-102869819D02*
X169098684Y-102822200D01*
X169098684Y-102822200D02*
X169051065Y-102774580D01*
X166836779Y-110869819D02*
X166836779Y-109869819D01*
X166836779Y-109869819D02*
X167170112Y-110584104D01*
X167170112Y-110584104D02*
X167503445Y-109869819D01*
X167503445Y-109869819D02*
X167503445Y-110869819D01*
X168170112Y-109869819D02*
X168360588Y-109869819D01*
X168360588Y-109869819D02*
X168455826Y-109917438D01*
X168455826Y-109917438D02*
X168551064Y-110012676D01*
X168551064Y-110012676D02*
X168598683Y-110203152D01*
X168598683Y-110203152D02*
X168598683Y-110536485D01*
X168598683Y-110536485D02*
X168551064Y-110726961D01*
X168551064Y-110726961D02*
X168455826Y-110822200D01*
X168455826Y-110822200D02*
X168360588Y-110869819D01*
X168360588Y-110869819D02*
X168170112Y-110869819D01*
X168170112Y-110869819D02*
X168074874Y-110822200D01*
X168074874Y-110822200D02*
X167979636Y-110726961D01*
X167979636Y-110726961D02*
X167932017Y-110536485D01*
X167932017Y-110536485D02*
X167932017Y-110203152D01*
X167932017Y-110203152D02*
X167979636Y-110012676D01*
X167979636Y-110012676D02*
X168074874Y-109917438D01*
X168074874Y-109917438D02*
X168170112Y-109869819D01*
X168979636Y-110822200D02*
X169122493Y-110869819D01*
X169122493Y-110869819D02*
X169360588Y-110869819D01*
X169360588Y-110869819D02*
X169455826Y-110822200D01*
X169455826Y-110822200D02*
X169503445Y-110774580D01*
X169503445Y-110774580D02*
X169551064Y-110679342D01*
X169551064Y-110679342D02*
X169551064Y-110584104D01*
X169551064Y-110584104D02*
X169503445Y-110488866D01*
X169503445Y-110488866D02*
X169455826Y-110441247D01*
X169455826Y-110441247D02*
X169360588Y-110393628D01*
X169360588Y-110393628D02*
X169170112Y-110346009D01*
X169170112Y-110346009D02*
X169074874Y-110298390D01*
X169074874Y-110298390D02*
X169027255Y-110250771D01*
X169027255Y-110250771D02*
X168979636Y-110155533D01*
X168979636Y-110155533D02*
X168979636Y-110060295D01*
X168979636Y-110060295D02*
X169027255Y-109965057D01*
X169027255Y-109965057D02*
X169074874Y-109917438D01*
X169074874Y-109917438D02*
X169170112Y-109869819D01*
X169170112Y-109869819D02*
X169408207Y-109869819D01*
X169408207Y-109869819D02*
X169551064Y-109917438D01*
X169979636Y-110869819D02*
X169979636Y-109869819D01*
X167908207Y-106774580D02*
X167860588Y-106822200D01*
X167860588Y-106822200D02*
X167717731Y-106869819D01*
X167717731Y-106869819D02*
X167622493Y-106869819D01*
X167622493Y-106869819D02*
X167479636Y-106822200D01*
X167479636Y-106822200D02*
X167384398Y-106726961D01*
X167384398Y-106726961D02*
X167336779Y-106631723D01*
X167336779Y-106631723D02*
X167289160Y-106441247D01*
X167289160Y-106441247D02*
X167289160Y-106298390D01*
X167289160Y-106298390D02*
X167336779Y-106107914D01*
X167336779Y-106107914D02*
X167384398Y-106012676D01*
X167384398Y-106012676D02*
X167479636Y-105917438D01*
X167479636Y-105917438D02*
X167622493Y-105869819D01*
X167622493Y-105869819D02*
X167717731Y-105869819D01*
X167717731Y-105869819D02*
X167860588Y-105917438D01*
X167860588Y-105917438D02*
X167908207Y-105965057D01*
X168812969Y-106869819D02*
X168336779Y-106869819D01*
X168336779Y-106869819D02*
X168336779Y-105869819D01*
X169146303Y-106869819D02*
X169146303Y-105869819D01*
X169717731Y-106869819D02*
X169289160Y-106298390D01*
X169717731Y-105869819D02*
X169146303Y-106441247D01*
X168908207Y-95274580D02*
X168860588Y-95322200D01*
X168860588Y-95322200D02*
X168717731Y-95369819D01*
X168717731Y-95369819D02*
X168622493Y-95369819D01*
X168622493Y-95369819D02*
X168479636Y-95322200D01*
X168479636Y-95322200D02*
X168384398Y-95226961D01*
X168384398Y-95226961D02*
X168336779Y-95131723D01*
X168336779Y-95131723D02*
X168289160Y-94941247D01*
X168289160Y-94941247D02*
X168289160Y-94798390D01*
X168289160Y-94798390D02*
X168336779Y-94607914D01*
X168336779Y-94607914D02*
X168384398Y-94512676D01*
X168384398Y-94512676D02*
X168479636Y-94417438D01*
X168479636Y-94417438D02*
X168622493Y-94369819D01*
X168622493Y-94369819D02*
X168717731Y-94369819D01*
X168717731Y-94369819D02*
X168860588Y-94417438D01*
X168860588Y-94417438D02*
X168908207Y-94465057D01*
X169289160Y-95322200D02*
X169432017Y-95369819D01*
X169432017Y-95369819D02*
X169670112Y-95369819D01*
X169670112Y-95369819D02*
X169765350Y-95322200D01*
X169765350Y-95322200D02*
X169812969Y-95274580D01*
X169812969Y-95274580D02*
X169860588Y-95179342D01*
X169860588Y-95179342D02*
X169860588Y-95084104D01*
X169860588Y-95084104D02*
X169812969Y-94988866D01*
X169812969Y-94988866D02*
X169765350Y-94941247D01*
X169765350Y-94941247D02*
X169670112Y-94893628D01*
X169670112Y-94893628D02*
X169479636Y-94846009D01*
X169479636Y-94846009D02*
X169384398Y-94798390D01*
X169384398Y-94798390D02*
X169336779Y-94750771D01*
X169336779Y-94750771D02*
X169289160Y-94655533D01*
X169289160Y-94655533D02*
X169289160Y-94560295D01*
X169289160Y-94560295D02*
X169336779Y-94465057D01*
X169336779Y-94465057D02*
X169384398Y-94417438D01*
X169384398Y-94417438D02*
X169479636Y-94369819D01*
X169479636Y-94369819D02*
X169717731Y-94369819D01*
X169717731Y-94369819D02*
X169860588Y-94417438D01*
X166836779Y-93369819D02*
X166836779Y-92369819D01*
X166836779Y-92369819D02*
X167170112Y-93084104D01*
X167170112Y-93084104D02*
X167503445Y-92369819D01*
X167503445Y-92369819D02*
X167503445Y-93369819D01*
X168170112Y-92369819D02*
X168360588Y-92369819D01*
X168360588Y-92369819D02*
X168455826Y-92417438D01*
X168455826Y-92417438D02*
X168551064Y-92512676D01*
X168551064Y-92512676D02*
X168598683Y-92703152D01*
X168598683Y-92703152D02*
X168598683Y-93036485D01*
X168598683Y-93036485D02*
X168551064Y-93226961D01*
X168551064Y-93226961D02*
X168455826Y-93322200D01*
X168455826Y-93322200D02*
X168360588Y-93369819D01*
X168360588Y-93369819D02*
X168170112Y-93369819D01*
X168170112Y-93369819D02*
X168074874Y-93322200D01*
X168074874Y-93322200D02*
X167979636Y-93226961D01*
X167979636Y-93226961D02*
X167932017Y-93036485D01*
X167932017Y-93036485D02*
X167932017Y-92703152D01*
X167932017Y-92703152D02*
X167979636Y-92512676D01*
X167979636Y-92512676D02*
X168074874Y-92417438D01*
X168074874Y-92417438D02*
X168170112Y-92369819D01*
X168979636Y-93322200D02*
X169122493Y-93369819D01*
X169122493Y-93369819D02*
X169360588Y-93369819D01*
X169360588Y-93369819D02*
X169455826Y-93322200D01*
X169455826Y-93322200D02*
X169503445Y-93274580D01*
X169503445Y-93274580D02*
X169551064Y-93179342D01*
X169551064Y-93179342D02*
X169551064Y-93084104D01*
X169551064Y-93084104D02*
X169503445Y-92988866D01*
X169503445Y-92988866D02*
X169455826Y-92941247D01*
X169455826Y-92941247D02*
X169360588Y-92893628D01*
X169360588Y-92893628D02*
X169170112Y-92846009D01*
X169170112Y-92846009D02*
X169074874Y-92798390D01*
X169074874Y-92798390D02*
X169027255Y-92750771D01*
X169027255Y-92750771D02*
X168979636Y-92655533D01*
X168979636Y-92655533D02*
X168979636Y-92560295D01*
X168979636Y-92560295D02*
X169027255Y-92465057D01*
X169027255Y-92465057D02*
X169074874Y-92417438D01*
X169074874Y-92417438D02*
X169170112Y-92369819D01*
X169170112Y-92369819D02*
X169408207Y-92369819D01*
X169408207Y-92369819D02*
X169551064Y-92417438D01*
X169979636Y-93369819D02*
X169979636Y-92369819D01*
X166836779Y-91369819D02*
X166836779Y-90369819D01*
X166836779Y-90369819D02*
X167170112Y-91084104D01*
X167170112Y-91084104D02*
X167503445Y-90369819D01*
X167503445Y-90369819D02*
X167503445Y-91369819D01*
X167979636Y-91369819D02*
X167979636Y-90369819D01*
X168408207Y-91322200D02*
X168551064Y-91369819D01*
X168551064Y-91369819D02*
X168789159Y-91369819D01*
X168789159Y-91369819D02*
X168884397Y-91322200D01*
X168884397Y-91322200D02*
X168932016Y-91274580D01*
X168932016Y-91274580D02*
X168979635Y-91179342D01*
X168979635Y-91179342D02*
X168979635Y-91084104D01*
X168979635Y-91084104D02*
X168932016Y-90988866D01*
X168932016Y-90988866D02*
X168884397Y-90941247D01*
X168884397Y-90941247D02*
X168789159Y-90893628D01*
X168789159Y-90893628D02*
X168598683Y-90846009D01*
X168598683Y-90846009D02*
X168503445Y-90798390D01*
X168503445Y-90798390D02*
X168455826Y-90750771D01*
X168455826Y-90750771D02*
X168408207Y-90655533D01*
X168408207Y-90655533D02*
X168408207Y-90560295D01*
X168408207Y-90560295D02*
X168455826Y-90465057D01*
X168455826Y-90465057D02*
X168503445Y-90417438D01*
X168503445Y-90417438D02*
X168598683Y-90369819D01*
X168598683Y-90369819D02*
X168836778Y-90369819D01*
X168836778Y-90369819D02*
X168979635Y-90417438D01*
X169598683Y-90369819D02*
X169789159Y-90369819D01*
X169789159Y-90369819D02*
X169884397Y-90417438D01*
X169884397Y-90417438D02*
X169979635Y-90512676D01*
X169979635Y-90512676D02*
X170027254Y-90703152D01*
X170027254Y-90703152D02*
X170027254Y-91036485D01*
X170027254Y-91036485D02*
X169979635Y-91226961D01*
X169979635Y-91226961D02*
X169884397Y-91322200D01*
X169884397Y-91322200D02*
X169789159Y-91369819D01*
X169789159Y-91369819D02*
X169598683Y-91369819D01*
X169598683Y-91369819D02*
X169503445Y-91322200D01*
X169503445Y-91322200D02*
X169408207Y-91226961D01*
X169408207Y-91226961D02*
X169360588Y-91036485D01*
X169360588Y-91036485D02*
X169360588Y-90703152D01*
X169360588Y-90703152D02*
X169408207Y-90512676D01*
X169408207Y-90512676D02*
X169503445Y-90417438D01*
X169503445Y-90417438D02*
X169598683Y-90369819D01*
X167908207Y-89274580D02*
X167860588Y-89322200D01*
X167860588Y-89322200D02*
X167717731Y-89369819D01*
X167717731Y-89369819D02*
X167622493Y-89369819D01*
X167622493Y-89369819D02*
X167479636Y-89322200D01*
X167479636Y-89322200D02*
X167384398Y-89226961D01*
X167384398Y-89226961D02*
X167336779Y-89131723D01*
X167336779Y-89131723D02*
X167289160Y-88941247D01*
X167289160Y-88941247D02*
X167289160Y-88798390D01*
X167289160Y-88798390D02*
X167336779Y-88607914D01*
X167336779Y-88607914D02*
X167384398Y-88512676D01*
X167384398Y-88512676D02*
X167479636Y-88417438D01*
X167479636Y-88417438D02*
X167622493Y-88369819D01*
X167622493Y-88369819D02*
X167717731Y-88369819D01*
X167717731Y-88369819D02*
X167860588Y-88417438D01*
X167860588Y-88417438D02*
X167908207Y-88465057D01*
X168812969Y-89369819D02*
X168336779Y-89369819D01*
X168336779Y-89369819D02*
X168336779Y-88369819D01*
X169146303Y-89369819D02*
X169146303Y-88369819D01*
X169717731Y-89369819D02*
X169289160Y-88798390D01*
X169717731Y-88369819D02*
X169146303Y-88941247D01*
X167860588Y-86417438D02*
X167765350Y-86369819D01*
X167765350Y-86369819D02*
X167622493Y-86369819D01*
X167622493Y-86369819D02*
X167479636Y-86417438D01*
X167479636Y-86417438D02*
X167384398Y-86512676D01*
X167384398Y-86512676D02*
X167336779Y-86607914D01*
X167336779Y-86607914D02*
X167289160Y-86798390D01*
X167289160Y-86798390D02*
X167289160Y-86941247D01*
X167289160Y-86941247D02*
X167336779Y-87131723D01*
X167336779Y-87131723D02*
X167384398Y-87226961D01*
X167384398Y-87226961D02*
X167479636Y-87322200D01*
X167479636Y-87322200D02*
X167622493Y-87369819D01*
X167622493Y-87369819D02*
X167717731Y-87369819D01*
X167717731Y-87369819D02*
X167860588Y-87322200D01*
X167860588Y-87322200D02*
X167908207Y-87274580D01*
X167908207Y-87274580D02*
X167908207Y-86941247D01*
X167908207Y-86941247D02*
X167717731Y-86941247D01*
X168336779Y-87369819D02*
X168336779Y-86369819D01*
X168336779Y-86369819D02*
X168908207Y-87369819D01*
X168908207Y-87369819D02*
X168908207Y-86369819D01*
X169384398Y-87369819D02*
X169384398Y-86369819D01*
X169384398Y-86369819D02*
X169622493Y-86369819D01*
X169622493Y-86369819D02*
X169765350Y-86417438D01*
X169765350Y-86417438D02*
X169860588Y-86512676D01*
X169860588Y-86512676D02*
X169908207Y-86607914D01*
X169908207Y-86607914D02*
X169955826Y-86798390D01*
X169955826Y-86798390D02*
X169955826Y-86941247D01*
X169955826Y-86941247D02*
X169908207Y-87131723D01*
X169908207Y-87131723D02*
X169860588Y-87226961D01*
X169860588Y-87226961D02*
X169765350Y-87322200D01*
X169765350Y-87322200D02*
X169622493Y-87369819D01*
X169622493Y-87369819D02*
X169384398Y-87369819D01*
X167241541Y-84369819D02*
X167860588Y-84369819D01*
X167860588Y-84369819D02*
X167527255Y-84750771D01*
X167527255Y-84750771D02*
X167670112Y-84750771D01*
X167670112Y-84750771D02*
X167765350Y-84798390D01*
X167765350Y-84798390D02*
X167812969Y-84846009D01*
X167812969Y-84846009D02*
X167860588Y-84941247D01*
X167860588Y-84941247D02*
X167860588Y-85179342D01*
X167860588Y-85179342D02*
X167812969Y-85274580D01*
X167812969Y-85274580D02*
X167765350Y-85322200D01*
X167765350Y-85322200D02*
X167670112Y-85369819D01*
X167670112Y-85369819D02*
X167384398Y-85369819D01*
X167384398Y-85369819D02*
X167289160Y-85322200D01*
X167289160Y-85322200D02*
X167241541Y-85274580D01*
X168146303Y-84369819D02*
X168479636Y-85369819D01*
X168479636Y-85369819D02*
X168812969Y-84369819D01*
X169051065Y-84369819D02*
X169670112Y-84369819D01*
X169670112Y-84369819D02*
X169336779Y-84750771D01*
X169336779Y-84750771D02*
X169479636Y-84750771D01*
X169479636Y-84750771D02*
X169574874Y-84798390D01*
X169574874Y-84798390D02*
X169622493Y-84846009D01*
X169622493Y-84846009D02*
X169670112Y-84941247D01*
X169670112Y-84941247D02*
X169670112Y-85179342D01*
X169670112Y-85179342D02*
X169622493Y-85274580D01*
X169622493Y-85274580D02*
X169574874Y-85322200D01*
X169574874Y-85322200D02*
X169479636Y-85369819D01*
X169479636Y-85369819D02*
X169193922Y-85369819D01*
X169193922Y-85369819D02*
X169098684Y-85322200D01*
X169098684Y-85322200D02*
X169051065Y-85274580D01*
D11*
X155554510Y-169800828D02*
X155554510Y-168300828D01*
X155554510Y-168300828D02*
X156054510Y-169372257D01*
X156054510Y-169372257D02*
X156554510Y-168300828D01*
X156554510Y-168300828D02*
X156554510Y-169800828D01*
X157268796Y-168300828D02*
X157268796Y-169515114D01*
X157268796Y-169515114D02*
X157340225Y-169657971D01*
X157340225Y-169657971D02*
X157411654Y-169729400D01*
X157411654Y-169729400D02*
X157554511Y-169800828D01*
X157554511Y-169800828D02*
X157840225Y-169800828D01*
X157840225Y-169800828D02*
X157983082Y-169729400D01*
X157983082Y-169729400D02*
X158054511Y-169657971D01*
X158054511Y-169657971D02*
X158125939Y-169515114D01*
X158125939Y-169515114D02*
X158125939Y-168300828D01*
X157411654Y-167800828D02*
X157483082Y-167872257D01*
X157483082Y-167872257D02*
X157411654Y-167943685D01*
X157411654Y-167943685D02*
X157340225Y-167872257D01*
X157340225Y-167872257D02*
X157411654Y-167800828D01*
X157411654Y-167800828D02*
X157411654Y-167943685D01*
X157983082Y-167800828D02*
X158054511Y-167872257D01*
X158054511Y-167872257D02*
X157983082Y-167943685D01*
X157983082Y-167943685D02*
X157911654Y-167872257D01*
X157911654Y-167872257D02*
X157983082Y-167800828D01*
X157983082Y-167800828D02*
X157983082Y-167943685D01*
X158840225Y-169800828D02*
X158840225Y-168300828D01*
X158840225Y-168300828D02*
X159697368Y-169800828D01*
X159697368Y-169800828D02*
X159697368Y-168300828D01*
X160411654Y-169800828D02*
X160411654Y-168300828D01*
X160411654Y-168300828D02*
X161268797Y-169800828D01*
X161268797Y-169800828D02*
X161268797Y-168300828D01*
X163125940Y-169800828D02*
X163125940Y-168300828D01*
X163125940Y-169015114D02*
X163983083Y-169015114D01*
X163983083Y-169800828D02*
X163983083Y-168300828D01*
X164483084Y-168300828D02*
X165340227Y-168300828D01*
X164911655Y-169800828D02*
X164911655Y-168300828D01*
X165697369Y-168300828D02*
X166054512Y-169800828D01*
X166054512Y-169800828D02*
X166340226Y-168729400D01*
X166340226Y-168729400D02*
X166625941Y-169800828D01*
X166625941Y-169800828D02*
X166983084Y-168300828D01*
X167554512Y-169800828D02*
X167554512Y-168300828D01*
X168411655Y-169800828D02*
X167768798Y-168943685D01*
X168411655Y-168300828D02*
X167554512Y-169157971D01*
D10*
X176354819Y-75809523D02*
X177069104Y-75809523D01*
X177069104Y-75809523D02*
X177211961Y-75857142D01*
X177211961Y-75857142D02*
X177307200Y-75952380D01*
X177307200Y-75952380D02*
X177354819Y-76095237D01*
X177354819Y-76095237D02*
X177354819Y-76190475D01*
X177354819Y-74809523D02*
X177354819Y-75380951D01*
X177354819Y-75095237D02*
X176354819Y-75095237D01*
X176354819Y-75095237D02*
X176497676Y-75190475D01*
X176497676Y-75190475D02*
X176592914Y-75285713D01*
X176592914Y-75285713D02*
X176640533Y-75380951D01*
X176354819Y-74476189D02*
X176354819Y-73857142D01*
X176354819Y-73857142D02*
X176735771Y-74190475D01*
X176735771Y-74190475D02*
X176735771Y-74047618D01*
X176735771Y-74047618D02*
X176783390Y-73952380D01*
X176783390Y-73952380D02*
X176831009Y-73904761D01*
X176831009Y-73904761D02*
X176926247Y-73857142D01*
X176926247Y-73857142D02*
X177164342Y-73857142D01*
X177164342Y-73857142D02*
X177259580Y-73904761D01*
X177259580Y-73904761D02*
X177307200Y-73952380D01*
X177307200Y-73952380D02*
X177354819Y-74047618D01*
X177354819Y-74047618D02*
X177354819Y-74333332D01*
X177354819Y-74333332D02*
X177307200Y-74428570D01*
X177307200Y-74428570D02*
X177259580Y-74476189D01*
X53213095Y-149314819D02*
X53213095Y-150124342D01*
X53213095Y-150124342D02*
X53260714Y-150219580D01*
X53260714Y-150219580D02*
X53308333Y-150267200D01*
X53308333Y-150267200D02*
X53403571Y-150314819D01*
X53403571Y-150314819D02*
X53594047Y-150314819D01*
X53594047Y-150314819D02*
X53689285Y-150267200D01*
X53689285Y-150267200D02*
X53736904Y-150219580D01*
X53736904Y-150219580D02*
X53784523Y-150124342D01*
X53784523Y-150124342D02*
X53784523Y-149314819D01*
X54213095Y-149410057D02*
X54260714Y-149362438D01*
X54260714Y-149362438D02*
X54355952Y-149314819D01*
X54355952Y-149314819D02*
X54594047Y-149314819D01*
X54594047Y-149314819D02*
X54689285Y-149362438D01*
X54689285Y-149362438D02*
X54736904Y-149410057D01*
X54736904Y-149410057D02*
X54784523Y-149505295D01*
X54784523Y-149505295D02*
X54784523Y-149600533D01*
X54784523Y-149600533D02*
X54736904Y-149743390D01*
X54736904Y-149743390D02*
X54165476Y-150314819D01*
X54165476Y-150314819D02*
X54784523Y-150314819D01*
X75684580Y-41784166D02*
X75732200Y-41831785D01*
X75732200Y-41831785D02*
X75779819Y-41974642D01*
X75779819Y-41974642D02*
X75779819Y-42069880D01*
X75779819Y-42069880D02*
X75732200Y-42212737D01*
X75732200Y-42212737D02*
X75636961Y-42307975D01*
X75636961Y-42307975D02*
X75541723Y-42355594D01*
X75541723Y-42355594D02*
X75351247Y-42403213D01*
X75351247Y-42403213D02*
X75208390Y-42403213D01*
X75208390Y-42403213D02*
X75017914Y-42355594D01*
X75017914Y-42355594D02*
X74922676Y-42307975D01*
X74922676Y-42307975D02*
X74827438Y-42212737D01*
X74827438Y-42212737D02*
X74779819Y-42069880D01*
X74779819Y-42069880D02*
X74779819Y-41974642D01*
X74779819Y-41974642D02*
X74827438Y-41831785D01*
X74827438Y-41831785D02*
X74875057Y-41784166D01*
X74875057Y-41403213D02*
X74827438Y-41355594D01*
X74827438Y-41355594D02*
X74779819Y-41260356D01*
X74779819Y-41260356D02*
X74779819Y-41022261D01*
X74779819Y-41022261D02*
X74827438Y-40927023D01*
X74827438Y-40927023D02*
X74875057Y-40879404D01*
X74875057Y-40879404D02*
X74970295Y-40831785D01*
X74970295Y-40831785D02*
X75065533Y-40831785D01*
X75065533Y-40831785D02*
X75208390Y-40879404D01*
X75208390Y-40879404D02*
X75779819Y-41450832D01*
X75779819Y-41450832D02*
X75779819Y-40831785D01*
X69814580Y-169369166D02*
X69862200Y-169416785D01*
X69862200Y-169416785D02*
X69909819Y-169559642D01*
X69909819Y-169559642D02*
X69909819Y-169654880D01*
X69909819Y-169654880D02*
X69862200Y-169797737D01*
X69862200Y-169797737D02*
X69766961Y-169892975D01*
X69766961Y-169892975D02*
X69671723Y-169940594D01*
X69671723Y-169940594D02*
X69481247Y-169988213D01*
X69481247Y-169988213D02*
X69338390Y-169988213D01*
X69338390Y-169988213D02*
X69147914Y-169940594D01*
X69147914Y-169940594D02*
X69052676Y-169892975D01*
X69052676Y-169892975D02*
X68957438Y-169797737D01*
X68957438Y-169797737D02*
X68909819Y-169654880D01*
X68909819Y-169654880D02*
X68909819Y-169559642D01*
X68909819Y-169559642D02*
X68957438Y-169416785D01*
X68957438Y-169416785D02*
X69005057Y-169369166D01*
X69909819Y-168416785D02*
X69909819Y-168988213D01*
X69909819Y-168702499D02*
X68909819Y-168702499D01*
X68909819Y-168702499D02*
X69052676Y-168797737D01*
X69052676Y-168797737D02*
X69147914Y-168892975D01*
X69147914Y-168892975D02*
X69195533Y-168988213D01*
X162368095Y-145629819D02*
X162368095Y-146439342D01*
X162368095Y-146439342D02*
X162415714Y-146534580D01*
X162415714Y-146534580D02*
X162463333Y-146582200D01*
X162463333Y-146582200D02*
X162558571Y-146629819D01*
X162558571Y-146629819D02*
X162749047Y-146629819D01*
X162749047Y-146629819D02*
X162844285Y-146582200D01*
X162844285Y-146582200D02*
X162891904Y-146534580D01*
X162891904Y-146534580D02*
X162939523Y-146439342D01*
X162939523Y-146439342D02*
X162939523Y-145629819D01*
X163844285Y-145963152D02*
X163844285Y-146629819D01*
X163606190Y-145582200D02*
X163368095Y-146296485D01*
X163368095Y-146296485D02*
X163987142Y-146296485D01*
X32956666Y-165164819D02*
X32623333Y-164688628D01*
X32385238Y-165164819D02*
X32385238Y-164164819D01*
X32385238Y-164164819D02*
X32766190Y-164164819D01*
X32766190Y-164164819D02*
X32861428Y-164212438D01*
X32861428Y-164212438D02*
X32909047Y-164260057D01*
X32909047Y-164260057D02*
X32956666Y-164355295D01*
X32956666Y-164355295D02*
X32956666Y-164498152D01*
X32956666Y-164498152D02*
X32909047Y-164593390D01*
X32909047Y-164593390D02*
X32861428Y-164641009D01*
X32861428Y-164641009D02*
X32766190Y-164688628D01*
X32766190Y-164688628D02*
X32385238Y-164688628D01*
X33385238Y-164641009D02*
X33718571Y-164641009D01*
X33861428Y-165164819D02*
X33385238Y-165164819D01*
X33385238Y-165164819D02*
X33385238Y-164164819D01*
X33385238Y-164164819D02*
X33861428Y-164164819D01*
X34623333Y-164641009D02*
X34290000Y-164641009D01*
X34290000Y-165164819D02*
X34290000Y-164164819D01*
X34290000Y-164164819D02*
X34766190Y-164164819D01*
X35290000Y-164164819D02*
X35290000Y-164402914D01*
X35051905Y-164307676D02*
X35290000Y-164402914D01*
X35290000Y-164402914D02*
X35528095Y-164307676D01*
X35147143Y-164593390D02*
X35290000Y-164402914D01*
X35290000Y-164402914D02*
X35432857Y-164593390D01*
X36051905Y-164164819D02*
X36051905Y-164402914D01*
X35813810Y-164307676D02*
X36051905Y-164402914D01*
X36051905Y-164402914D02*
X36290000Y-164307676D01*
X35909048Y-164593390D02*
X36051905Y-164402914D01*
X36051905Y-164402914D02*
X36194762Y-164593390D01*
X78565476Y-26334819D02*
X78565476Y-27049104D01*
X78565476Y-27049104D02*
X78517857Y-27191961D01*
X78517857Y-27191961D02*
X78422619Y-27287200D01*
X78422619Y-27287200D02*
X78279762Y-27334819D01*
X78279762Y-27334819D02*
X78184524Y-27334819D01*
X79565476Y-27334819D02*
X78994048Y-27334819D01*
X79279762Y-27334819D02*
X79279762Y-26334819D01*
X79279762Y-26334819D02*
X79184524Y-26477676D01*
X79184524Y-26477676D02*
X79089286Y-26572914D01*
X79089286Y-26572914D02*
X78994048Y-26620533D01*
X80517857Y-27334819D02*
X79946429Y-27334819D01*
X80232143Y-27334819D02*
X80232143Y-26334819D01*
X80232143Y-26334819D02*
X80136905Y-26477676D01*
X80136905Y-26477676D02*
X80041667Y-26572914D01*
X80041667Y-26572914D02*
X79946429Y-26620533D01*
X176344819Y-159893333D02*
X177059104Y-159893333D01*
X177059104Y-159893333D02*
X177201961Y-159940952D01*
X177201961Y-159940952D02*
X177297200Y-160036190D01*
X177297200Y-160036190D02*
X177344819Y-160179047D01*
X177344819Y-160179047D02*
X177344819Y-160274285D01*
X176344819Y-158940952D02*
X176344819Y-159417142D01*
X176344819Y-159417142D02*
X176821009Y-159464761D01*
X176821009Y-159464761D02*
X176773390Y-159417142D01*
X176773390Y-159417142D02*
X176725771Y-159321904D01*
X176725771Y-159321904D02*
X176725771Y-159083809D01*
X176725771Y-159083809D02*
X176773390Y-158988571D01*
X176773390Y-158988571D02*
X176821009Y-158940952D01*
X176821009Y-158940952D02*
X176916247Y-158893333D01*
X176916247Y-158893333D02*
X177154342Y-158893333D01*
X177154342Y-158893333D02*
X177249580Y-158940952D01*
X177249580Y-158940952D02*
X177297200Y-158988571D01*
X177297200Y-158988571D02*
X177344819Y-159083809D01*
X177344819Y-159083809D02*
X177344819Y-159321904D01*
X177344819Y-159321904D02*
X177297200Y-159417142D01*
X177297200Y-159417142D02*
X177249580Y-159464761D01*
X162356427Y-29934819D02*
X162927855Y-29934819D01*
X162642141Y-30934819D02*
X162642141Y-29934819D01*
X163261189Y-30934819D02*
X163261189Y-29934819D01*
X163261189Y-29934819D02*
X163642141Y-29934819D01*
X163642141Y-29934819D02*
X163737379Y-29982438D01*
X163737379Y-29982438D02*
X163784998Y-30030057D01*
X163784998Y-30030057D02*
X163832617Y-30125295D01*
X163832617Y-30125295D02*
X163832617Y-30268152D01*
X163832617Y-30268152D02*
X163784998Y-30363390D01*
X163784998Y-30363390D02*
X163737379Y-30411009D01*
X163737379Y-30411009D02*
X163642141Y-30458628D01*
X163642141Y-30458628D02*
X163261189Y-30458628D01*
X164213570Y-30030057D02*
X164261189Y-29982438D01*
X164261189Y-29982438D02*
X164356427Y-29934819D01*
X164356427Y-29934819D02*
X164594522Y-29934819D01*
X164594522Y-29934819D02*
X164689760Y-29982438D01*
X164689760Y-29982438D02*
X164737379Y-30030057D01*
X164737379Y-30030057D02*
X164784998Y-30125295D01*
X164784998Y-30125295D02*
X164784998Y-30220533D01*
X164784998Y-30220533D02*
X164737379Y-30363390D01*
X164737379Y-30363390D02*
X164165951Y-30934819D01*
X164165951Y-30934819D02*
X164784998Y-30934819D01*
X173180476Y-46019819D02*
X173180476Y-46734104D01*
X173180476Y-46734104D02*
X173132857Y-46876961D01*
X173132857Y-46876961D02*
X173037619Y-46972200D01*
X173037619Y-46972200D02*
X172894762Y-47019819D01*
X172894762Y-47019819D02*
X172799524Y-47019819D01*
X174180476Y-47019819D02*
X173609048Y-47019819D01*
X173894762Y-47019819D02*
X173894762Y-46019819D01*
X173894762Y-46019819D02*
X173799524Y-46162676D01*
X173799524Y-46162676D02*
X173704286Y-46257914D01*
X173704286Y-46257914D02*
X173609048Y-46305533D01*
X174799524Y-46019819D02*
X174894762Y-46019819D01*
X174894762Y-46019819D02*
X174990000Y-46067438D01*
X174990000Y-46067438D02*
X175037619Y-46115057D01*
X175037619Y-46115057D02*
X175085238Y-46210295D01*
X175085238Y-46210295D02*
X175132857Y-46400771D01*
X175132857Y-46400771D02*
X175132857Y-46638866D01*
X175132857Y-46638866D02*
X175085238Y-46829342D01*
X175085238Y-46829342D02*
X175037619Y-46924580D01*
X175037619Y-46924580D02*
X174990000Y-46972200D01*
X174990000Y-46972200D02*
X174894762Y-47019819D01*
X174894762Y-47019819D02*
X174799524Y-47019819D01*
X174799524Y-47019819D02*
X174704286Y-46972200D01*
X174704286Y-46972200D02*
X174656667Y-46924580D01*
X174656667Y-46924580D02*
X174609048Y-46829342D01*
X174609048Y-46829342D02*
X174561429Y-46638866D01*
X174561429Y-46638866D02*
X174561429Y-46400771D01*
X174561429Y-46400771D02*
X174609048Y-46210295D01*
X174609048Y-46210295D02*
X174656667Y-46115057D01*
X174656667Y-46115057D02*
X174704286Y-46067438D01*
X174704286Y-46067438D02*
X174799524Y-46019819D01*
X172642857Y-64907200D02*
X172785714Y-64954819D01*
X172785714Y-64954819D02*
X173023809Y-64954819D01*
X173023809Y-64954819D02*
X173119047Y-64907200D01*
X173119047Y-64907200D02*
X173166666Y-64859580D01*
X173166666Y-64859580D02*
X173214285Y-64764342D01*
X173214285Y-64764342D02*
X173214285Y-64669104D01*
X173214285Y-64669104D02*
X173166666Y-64573866D01*
X173166666Y-64573866D02*
X173119047Y-64526247D01*
X173119047Y-64526247D02*
X173023809Y-64478628D01*
X173023809Y-64478628D02*
X172833333Y-64431009D01*
X172833333Y-64431009D02*
X172738095Y-64383390D01*
X172738095Y-64383390D02*
X172690476Y-64335771D01*
X172690476Y-64335771D02*
X172642857Y-64240533D01*
X172642857Y-64240533D02*
X172642857Y-64145295D01*
X172642857Y-64145295D02*
X172690476Y-64050057D01*
X172690476Y-64050057D02*
X172738095Y-64002438D01*
X172738095Y-64002438D02*
X172833333Y-63954819D01*
X172833333Y-63954819D02*
X173071428Y-63954819D01*
X173071428Y-63954819D02*
X173214285Y-64002438D01*
X173547619Y-63954819D02*
X173785714Y-64954819D01*
X173785714Y-64954819D02*
X173976190Y-64240533D01*
X173976190Y-64240533D02*
X174166666Y-64954819D01*
X174166666Y-64954819D02*
X174404762Y-63954819D01*
X174785714Y-64954819D02*
X174785714Y-63954819D01*
X174785714Y-63954819D02*
X175023809Y-63954819D01*
X175023809Y-63954819D02*
X175166666Y-64002438D01*
X175166666Y-64002438D02*
X175261904Y-64097676D01*
X175261904Y-64097676D02*
X175309523Y-64192914D01*
X175309523Y-64192914D02*
X175357142Y-64383390D01*
X175357142Y-64383390D02*
X175357142Y-64526247D01*
X175357142Y-64526247D02*
X175309523Y-64716723D01*
X175309523Y-64716723D02*
X175261904Y-64811961D01*
X175261904Y-64811961D02*
X175166666Y-64907200D01*
X175166666Y-64907200D02*
X175023809Y-64954819D01*
X175023809Y-64954819D02*
X174785714Y-64954819D01*
X176344819Y-135763333D02*
X177059104Y-135763333D01*
X177059104Y-135763333D02*
X177201961Y-135810952D01*
X177201961Y-135810952D02*
X177297200Y-135906190D01*
X177297200Y-135906190D02*
X177344819Y-136049047D01*
X177344819Y-136049047D02*
X177344819Y-136144285D01*
X176344819Y-135382380D02*
X176344819Y-134763333D01*
X176344819Y-134763333D02*
X176725771Y-135096666D01*
X176725771Y-135096666D02*
X176725771Y-134953809D01*
X176725771Y-134953809D02*
X176773390Y-134858571D01*
X176773390Y-134858571D02*
X176821009Y-134810952D01*
X176821009Y-134810952D02*
X176916247Y-134763333D01*
X176916247Y-134763333D02*
X177154342Y-134763333D01*
X177154342Y-134763333D02*
X177249580Y-134810952D01*
X177249580Y-134810952D02*
X177297200Y-134858571D01*
X177297200Y-134858571D02*
X177344819Y-134953809D01*
X177344819Y-134953809D02*
X177344819Y-135239523D01*
X177344819Y-135239523D02*
X177297200Y-135334761D01*
X177297200Y-135334761D02*
X177249580Y-135382380D01*
X129841666Y-24944819D02*
X129841666Y-25659104D01*
X129841666Y-25659104D02*
X129794047Y-25801961D01*
X129794047Y-25801961D02*
X129698809Y-25897200D01*
X129698809Y-25897200D02*
X129555952Y-25944819D01*
X129555952Y-25944819D02*
X129460714Y-25944819D01*
X130460714Y-25373390D02*
X130365476Y-25325771D01*
X130365476Y-25325771D02*
X130317857Y-25278152D01*
X130317857Y-25278152D02*
X130270238Y-25182914D01*
X130270238Y-25182914D02*
X130270238Y-25135295D01*
X130270238Y-25135295D02*
X130317857Y-25040057D01*
X130317857Y-25040057D02*
X130365476Y-24992438D01*
X130365476Y-24992438D02*
X130460714Y-24944819D01*
X130460714Y-24944819D02*
X130651190Y-24944819D01*
X130651190Y-24944819D02*
X130746428Y-24992438D01*
X130746428Y-24992438D02*
X130794047Y-25040057D01*
X130794047Y-25040057D02*
X130841666Y-25135295D01*
X130841666Y-25135295D02*
X130841666Y-25182914D01*
X130841666Y-25182914D02*
X130794047Y-25278152D01*
X130794047Y-25278152D02*
X130746428Y-25325771D01*
X130746428Y-25325771D02*
X130651190Y-25373390D01*
X130651190Y-25373390D02*
X130460714Y-25373390D01*
X130460714Y-25373390D02*
X130365476Y-25421009D01*
X130365476Y-25421009D02*
X130317857Y-25468628D01*
X130317857Y-25468628D02*
X130270238Y-25563866D01*
X130270238Y-25563866D02*
X130270238Y-25754342D01*
X130270238Y-25754342D02*
X130317857Y-25849580D01*
X130317857Y-25849580D02*
X130365476Y-25897200D01*
X130365476Y-25897200D02*
X130460714Y-25944819D01*
X130460714Y-25944819D02*
X130651190Y-25944819D01*
X130651190Y-25944819D02*
X130746428Y-25897200D01*
X130746428Y-25897200D02*
X130794047Y-25849580D01*
X130794047Y-25849580D02*
X130841666Y-25754342D01*
X130841666Y-25754342D02*
X130841666Y-25563866D01*
X130841666Y-25563866D02*
X130794047Y-25468628D01*
X130794047Y-25468628D02*
X130746428Y-25421009D01*
X130746428Y-25421009D02*
X130651190Y-25373390D01*
X176344819Y-124253333D02*
X177059104Y-124253333D01*
X177059104Y-124253333D02*
X177201961Y-124300952D01*
X177201961Y-124300952D02*
X177297200Y-124396190D01*
X177297200Y-124396190D02*
X177344819Y-124539047D01*
X177344819Y-124539047D02*
X177344819Y-124634285D01*
X176344819Y-123348571D02*
X176344819Y-123539047D01*
X176344819Y-123539047D02*
X176392438Y-123634285D01*
X176392438Y-123634285D02*
X176440057Y-123681904D01*
X176440057Y-123681904D02*
X176582914Y-123777142D01*
X176582914Y-123777142D02*
X176773390Y-123824761D01*
X176773390Y-123824761D02*
X177154342Y-123824761D01*
X177154342Y-123824761D02*
X177249580Y-123777142D01*
X177249580Y-123777142D02*
X177297200Y-123729523D01*
X177297200Y-123729523D02*
X177344819Y-123634285D01*
X177344819Y-123634285D02*
X177344819Y-123443809D01*
X177344819Y-123443809D02*
X177297200Y-123348571D01*
X177297200Y-123348571D02*
X177249580Y-123300952D01*
X177249580Y-123300952D02*
X177154342Y-123253333D01*
X177154342Y-123253333D02*
X176916247Y-123253333D01*
X176916247Y-123253333D02*
X176821009Y-123300952D01*
X176821009Y-123300952D02*
X176773390Y-123348571D01*
X176773390Y-123348571D02*
X176725771Y-123443809D01*
X176725771Y-123443809D02*
X176725771Y-123634285D01*
X176725771Y-123634285D02*
X176773390Y-123729523D01*
X176773390Y-123729523D02*
X176821009Y-123777142D01*
X176821009Y-123777142D02*
X176916247Y-123824761D01*
X176344819Y-90233333D02*
X177059104Y-90233333D01*
X177059104Y-90233333D02*
X177201961Y-90280952D01*
X177201961Y-90280952D02*
X177297200Y-90376190D01*
X177297200Y-90376190D02*
X177344819Y-90519047D01*
X177344819Y-90519047D02*
X177344819Y-90614285D01*
X176440057Y-89804761D02*
X176392438Y-89757142D01*
X176392438Y-89757142D02*
X176344819Y-89661904D01*
X176344819Y-89661904D02*
X176344819Y-89423809D01*
X176344819Y-89423809D02*
X176392438Y-89328571D01*
X176392438Y-89328571D02*
X176440057Y-89280952D01*
X176440057Y-89280952D02*
X176535295Y-89233333D01*
X176535295Y-89233333D02*
X176630533Y-89233333D01*
X176630533Y-89233333D02*
X176773390Y-89280952D01*
X176773390Y-89280952D02*
X177344819Y-89852380D01*
X177344819Y-89852380D02*
X177344819Y-89233333D01*
X162433095Y-134199819D02*
X162433095Y-135009342D01*
X162433095Y-135009342D02*
X162480714Y-135104580D01*
X162480714Y-135104580D02*
X162528333Y-135152200D01*
X162528333Y-135152200D02*
X162623571Y-135199819D01*
X162623571Y-135199819D02*
X162814047Y-135199819D01*
X162814047Y-135199819D02*
X162909285Y-135152200D01*
X162909285Y-135152200D02*
X162956904Y-135104580D01*
X162956904Y-135104580D02*
X163004523Y-135009342D01*
X163004523Y-135009342D02*
X163004523Y-134199819D01*
X163385476Y-134199819D02*
X164004523Y-134199819D01*
X164004523Y-134199819D02*
X163671190Y-134580771D01*
X163671190Y-134580771D02*
X163814047Y-134580771D01*
X163814047Y-134580771D02*
X163909285Y-134628390D01*
X163909285Y-134628390D02*
X163956904Y-134676009D01*
X163956904Y-134676009D02*
X164004523Y-134771247D01*
X164004523Y-134771247D02*
X164004523Y-135009342D01*
X164004523Y-135009342D02*
X163956904Y-135104580D01*
X163956904Y-135104580D02*
X163909285Y-135152200D01*
X163909285Y-135152200D02*
X163814047Y-135199819D01*
X163814047Y-135199819D02*
X163528333Y-135199819D01*
X163528333Y-135199819D02*
X163433095Y-135152200D01*
X163433095Y-135152200D02*
X163385476Y-135104580D01*
X75128333Y-56079819D02*
X74795000Y-55603628D01*
X74556905Y-56079819D02*
X74556905Y-55079819D01*
X74556905Y-55079819D02*
X74937857Y-55079819D01*
X74937857Y-55079819D02*
X75033095Y-55127438D01*
X75033095Y-55127438D02*
X75080714Y-55175057D01*
X75080714Y-55175057D02*
X75128333Y-55270295D01*
X75128333Y-55270295D02*
X75128333Y-55413152D01*
X75128333Y-55413152D02*
X75080714Y-55508390D01*
X75080714Y-55508390D02*
X75033095Y-55556009D01*
X75033095Y-55556009D02*
X74937857Y-55603628D01*
X74937857Y-55603628D02*
X74556905Y-55603628D01*
X75509286Y-55175057D02*
X75556905Y-55127438D01*
X75556905Y-55127438D02*
X75652143Y-55079819D01*
X75652143Y-55079819D02*
X75890238Y-55079819D01*
X75890238Y-55079819D02*
X75985476Y-55127438D01*
X75985476Y-55127438D02*
X76033095Y-55175057D01*
X76033095Y-55175057D02*
X76080714Y-55270295D01*
X76080714Y-55270295D02*
X76080714Y-55365533D01*
X76080714Y-55365533D02*
X76033095Y-55508390D01*
X76033095Y-55508390D02*
X75461667Y-56079819D01*
X75461667Y-56079819D02*
X76080714Y-56079819D01*
X168283095Y-29934819D02*
X168854523Y-29934819D01*
X168568809Y-30934819D02*
X168568809Y-29934819D01*
X169187857Y-30934819D02*
X169187857Y-29934819D01*
X169187857Y-29934819D02*
X169568809Y-29934819D01*
X169568809Y-29934819D02*
X169664047Y-29982438D01*
X169664047Y-29982438D02*
X169711666Y-30030057D01*
X169711666Y-30030057D02*
X169759285Y-30125295D01*
X169759285Y-30125295D02*
X169759285Y-30268152D01*
X169759285Y-30268152D02*
X169711666Y-30363390D01*
X169711666Y-30363390D02*
X169664047Y-30411009D01*
X169664047Y-30411009D02*
X169568809Y-30458628D01*
X169568809Y-30458628D02*
X169187857Y-30458628D01*
X170711666Y-30934819D02*
X170140238Y-30934819D01*
X170425952Y-30934819D02*
X170425952Y-29934819D01*
X170425952Y-29934819D02*
X170330714Y-30077676D01*
X170330714Y-30077676D02*
X170235476Y-30172914D01*
X170235476Y-30172914D02*
X170140238Y-30220533D01*
X49728333Y-115484819D02*
X49395000Y-115008628D01*
X49156905Y-115484819D02*
X49156905Y-114484819D01*
X49156905Y-114484819D02*
X49537857Y-114484819D01*
X49537857Y-114484819D02*
X49633095Y-114532438D01*
X49633095Y-114532438D02*
X49680714Y-114580057D01*
X49680714Y-114580057D02*
X49728333Y-114675295D01*
X49728333Y-114675295D02*
X49728333Y-114818152D01*
X49728333Y-114818152D02*
X49680714Y-114913390D01*
X49680714Y-114913390D02*
X49633095Y-114961009D01*
X49633095Y-114961009D02*
X49537857Y-115008628D01*
X49537857Y-115008628D02*
X49156905Y-115008628D01*
X50585476Y-114818152D02*
X50585476Y-115484819D01*
X50347381Y-114437200D02*
X50109286Y-115151485D01*
X50109286Y-115151485D02*
X50728333Y-115151485D01*
X176344819Y-108204523D02*
X177059104Y-108204523D01*
X177059104Y-108204523D02*
X177201961Y-108252142D01*
X177201961Y-108252142D02*
X177297200Y-108347380D01*
X177297200Y-108347380D02*
X177344819Y-108490237D01*
X177344819Y-108490237D02*
X177344819Y-108585475D01*
X177344819Y-107204523D02*
X177344819Y-107775951D01*
X177344819Y-107490237D02*
X176344819Y-107490237D01*
X176344819Y-107490237D02*
X176487676Y-107585475D01*
X176487676Y-107585475D02*
X176582914Y-107680713D01*
X176582914Y-107680713D02*
X176630533Y-107775951D01*
X176440057Y-106823570D02*
X176392438Y-106775951D01*
X176392438Y-106775951D02*
X176344819Y-106680713D01*
X176344819Y-106680713D02*
X176344819Y-106442618D01*
X176344819Y-106442618D02*
X176392438Y-106347380D01*
X176392438Y-106347380D02*
X176440057Y-106299761D01*
X176440057Y-106299761D02*
X176535295Y-106252142D01*
X176535295Y-106252142D02*
X176630533Y-106252142D01*
X176630533Y-106252142D02*
X176773390Y-106299761D01*
X176773390Y-106299761D02*
X177344819Y-106871189D01*
X177344819Y-106871189D02*
X177344819Y-106252142D01*
X120451666Y-24944819D02*
X120451666Y-25659104D01*
X120451666Y-25659104D02*
X120404047Y-25801961D01*
X120404047Y-25801961D02*
X120308809Y-25897200D01*
X120308809Y-25897200D02*
X120165952Y-25944819D01*
X120165952Y-25944819D02*
X120070714Y-25944819D01*
X120975476Y-25944819D02*
X121165952Y-25944819D01*
X121165952Y-25944819D02*
X121261190Y-25897200D01*
X121261190Y-25897200D02*
X121308809Y-25849580D01*
X121308809Y-25849580D02*
X121404047Y-25706723D01*
X121404047Y-25706723D02*
X121451666Y-25516247D01*
X121451666Y-25516247D02*
X121451666Y-25135295D01*
X121451666Y-25135295D02*
X121404047Y-25040057D01*
X121404047Y-25040057D02*
X121356428Y-24992438D01*
X121356428Y-24992438D02*
X121261190Y-24944819D01*
X121261190Y-24944819D02*
X121070714Y-24944819D01*
X121070714Y-24944819D02*
X120975476Y-24992438D01*
X120975476Y-24992438D02*
X120927857Y-25040057D01*
X120927857Y-25040057D02*
X120880238Y-25135295D01*
X120880238Y-25135295D02*
X120880238Y-25373390D01*
X120880238Y-25373390D02*
X120927857Y-25468628D01*
X120927857Y-25468628D02*
X120975476Y-25516247D01*
X120975476Y-25516247D02*
X121070714Y-25563866D01*
X121070714Y-25563866D02*
X121261190Y-25563866D01*
X121261190Y-25563866D02*
X121356428Y-25516247D01*
X121356428Y-25516247D02*
X121404047Y-25468628D01*
X121404047Y-25468628D02*
X121451666Y-25373390D01*
X49728333Y-120564819D02*
X49395000Y-120088628D01*
X49156905Y-120564819D02*
X49156905Y-119564819D01*
X49156905Y-119564819D02*
X49537857Y-119564819D01*
X49537857Y-119564819D02*
X49633095Y-119612438D01*
X49633095Y-119612438D02*
X49680714Y-119660057D01*
X49680714Y-119660057D02*
X49728333Y-119755295D01*
X49728333Y-119755295D02*
X49728333Y-119898152D01*
X49728333Y-119898152D02*
X49680714Y-119993390D01*
X49680714Y-119993390D02*
X49633095Y-120041009D01*
X49633095Y-120041009D02*
X49537857Y-120088628D01*
X49537857Y-120088628D02*
X49156905Y-120088628D01*
X50061667Y-119564819D02*
X50680714Y-119564819D01*
X50680714Y-119564819D02*
X50347381Y-119945771D01*
X50347381Y-119945771D02*
X50490238Y-119945771D01*
X50490238Y-119945771D02*
X50585476Y-119993390D01*
X50585476Y-119993390D02*
X50633095Y-120041009D01*
X50633095Y-120041009D02*
X50680714Y-120136247D01*
X50680714Y-120136247D02*
X50680714Y-120374342D01*
X50680714Y-120374342D02*
X50633095Y-120469580D01*
X50633095Y-120469580D02*
X50585476Y-120517200D01*
X50585476Y-120517200D02*
X50490238Y-120564819D01*
X50490238Y-120564819D02*
X50204524Y-120564819D01*
X50204524Y-120564819D02*
X50109286Y-120517200D01*
X50109286Y-120517200D02*
X50061667Y-120469580D01*
X169109819Y-122721666D02*
X168633628Y-123054999D01*
X169109819Y-123293094D02*
X168109819Y-123293094D01*
X168109819Y-123293094D02*
X168109819Y-122912142D01*
X168109819Y-122912142D02*
X168157438Y-122816904D01*
X168157438Y-122816904D02*
X168205057Y-122769285D01*
X168205057Y-122769285D02*
X168300295Y-122721666D01*
X168300295Y-122721666D02*
X168443152Y-122721666D01*
X168443152Y-122721666D02*
X168538390Y-122769285D01*
X168538390Y-122769285D02*
X168586009Y-122816904D01*
X168586009Y-122816904D02*
X168633628Y-122912142D01*
X168633628Y-122912142D02*
X168633628Y-123293094D01*
X168109819Y-121816904D02*
X168109819Y-122293094D01*
X168109819Y-122293094D02*
X168586009Y-122340713D01*
X168586009Y-122340713D02*
X168538390Y-122293094D01*
X168538390Y-122293094D02*
X168490771Y-122197856D01*
X168490771Y-122197856D02*
X168490771Y-121959761D01*
X168490771Y-121959761D02*
X168538390Y-121864523D01*
X168538390Y-121864523D02*
X168586009Y-121816904D01*
X168586009Y-121816904D02*
X168681247Y-121769285D01*
X168681247Y-121769285D02*
X168919342Y-121769285D01*
X168919342Y-121769285D02*
X169014580Y-121816904D01*
X169014580Y-121816904D02*
X169062200Y-121864523D01*
X169062200Y-121864523D02*
X169109819Y-121959761D01*
X169109819Y-121959761D02*
X169109819Y-122197856D01*
X169109819Y-122197856D02*
X169062200Y-122293094D01*
X169062200Y-122293094D02*
X169014580Y-122340713D01*
X150503095Y-29934819D02*
X151074523Y-29934819D01*
X150788809Y-30934819D02*
X150788809Y-29934819D01*
X151407857Y-30934819D02*
X151407857Y-29934819D01*
X151407857Y-29934819D02*
X151788809Y-29934819D01*
X151788809Y-29934819D02*
X151884047Y-29982438D01*
X151884047Y-29982438D02*
X151931666Y-30030057D01*
X151931666Y-30030057D02*
X151979285Y-30125295D01*
X151979285Y-30125295D02*
X151979285Y-30268152D01*
X151979285Y-30268152D02*
X151931666Y-30363390D01*
X151931666Y-30363390D02*
X151884047Y-30411009D01*
X151884047Y-30411009D02*
X151788809Y-30458628D01*
X151788809Y-30458628D02*
X151407857Y-30458628D01*
X152836428Y-30268152D02*
X152836428Y-30934819D01*
X152598333Y-29887200D02*
X152360238Y-30601485D01*
X152360238Y-30601485D02*
X152979285Y-30601485D01*
X162433095Y-158329819D02*
X162433095Y-159139342D01*
X162433095Y-159139342D02*
X162480714Y-159234580D01*
X162480714Y-159234580D02*
X162528333Y-159282200D01*
X162528333Y-159282200D02*
X162623571Y-159329819D01*
X162623571Y-159329819D02*
X162814047Y-159329819D01*
X162814047Y-159329819D02*
X162909285Y-159282200D01*
X162909285Y-159282200D02*
X162956904Y-159234580D01*
X162956904Y-159234580D02*
X163004523Y-159139342D01*
X163004523Y-159139342D02*
X163004523Y-158329819D01*
X163956904Y-158329819D02*
X163480714Y-158329819D01*
X163480714Y-158329819D02*
X163433095Y-158806009D01*
X163433095Y-158806009D02*
X163480714Y-158758390D01*
X163480714Y-158758390D02*
X163575952Y-158710771D01*
X163575952Y-158710771D02*
X163814047Y-158710771D01*
X163814047Y-158710771D02*
X163909285Y-158758390D01*
X163909285Y-158758390D02*
X163956904Y-158806009D01*
X163956904Y-158806009D02*
X164004523Y-158901247D01*
X164004523Y-158901247D02*
X164004523Y-159139342D01*
X164004523Y-159139342D02*
X163956904Y-159234580D01*
X163956904Y-159234580D02*
X163909285Y-159282200D01*
X163909285Y-159282200D02*
X163814047Y-159329819D01*
X163814047Y-159329819D02*
X163575952Y-159329819D01*
X163575952Y-159329819D02*
X163480714Y-159282200D01*
X163480714Y-159282200D02*
X163433095Y-159234580D01*
X75128333Y-51224819D02*
X74795000Y-50748628D01*
X74556905Y-51224819D02*
X74556905Y-50224819D01*
X74556905Y-50224819D02*
X74937857Y-50224819D01*
X74937857Y-50224819D02*
X75033095Y-50272438D01*
X75033095Y-50272438D02*
X75080714Y-50320057D01*
X75080714Y-50320057D02*
X75128333Y-50415295D01*
X75128333Y-50415295D02*
X75128333Y-50558152D01*
X75128333Y-50558152D02*
X75080714Y-50653390D01*
X75080714Y-50653390D02*
X75033095Y-50701009D01*
X75033095Y-50701009D02*
X74937857Y-50748628D01*
X74937857Y-50748628D02*
X74556905Y-50748628D01*
X76080714Y-51224819D02*
X75509286Y-51224819D01*
X75795000Y-51224819D02*
X75795000Y-50224819D01*
X75795000Y-50224819D02*
X75699762Y-50367676D01*
X75699762Y-50367676D02*
X75604524Y-50462914D01*
X75604524Y-50462914D02*
X75509286Y-50510533D01*
X111061666Y-24944819D02*
X111061666Y-25659104D01*
X111061666Y-25659104D02*
X111014047Y-25801961D01*
X111014047Y-25801961D02*
X110918809Y-25897200D01*
X110918809Y-25897200D02*
X110775952Y-25944819D01*
X110775952Y-25944819D02*
X110680714Y-25944819D01*
X111442619Y-24944819D02*
X112109285Y-24944819D01*
X112109285Y-24944819D02*
X111680714Y-25944819D01*
X156429761Y-29934819D02*
X157001189Y-29934819D01*
X156715475Y-30934819D02*
X156715475Y-29934819D01*
X157334523Y-30934819D02*
X157334523Y-29934819D01*
X157334523Y-29934819D02*
X157715475Y-29934819D01*
X157715475Y-29934819D02*
X157810713Y-29982438D01*
X157810713Y-29982438D02*
X157858332Y-30030057D01*
X157858332Y-30030057D02*
X157905951Y-30125295D01*
X157905951Y-30125295D02*
X157905951Y-30268152D01*
X157905951Y-30268152D02*
X157858332Y-30363390D01*
X157858332Y-30363390D02*
X157810713Y-30411009D01*
X157810713Y-30411009D02*
X157715475Y-30458628D01*
X157715475Y-30458628D02*
X157334523Y-30458628D01*
X158239285Y-29934819D02*
X158858332Y-29934819D01*
X158858332Y-29934819D02*
X158524999Y-30315771D01*
X158524999Y-30315771D02*
X158667856Y-30315771D01*
X158667856Y-30315771D02*
X158763094Y-30363390D01*
X158763094Y-30363390D02*
X158810713Y-30411009D01*
X158810713Y-30411009D02*
X158858332Y-30506247D01*
X158858332Y-30506247D02*
X158858332Y-30744342D01*
X158858332Y-30744342D02*
X158810713Y-30839580D01*
X158810713Y-30839580D02*
X158763094Y-30887200D01*
X158763094Y-30887200D02*
X158667856Y-30934819D01*
X158667856Y-30934819D02*
X158382142Y-30934819D01*
X158382142Y-30934819D02*
X158286904Y-30887200D01*
X158286904Y-30887200D02*
X158239285Y-30839580D01*
X69424819Y-60023333D02*
X70139104Y-60023333D01*
X70139104Y-60023333D02*
X70281961Y-60070952D01*
X70281961Y-60070952D02*
X70377200Y-60166190D01*
X70377200Y-60166190D02*
X70424819Y-60309047D01*
X70424819Y-60309047D02*
X70424819Y-60404285D01*
X70424819Y-59023333D02*
X70424819Y-59594761D01*
X70424819Y-59309047D02*
X69424819Y-59309047D01*
X69424819Y-59309047D02*
X69567676Y-59404285D01*
X69567676Y-59404285D02*
X69662914Y-59499523D01*
X69662914Y-59499523D02*
X69710533Y-59594761D01*
X86738333Y-36435866D02*
X86738333Y-37569200D01*
X86738333Y-37569200D02*
X86805000Y-37702533D01*
X86805000Y-37702533D02*
X86871666Y-37769200D01*
X86871666Y-37769200D02*
X87005000Y-37835866D01*
X87005000Y-37835866D02*
X87271666Y-37835866D01*
X87271666Y-37835866D02*
X87405000Y-37769200D01*
X87405000Y-37769200D02*
X87471666Y-37702533D01*
X87471666Y-37702533D02*
X87538333Y-37569200D01*
X87538333Y-37569200D02*
X87538333Y-36435866D01*
X88938333Y-37835866D02*
X88138333Y-37835866D01*
X88538333Y-37835866D02*
X88538333Y-36435866D01*
X88538333Y-36435866D02*
X88405000Y-36635866D01*
X88405000Y-36635866D02*
X88271667Y-36769200D01*
X88271667Y-36769200D02*
X88138333Y-36835866D01*
X176344819Y-147193333D02*
X177059104Y-147193333D01*
X177059104Y-147193333D02*
X177201961Y-147240952D01*
X177201961Y-147240952D02*
X177297200Y-147336190D01*
X177297200Y-147336190D02*
X177344819Y-147479047D01*
X177344819Y-147479047D02*
X177344819Y-147574285D01*
X176678152Y-146288571D02*
X177344819Y-146288571D01*
X176297200Y-146526666D02*
X177011485Y-146764761D01*
X177011485Y-146764761D02*
X177011485Y-146145714D01*
D12*
X175200000Y-77500000D02*
X175810000Y-77500000D01*
X172200000Y-75100000D02*
X171700000Y-75100000D01*
X175810000Y-72500000D02*
X175200000Y-72500000D01*
X176110000Y-69640000D02*
X174860000Y-69640000D01*
X171700000Y-70550000D02*
X171700000Y-79450000D01*
X176010000Y-71700000D02*
X176010000Y-71400000D01*
X173200000Y-80060000D02*
X173200000Y-79450000D01*
X171700000Y-74900000D02*
X172200000Y-74900000D01*
X171700000Y-75000000D02*
X172200000Y-75000000D01*
X172200000Y-76900000D02*
X172200000Y-77100000D01*
X176110000Y-70890000D02*
X176110000Y-69640000D01*
X173200000Y-69940000D02*
X173200000Y-70550000D01*
X175810000Y-80060000D02*
X175810000Y-69940000D01*
X175810000Y-69940000D02*
X171090000Y-69940000D01*
X175200000Y-70550000D02*
X171700000Y-70550000D01*
X172200000Y-74900000D02*
X172200000Y-75100000D01*
X172200000Y-73100000D02*
X171700000Y-73100000D01*
X176010000Y-71400000D02*
X175810000Y-71400000D01*
X171090000Y-69940000D02*
X171090000Y-80060000D01*
X174500000Y-69940000D02*
X174500000Y-70550000D01*
X175910000Y-71700000D02*
X175910000Y-71400000D01*
X171700000Y-76900000D02*
X172200000Y-76900000D01*
X172200000Y-77100000D02*
X171700000Y-77100000D01*
X171700000Y-73000000D02*
X172200000Y-73000000D01*
X175200000Y-72500000D02*
X175200000Y-70550000D01*
X171700000Y-79450000D02*
X175200000Y-79450000D01*
X171700000Y-72900000D02*
X172200000Y-72900000D01*
X175200000Y-79450000D02*
X175200000Y-77500000D01*
X171090000Y-80060000D02*
X175810000Y-80060000D01*
X171700000Y-77000000D02*
X172200000Y-77000000D01*
X174500000Y-80060000D02*
X174500000Y-79450000D01*
X172200000Y-72900000D02*
X172200000Y-73100000D01*
X175810000Y-71700000D02*
X176010000Y-71700000D01*
D13*
X67925000Y-172415000D02*
X67925000Y-124215000D01*
X67925000Y-124215000D02*
X58045000Y-124215000D01*
X58045000Y-124215000D02*
X58045000Y-123315000D01*
X58045000Y-123315000D02*
X49915000Y-123315000D01*
X49915000Y-124215000D02*
X40025000Y-124215000D01*
X49915000Y-123315000D02*
X49915000Y-124215000D01*
X44975000Y-172415000D02*
X67925000Y-172415000D01*
X40025000Y-172415000D02*
X44975000Y-172415000D01*
X40025000Y-124215000D02*
X40025000Y-172415000D01*
D14*
X68645000Y-171285000D02*
G75*
G03*
X68445000Y-171285000I-100000J0D01*
G01*
X68445000Y-171285000D02*
G75*
G03*
X68645000Y-171285000I100000J0D01*
G01*
D12*
X74385000Y-40906248D02*
X74385000Y-42328752D01*
X71665000Y-40906248D02*
X71665000Y-42328752D01*
X70395000Y-169913752D02*
X70395000Y-168491248D01*
X73115000Y-169913752D02*
X73115000Y-168491248D01*
X163130000Y-147015000D02*
X159680000Y-147015000D01*
X163130000Y-147015000D02*
X165080000Y-147015000D01*
X163130000Y-152135000D02*
X161180000Y-152135000D01*
X163130000Y-152135000D02*
X165080000Y-152135000D01*
X78045000Y-27880000D02*
X79375000Y-27880000D01*
X78045000Y-29210000D02*
X78045000Y-27880000D01*
X78045000Y-30480000D02*
X78045000Y-35620000D01*
X78045000Y-30480000D02*
X80705000Y-30480000D01*
X78045000Y-35620000D02*
X80705000Y-35620000D01*
X80705000Y-30480000D02*
X80705000Y-35620000D01*
X176100000Y-154200000D02*
X174850000Y-154200000D01*
X175800000Y-154500000D02*
X171080000Y-154500000D01*
X174490000Y-154500000D02*
X174490000Y-155110000D01*
X173190000Y-154500000D02*
X173190000Y-155110000D01*
X171080000Y-154500000D02*
X171080000Y-164620000D01*
X175190000Y-155110000D02*
X171690000Y-155110000D01*
X171690000Y-155110000D02*
X171690000Y-164010000D01*
X176100000Y-155450000D02*
X176100000Y-154200000D01*
X176000000Y-155960000D02*
X175800000Y-155960000D01*
X176000000Y-156260000D02*
X176000000Y-155960000D01*
X175900000Y-156260000D02*
X175900000Y-155960000D01*
X175800000Y-156260000D02*
X176000000Y-156260000D01*
X175800000Y-157060000D02*
X175190000Y-157060000D01*
X175190000Y-157060000D02*
X175190000Y-155110000D01*
X172190000Y-157460000D02*
X172190000Y-157660000D01*
X171690000Y-157460000D02*
X172190000Y-157460000D01*
X171690000Y-157560000D02*
X172190000Y-157560000D01*
X172190000Y-157660000D02*
X171690000Y-157660000D01*
X172190000Y-159460000D02*
X172190000Y-159660000D01*
X171690000Y-159460000D02*
X172190000Y-159460000D01*
X171690000Y-159560000D02*
X172190000Y-159560000D01*
X172190000Y-159660000D02*
X171690000Y-159660000D01*
X172190000Y-161460000D02*
X172190000Y-161660000D01*
X171690000Y-161460000D02*
X172190000Y-161460000D01*
X171690000Y-161560000D02*
X172190000Y-161560000D01*
X172190000Y-161660000D02*
X171690000Y-161660000D01*
X175190000Y-162060000D02*
X175800000Y-162060000D01*
X175190000Y-164010000D02*
X175190000Y-162060000D01*
X171690000Y-164010000D02*
X175190000Y-164010000D01*
X175800000Y-164620000D02*
X175800000Y-154500000D01*
X174490000Y-164620000D02*
X174490000Y-164010000D01*
X173190000Y-164620000D02*
X173190000Y-164010000D01*
X171080000Y-164620000D02*
X175800000Y-164620000D01*
X165068332Y-29390000D02*
X162168332Y-29390000D01*
X165068332Y-26490000D02*
X165068332Y-29390000D01*
X162168332Y-29390000D02*
X162168332Y-26490000D01*
X162168332Y-26490000D02*
X165068332Y-26490000D01*
X172660000Y-47565000D02*
X173990000Y-47565000D01*
X172660000Y-48895000D02*
X172660000Y-47565000D01*
X172660000Y-50165000D02*
X172660000Y-62925000D01*
X172660000Y-50165000D02*
X175320000Y-50165000D01*
X172660000Y-62925000D02*
X175320000Y-62925000D01*
X175320000Y-50165000D02*
X175320000Y-62925000D01*
X176100000Y-130070000D02*
X174850000Y-130070000D01*
X175800000Y-130370000D02*
X171080000Y-130370000D01*
X174490000Y-130370000D02*
X174490000Y-130980000D01*
X173190000Y-130370000D02*
X173190000Y-130980000D01*
X171080000Y-130370000D02*
X171080000Y-140490000D01*
X175190000Y-130980000D02*
X171690000Y-130980000D01*
X171690000Y-130980000D02*
X171690000Y-139880000D01*
X176100000Y-131320000D02*
X176100000Y-130070000D01*
X176000000Y-131830000D02*
X175800000Y-131830000D01*
X176000000Y-132130000D02*
X176000000Y-131830000D01*
X175900000Y-132130000D02*
X175900000Y-131830000D01*
X175800000Y-132130000D02*
X176000000Y-132130000D01*
X175800000Y-132930000D02*
X175190000Y-132930000D01*
X175190000Y-132930000D02*
X175190000Y-130980000D01*
X172190000Y-133330000D02*
X172190000Y-133530000D01*
X171690000Y-133330000D02*
X172190000Y-133330000D01*
X171690000Y-133430000D02*
X172190000Y-133430000D01*
X172190000Y-133530000D02*
X171690000Y-133530000D01*
X172190000Y-135330000D02*
X172190000Y-135530000D01*
X171690000Y-135330000D02*
X172190000Y-135330000D01*
X171690000Y-135430000D02*
X172190000Y-135430000D01*
X172190000Y-135530000D02*
X171690000Y-135530000D01*
X172190000Y-137330000D02*
X172190000Y-137530000D01*
X171690000Y-137330000D02*
X172190000Y-137330000D01*
X171690000Y-137430000D02*
X172190000Y-137430000D01*
X172190000Y-137530000D02*
X171690000Y-137530000D01*
X175190000Y-137930000D02*
X175800000Y-137930000D01*
X175190000Y-139880000D02*
X175190000Y-137930000D01*
X171690000Y-139880000D02*
X175190000Y-139880000D01*
X175800000Y-140490000D02*
X175800000Y-130370000D01*
X174490000Y-140490000D02*
X174490000Y-139880000D01*
X173190000Y-140490000D02*
X173190000Y-139880000D01*
X171080000Y-140490000D02*
X175800000Y-140490000D01*
X126815000Y-26280000D02*
X126815000Y-27530000D01*
X127115000Y-26580000D02*
X127115000Y-31300000D01*
X127115000Y-27890000D02*
X127725000Y-27890000D01*
X127115000Y-29190000D02*
X127725000Y-29190000D01*
X127115000Y-31300000D02*
X133235000Y-31300000D01*
X127725000Y-27190000D02*
X127725000Y-30690000D01*
X127725000Y-30690000D02*
X132625000Y-30690000D01*
X128065000Y-26280000D02*
X126815000Y-26280000D01*
X128575000Y-26380000D02*
X128575000Y-26580000D01*
X128875000Y-26380000D02*
X128575000Y-26380000D01*
X128875000Y-26480000D02*
X128575000Y-26480000D01*
X128875000Y-26580000D02*
X128875000Y-26380000D01*
X129675000Y-26580000D02*
X129675000Y-27190000D01*
X129675000Y-27190000D02*
X127725000Y-27190000D01*
X130075000Y-30190000D02*
X130275000Y-30190000D01*
X130075000Y-30690000D02*
X130075000Y-30190000D01*
X130175000Y-30690000D02*
X130175000Y-30190000D01*
X130275000Y-30190000D02*
X130275000Y-30690000D01*
X130675000Y-27190000D02*
X130675000Y-26580000D01*
X132625000Y-27190000D02*
X130675000Y-27190000D01*
X132625000Y-30690000D02*
X132625000Y-27190000D01*
X133235000Y-26580000D02*
X127115000Y-26580000D01*
X133235000Y-27890000D02*
X132625000Y-27890000D01*
X133235000Y-29190000D02*
X132625000Y-29190000D01*
X133235000Y-31300000D02*
X133235000Y-26580000D01*
X176100000Y-119560000D02*
X174850000Y-119560000D01*
X175800000Y-119860000D02*
X171080000Y-119860000D01*
X174490000Y-119860000D02*
X174490000Y-120470000D01*
X173190000Y-119860000D02*
X173190000Y-120470000D01*
X171080000Y-119860000D02*
X171080000Y-127980000D01*
X175190000Y-120470000D02*
X171690000Y-120470000D01*
X171690000Y-120470000D02*
X171690000Y-127370000D01*
X176100000Y-120810000D02*
X176100000Y-119560000D01*
X176000000Y-121320000D02*
X175800000Y-121320000D01*
X176000000Y-121620000D02*
X176000000Y-121320000D01*
X175900000Y-121620000D02*
X175900000Y-121320000D01*
X175800000Y-121620000D02*
X176000000Y-121620000D01*
X175800000Y-122420000D02*
X175190000Y-122420000D01*
X175190000Y-122420000D02*
X175190000Y-120470000D01*
X172190000Y-122820000D02*
X172190000Y-123020000D01*
X171690000Y-122820000D02*
X172190000Y-122820000D01*
X171690000Y-122920000D02*
X172190000Y-122920000D01*
X172190000Y-123020000D02*
X171690000Y-123020000D01*
X172190000Y-124820000D02*
X172190000Y-125020000D01*
X171690000Y-124820000D02*
X172190000Y-124820000D01*
X171690000Y-124920000D02*
X172190000Y-124920000D01*
X172190000Y-125020000D02*
X171690000Y-125020000D01*
X175190000Y-125420000D02*
X175800000Y-125420000D01*
X175190000Y-127370000D02*
X175190000Y-125420000D01*
X171690000Y-127370000D02*
X175190000Y-127370000D01*
X175800000Y-127980000D02*
X175800000Y-119860000D01*
X174490000Y-127980000D02*
X174490000Y-127370000D01*
X173190000Y-127980000D02*
X173190000Y-127370000D01*
X171080000Y-127980000D02*
X175800000Y-127980000D01*
X176100000Y-82540000D02*
X174850000Y-82540000D01*
X175800000Y-82840000D02*
X171080000Y-82840000D01*
X174490000Y-82840000D02*
X174490000Y-83450000D01*
X173190000Y-82840000D02*
X173190000Y-83450000D01*
X171080000Y-82840000D02*
X171080000Y-96960000D01*
X175190000Y-83450000D02*
X171690000Y-83450000D01*
X171690000Y-83450000D02*
X171690000Y-96350000D01*
X176100000Y-83790000D02*
X176100000Y-82540000D01*
X176000000Y-84300000D02*
X175800000Y-84300000D01*
X176000000Y-84600000D02*
X176000000Y-84300000D01*
X175900000Y-84600000D02*
X175900000Y-84300000D01*
X175800000Y-84600000D02*
X176000000Y-84600000D01*
X175800000Y-85400000D02*
X175190000Y-85400000D01*
X175190000Y-85400000D02*
X175190000Y-83450000D01*
X172190000Y-85800000D02*
X172190000Y-86000000D01*
X171690000Y-85800000D02*
X172190000Y-85800000D01*
X171690000Y-85900000D02*
X172190000Y-85900000D01*
X172190000Y-86000000D02*
X171690000Y-86000000D01*
X172190000Y-87800000D02*
X172190000Y-88000000D01*
X171690000Y-87800000D02*
X172190000Y-87800000D01*
X171690000Y-87900000D02*
X172190000Y-87900000D01*
X172190000Y-88000000D02*
X171690000Y-88000000D01*
X172190000Y-89800000D02*
X172190000Y-90000000D01*
X171690000Y-89800000D02*
X172190000Y-89800000D01*
X171690000Y-89900000D02*
X172190000Y-89900000D01*
X172190000Y-90000000D02*
X171690000Y-90000000D01*
X172190000Y-91800000D02*
X172190000Y-92000000D01*
X171690000Y-91800000D02*
X172190000Y-91800000D01*
X171690000Y-91900000D02*
X172190000Y-91900000D01*
X172190000Y-92000000D02*
X171690000Y-92000000D01*
X172190000Y-93800000D02*
X172190000Y-94000000D01*
X171690000Y-93800000D02*
X172190000Y-93800000D01*
X171690000Y-93900000D02*
X172190000Y-93900000D01*
X172190000Y-94000000D02*
X171690000Y-94000000D01*
X175190000Y-94400000D02*
X175800000Y-94400000D01*
X175190000Y-96350000D02*
X175190000Y-94400000D01*
X171690000Y-96350000D02*
X175190000Y-96350000D01*
X175800000Y-96960000D02*
X175800000Y-82840000D01*
X174490000Y-96960000D02*
X174490000Y-96350000D01*
X173190000Y-96960000D02*
X173190000Y-96350000D01*
X171080000Y-96960000D02*
X175800000Y-96960000D01*
X163195000Y-135585000D02*
X159745000Y-135585000D01*
X163195000Y-135585000D02*
X165145000Y-135585000D01*
X163195000Y-140705000D02*
X161245000Y-140705000D01*
X163195000Y-140705000D02*
X165145000Y-140705000D01*
X75522064Y-54710000D02*
X75067936Y-54710000D01*
X75522064Y-53240000D02*
X75067936Y-53240000D01*
X170995000Y-29390000D02*
X168095000Y-29390000D01*
X170995000Y-26490000D02*
X170995000Y-29390000D01*
X168095000Y-29390000D02*
X168095000Y-26490000D01*
X168095000Y-26490000D02*
X170995000Y-26490000D01*
X50122064Y-114115000D02*
X49667936Y-114115000D01*
X50122064Y-112645000D02*
X49667936Y-112645000D01*
X176100000Y-100035000D02*
X174850000Y-100035000D01*
X175800000Y-100335000D02*
X171080000Y-100335000D01*
X174490000Y-100335000D02*
X174490000Y-100945000D01*
X173190000Y-100335000D02*
X173190000Y-100945000D01*
X171080000Y-100335000D02*
X171080000Y-114455000D01*
X175190000Y-100945000D02*
X171690000Y-100945000D01*
X171690000Y-100945000D02*
X171690000Y-113845000D01*
X176100000Y-101285000D02*
X176100000Y-100035000D01*
X176000000Y-101795000D02*
X175800000Y-101795000D01*
X176000000Y-102095000D02*
X176000000Y-101795000D01*
X175900000Y-102095000D02*
X175900000Y-101795000D01*
X175800000Y-102095000D02*
X176000000Y-102095000D01*
X175800000Y-102895000D02*
X175190000Y-102895000D01*
X175190000Y-102895000D02*
X175190000Y-100945000D01*
X172190000Y-103295000D02*
X172190000Y-103495000D01*
X171690000Y-103295000D02*
X172190000Y-103295000D01*
X171690000Y-103395000D02*
X172190000Y-103395000D01*
X172190000Y-103495000D02*
X171690000Y-103495000D01*
X172190000Y-105295000D02*
X172190000Y-105495000D01*
X171690000Y-105295000D02*
X172190000Y-105295000D01*
X171690000Y-105395000D02*
X172190000Y-105395000D01*
X172190000Y-105495000D02*
X171690000Y-105495000D01*
X172190000Y-107295000D02*
X172190000Y-107495000D01*
X171690000Y-107295000D02*
X172190000Y-107295000D01*
X171690000Y-107395000D02*
X172190000Y-107395000D01*
X172190000Y-107495000D02*
X171690000Y-107495000D01*
X172190000Y-109295000D02*
X172190000Y-109495000D01*
X171690000Y-109295000D02*
X172190000Y-109295000D01*
X171690000Y-109395000D02*
X172190000Y-109395000D01*
X172190000Y-109495000D02*
X171690000Y-109495000D01*
X172190000Y-111295000D02*
X172190000Y-111495000D01*
X171690000Y-111295000D02*
X172190000Y-111295000D01*
X171690000Y-111395000D02*
X172190000Y-111395000D01*
X172190000Y-111495000D02*
X171690000Y-111495000D01*
X175190000Y-111895000D02*
X175800000Y-111895000D01*
X175190000Y-113845000D02*
X175190000Y-111895000D01*
X171690000Y-113845000D02*
X175190000Y-113845000D01*
X175800000Y-114455000D02*
X175800000Y-100335000D01*
X174490000Y-114455000D02*
X174490000Y-113845000D01*
X173190000Y-114455000D02*
X173190000Y-113845000D01*
X171080000Y-114455000D02*
X175800000Y-114455000D01*
X117425000Y-26280000D02*
X117425000Y-27530000D01*
X117725000Y-26580000D02*
X117725000Y-31300000D01*
X117725000Y-27890000D02*
X118335000Y-27890000D01*
X117725000Y-29190000D02*
X118335000Y-29190000D01*
X117725000Y-31300000D02*
X123845000Y-31300000D01*
X118335000Y-27190000D02*
X118335000Y-30690000D01*
X118335000Y-30690000D02*
X123235000Y-30690000D01*
X118675000Y-26280000D02*
X117425000Y-26280000D01*
X119185000Y-26380000D02*
X119185000Y-26580000D01*
X119485000Y-26380000D02*
X119185000Y-26380000D01*
X119485000Y-26480000D02*
X119185000Y-26480000D01*
X119485000Y-26580000D02*
X119485000Y-26380000D01*
X120285000Y-26580000D02*
X120285000Y-27190000D01*
X120285000Y-27190000D02*
X118335000Y-27190000D01*
X120685000Y-30190000D02*
X120885000Y-30190000D01*
X120685000Y-30690000D02*
X120685000Y-30190000D01*
X120785000Y-30690000D02*
X120785000Y-30190000D01*
X120885000Y-30190000D02*
X120885000Y-30690000D01*
X121285000Y-27190000D02*
X121285000Y-26580000D01*
X123235000Y-27190000D02*
X121285000Y-27190000D01*
X123235000Y-30690000D02*
X123235000Y-27190000D01*
X123845000Y-26580000D02*
X117725000Y-26580000D01*
X123845000Y-27890000D02*
X123235000Y-27890000D01*
X123845000Y-29190000D02*
X123235000Y-29190000D01*
X123845000Y-31300000D02*
X123845000Y-26580000D01*
X50122064Y-119195000D02*
X49667936Y-119195000D01*
X50122064Y-117725000D02*
X49667936Y-117725000D01*
X167740000Y-122327936D02*
X167740000Y-122782064D01*
X166270000Y-122327936D02*
X166270000Y-122782064D01*
X153215000Y-29390000D02*
X150315000Y-29390000D01*
X153215000Y-26490000D02*
X153215000Y-29390000D01*
X150315000Y-29390000D02*
X150315000Y-26490000D01*
X150315000Y-26490000D02*
X153215000Y-26490000D01*
X163195000Y-159715000D02*
X159745000Y-159715000D01*
X163195000Y-159715000D02*
X165145000Y-159715000D01*
X163195000Y-164835000D02*
X161245000Y-164835000D01*
X163195000Y-164835000D02*
X165145000Y-164835000D01*
X75522064Y-49855000D02*
X75067936Y-49855000D01*
X75522064Y-48385000D02*
X75067936Y-48385000D01*
X108035000Y-26280000D02*
X108035000Y-27530000D01*
X108335000Y-26580000D02*
X108335000Y-31300000D01*
X108335000Y-27890000D02*
X108945000Y-27890000D01*
X108335000Y-29190000D02*
X108945000Y-29190000D01*
X108335000Y-31300000D02*
X114455000Y-31300000D01*
X108945000Y-27190000D02*
X108945000Y-30690000D01*
X108945000Y-30690000D02*
X113845000Y-30690000D01*
X109285000Y-26280000D02*
X108035000Y-26280000D01*
X109795000Y-26380000D02*
X109795000Y-26580000D01*
X110095000Y-26380000D02*
X109795000Y-26380000D01*
X110095000Y-26480000D02*
X109795000Y-26480000D01*
X110095000Y-26580000D02*
X110095000Y-26380000D01*
X110895000Y-26580000D02*
X110895000Y-27190000D01*
X110895000Y-27190000D02*
X108945000Y-27190000D01*
X111295000Y-30190000D02*
X111495000Y-30190000D01*
X111295000Y-30690000D02*
X111295000Y-30190000D01*
X111395000Y-30690000D02*
X111395000Y-30190000D01*
X111495000Y-30190000D02*
X111495000Y-30690000D01*
X111895000Y-27190000D02*
X111895000Y-26580000D01*
X113845000Y-27190000D02*
X111895000Y-27190000D01*
X113845000Y-30690000D02*
X113845000Y-27190000D01*
X114455000Y-26580000D02*
X108335000Y-26580000D01*
X114455000Y-27890000D02*
X113845000Y-27890000D01*
X114455000Y-29190000D02*
X113845000Y-29190000D01*
X114455000Y-31300000D02*
X114455000Y-26580000D01*
X159141666Y-29390000D02*
X156241666Y-29390000D01*
X159141666Y-26490000D02*
X159141666Y-29390000D01*
X156241666Y-29390000D02*
X156241666Y-26490000D01*
X156241666Y-26490000D02*
X159141666Y-26490000D01*
X38410000Y-33880000D02*
X38410000Y-30190000D01*
X38410000Y-45300000D02*
X38410000Y-33880000D01*
X38410000Y-64530000D02*
X38410000Y-45300000D01*
X38410000Y-72650000D02*
X38410000Y-64530000D01*
X38410000Y-77130000D02*
X38410000Y-72650000D01*
X38410000Y-85250000D02*
X38410000Y-77130000D01*
X38410000Y-89190000D02*
X38410000Y-85250000D01*
X44910000Y-92250000D02*
X41470000Y-92250000D01*
X62030000Y-92250000D02*
X44910000Y-92250000D01*
X62030000Y-92250000D02*
X65470000Y-92250000D01*
X62310000Y-85150000D02*
X62310000Y-36830000D01*
X62370000Y-34230000D02*
X62370000Y-35560000D01*
X63700000Y-34230000D02*
X62370000Y-34230000D01*
X64970000Y-34230000D02*
X64970000Y-36830000D01*
X64970000Y-36830000D02*
X62370000Y-36830000D01*
X65470000Y-27130000D02*
X41470000Y-27130000D01*
X67510000Y-85150000D02*
X67510000Y-34230000D01*
X67570000Y-34230000D02*
X64970000Y-34230000D01*
X67570000Y-85150000D02*
X62370000Y-85150000D01*
X68530000Y-89190000D02*
X68530000Y-30190000D01*
X41470000Y-27130000D02*
G75*
G03*
X38410000Y-30190000I-1J-3059999D01*
G01*
X38410000Y-89190000D02*
G75*
G03*
X41470000Y-92250000I3059999J-1D01*
G01*
X68530000Y-30190000D02*
G75*
G03*
X65470000Y-27130000I-3060000J0D01*
G01*
X65470000Y-92250000D02*
G75*
G03*
X68530000Y-89190000I0J3060000D01*
G01*
D13*
X83110000Y-40745000D02*
X83110000Y-63305000D01*
X83110000Y-63305000D02*
X98602800Y-63305000D01*
X83110000Y-64245000D02*
X83110000Y-170085000D01*
X83110000Y-64245000D02*
X98602800Y-64245000D01*
X85110000Y-172085000D02*
X151110000Y-172085000D01*
X102108000Y-63305000D02*
X121107200Y-63305000D01*
X102108000Y-64245000D02*
X121107200Y-64245000D01*
X125730000Y-63305000D02*
X133045200Y-63305000D01*
X125730000Y-64245000D02*
X133045200Y-64245000D01*
X137109200Y-63305000D02*
X153110000Y-63305000D01*
X137109200Y-64245000D02*
X153110000Y-64245000D01*
X151110000Y-38745000D02*
X85110000Y-38745000D01*
X153110000Y-63305000D02*
X153110000Y-40745000D01*
X153110000Y-170085000D02*
X153110000Y-64245000D01*
X85110000Y-38745000D02*
G75*
G03*
X83110000Y-40745000I-1J-1999999D01*
G01*
X83110000Y-170085000D02*
G75*
G03*
X85110000Y-172085000I1999999J-1D01*
G01*
X98602800Y-64245000D02*
G75*
G03*
X98602801Y-63305000I-7461J470000D01*
G01*
X102108000Y-63305000D02*
G75*
G03*
X102107999Y-64245000I7461J-470000D01*
G01*
X121107200Y-64245000D02*
G75*
G03*
X121107201Y-63305000I-7460J470000D01*
G01*
X125730000Y-63305000D02*
G75*
G03*
X125729999Y-64245000I7460J-470000D01*
G01*
X133045200Y-64245000D02*
G75*
G03*
X133045201Y-63305000I-7460J470000D01*
G01*
X137109200Y-63305000D02*
G75*
G03*
X137109199Y-64245000I7460J-470000D01*
G01*
X153110000Y-40745000D02*
G75*
G03*
X151110000Y-38745000I-2000000J0D01*
G01*
X151110000Y-172085000D02*
G75*
G03*
X153110000Y-170085000I0J2000000D01*
G01*
D14*
X84710000Y-70485000D02*
G75*
G03*
X84510000Y-70485000I-100000J0D01*
G01*
X84510000Y-70485000D02*
G75*
G03*
X84710000Y-70485000I100000J0D01*
G01*
X92330000Y-80645000D02*
G75*
G03*
X92130000Y-80645000I-100000J0D01*
G01*
X92130000Y-80645000D02*
G75*
G03*
X92330000Y-80645000I100000J0D01*
G01*
X92330000Y-103505000D02*
G75*
G03*
X92130000Y-103505000I-100000J0D01*
G01*
X92130000Y-103505000D02*
G75*
G03*
X92330000Y-103505000I100000J0D01*
G01*
X138050000Y-71501000D02*
G75*
G03*
X137850000Y-71501000I-100000J0D01*
G01*
X137850000Y-71501000D02*
G75*
G03*
X138050000Y-71501000I100000J0D01*
G01*
X138050000Y-98425000D02*
G75*
G03*
X137850000Y-98425000I-100000J0D01*
G01*
X137850000Y-98425000D02*
G75*
G03*
X138050000Y-98425000I100000J0D01*
G01*
X145670000Y-70510400D02*
G75*
G03*
X145470000Y-70510400I-100000J0D01*
G01*
X145470000Y-70510400D02*
G75*
G03*
X145670000Y-70510400I100000J0D01*
G01*
D12*
X176100000Y-141500000D02*
X174850000Y-141500000D01*
X175800000Y-141800000D02*
X171080000Y-141800000D01*
X174490000Y-141800000D02*
X174490000Y-142410000D01*
X173190000Y-141800000D02*
X173190000Y-142410000D01*
X171080000Y-141800000D02*
X171080000Y-151920000D01*
X175190000Y-142410000D02*
X171690000Y-142410000D01*
X171690000Y-142410000D02*
X171690000Y-151310000D01*
X176100000Y-142750000D02*
X176100000Y-141500000D01*
X176000000Y-143260000D02*
X175800000Y-143260000D01*
X176000000Y-143560000D02*
X176000000Y-143260000D01*
X175900000Y-143560000D02*
X175900000Y-143260000D01*
X175800000Y-143560000D02*
X176000000Y-143560000D01*
X175800000Y-144360000D02*
X175190000Y-144360000D01*
X175190000Y-144360000D02*
X175190000Y-142410000D01*
X172190000Y-144760000D02*
X172190000Y-144960000D01*
X171690000Y-144760000D02*
X172190000Y-144760000D01*
X171690000Y-144860000D02*
X172190000Y-144860000D01*
X172190000Y-144960000D02*
X171690000Y-144960000D01*
X172190000Y-146760000D02*
X172190000Y-146960000D01*
X171690000Y-146760000D02*
X172190000Y-146760000D01*
X171690000Y-146860000D02*
X172190000Y-146860000D01*
X172190000Y-146960000D02*
X171690000Y-146960000D01*
X172190000Y-148760000D02*
X172190000Y-148960000D01*
X171690000Y-148760000D02*
X172190000Y-148760000D01*
X171690000Y-148860000D02*
X172190000Y-148860000D01*
X172190000Y-148960000D02*
X171690000Y-148960000D01*
X175190000Y-149360000D02*
X175800000Y-149360000D01*
X175190000Y-151310000D02*
X175190000Y-149360000D01*
X171690000Y-151310000D02*
X175190000Y-151310000D01*
X175800000Y-151920000D02*
X175800000Y-141800000D01*
X174490000Y-151920000D02*
X174490000Y-151310000D01*
X173190000Y-151920000D02*
X173190000Y-151310000D01*
X171080000Y-151920000D02*
X175800000Y-151920000D01*
%LPC*%
D15*
X174000000Y-72000000D03*
D16*
X174000000Y-74000000D03*
X174000000Y-76000000D03*
X174000000Y-78000000D03*
D17*
X66675000Y-171165000D03*
D18*
X66675000Y-168625000D03*
X66675000Y-166085000D03*
X66675000Y-163545000D03*
X66675000Y-161005000D03*
X66675000Y-158465000D03*
X66675000Y-155925000D03*
X66675000Y-153385000D03*
X66675000Y-150845000D03*
X66675000Y-148305000D03*
X66675000Y-145765000D03*
X66675000Y-143225000D03*
X66675000Y-140685000D03*
X66675000Y-138145000D03*
X66675000Y-135605000D03*
X66675000Y-133065000D03*
X66675000Y-130525000D03*
X66675000Y-127985000D03*
X66675000Y-125445000D03*
X41275000Y-125445000D03*
X41275000Y-127985000D03*
X41275000Y-130525000D03*
X41275000Y-133065000D03*
X41275000Y-135605000D03*
X41275000Y-138145000D03*
X41275000Y-140685000D03*
X41275000Y-143225000D03*
X41275000Y-145765000D03*
X41275000Y-148305000D03*
X41275000Y-150845000D03*
X41275000Y-153385000D03*
X41275000Y-155925000D03*
X41275000Y-158465000D03*
X41275000Y-161005000D03*
X41275000Y-163545000D03*
X41275000Y-166085000D03*
X41275000Y-168625000D03*
X41275000Y-171165000D03*
D19*
X73025000Y-40055000D03*
X73025000Y-43180000D03*
D20*
X71755000Y-170765000D03*
X71755000Y-167640000D03*
D21*
X160655000Y-147670000D03*
X160655000Y-148940000D03*
X160655000Y-150210000D03*
X160655000Y-151480000D03*
X165605000Y-151480000D03*
X165605000Y-150210000D03*
X165605000Y-148940000D03*
X165605000Y-147670000D03*
D22*
X34290000Y-168910000D03*
D23*
X79375000Y-29210000D03*
D24*
X79375000Y-31750000D03*
X79375000Y-34290000D03*
D15*
X173990000Y-156560000D03*
D16*
X173990000Y-158560000D03*
X173990000Y-160560000D03*
X173990000Y-162560000D03*
D25*
X163618332Y-27940000D03*
D23*
X173990000Y-48895000D03*
D24*
X173990000Y-51435000D03*
X173990000Y-53975000D03*
X173990000Y-56515000D03*
X173990000Y-59055000D03*
X173990000Y-61595000D03*
D15*
X173990000Y-132430000D03*
D16*
X173990000Y-134430000D03*
X173990000Y-136430000D03*
X173990000Y-138430000D03*
D26*
X129175000Y-28390000D03*
D27*
X131175000Y-28390000D03*
D15*
X173990000Y-121920000D03*
D16*
X173990000Y-123920000D03*
X173990000Y-125920000D03*
D15*
X173990000Y-84900000D03*
D16*
X173990000Y-86900000D03*
X173990000Y-88900000D03*
X173990000Y-90900000D03*
X173990000Y-92900000D03*
X173990000Y-94900000D03*
D21*
X160720000Y-136240000D03*
X160720000Y-137510000D03*
X160720000Y-138780000D03*
X160720000Y-140050000D03*
X165670000Y-140050000D03*
X165670000Y-138780000D03*
X165670000Y-137510000D03*
X165670000Y-136240000D03*
D22*
X177165000Y-168910000D03*
D28*
X76295000Y-53975000D03*
X74295000Y-53975000D03*
D25*
X169545000Y-27940000D03*
D28*
X50895000Y-113380000D03*
X48895000Y-113380000D03*
D15*
X173990000Y-102395000D03*
D16*
X173990000Y-104395000D03*
X173990000Y-106395000D03*
X173990000Y-108395000D03*
X173990000Y-110395000D03*
X173990000Y-112395000D03*
D26*
X119785000Y-28390000D03*
D27*
X121785000Y-28390000D03*
D28*
X50895000Y-118460000D03*
X48895000Y-118460000D03*
D22*
X177165000Y-26035000D03*
D29*
X167005000Y-121555000D03*
X167005000Y-123555000D03*
D25*
X151765000Y-27940000D03*
D21*
X160720000Y-160370000D03*
X160720000Y-161640000D03*
X160720000Y-162910000D03*
X160720000Y-164180000D03*
X165670000Y-164180000D03*
X165670000Y-162910000D03*
X165670000Y-161640000D03*
X165670000Y-160370000D03*
D22*
X34290000Y-26035000D03*
D28*
X76295000Y-49120000D03*
X74295000Y-49120000D03*
D26*
X110395000Y-28390000D03*
D27*
X112395000Y-28390000D03*
D25*
X157691666Y-27940000D03*
D30*
X41970000Y-30690000D03*
X41970000Y-88690000D03*
X64970000Y-30690000D03*
X64970000Y-88690000D03*
D23*
X63700000Y-35560000D03*
D24*
X66240000Y-35560000D03*
X63700000Y-38100000D03*
X66240000Y-38100000D03*
X63700000Y-40640000D03*
X66240000Y-40640000D03*
X63700000Y-43180000D03*
X66240000Y-43180000D03*
X63700000Y-45720000D03*
X66240000Y-45720000D03*
X63700000Y-48260000D03*
X66240000Y-48260000D03*
X63700000Y-50800000D03*
X66240000Y-50800000D03*
X63700000Y-53340000D03*
X66240000Y-53340000D03*
X63700000Y-55880000D03*
X66240000Y-55880000D03*
X63700000Y-58420000D03*
X66240000Y-58420000D03*
X63700000Y-60960000D03*
X66240000Y-60960000D03*
X63700000Y-63500000D03*
X66240000Y-63500000D03*
X63700000Y-66040000D03*
X66240000Y-66040000D03*
X63700000Y-68580000D03*
X66240000Y-68580000D03*
X63700000Y-71120000D03*
X66240000Y-71120000D03*
X63700000Y-73660000D03*
X66240000Y-73660000D03*
X63700000Y-76200000D03*
X66240000Y-76200000D03*
X63700000Y-78740000D03*
X66240000Y-78740000D03*
X63700000Y-81280000D03*
X66240000Y-81280000D03*
X63700000Y-83820000D03*
X66240000Y-83820000D03*
D22*
X93980000Y-66675000D03*
X95250000Y-142875000D03*
X127000000Y-118745000D03*
X140970000Y-142875000D03*
X142240000Y-67945000D03*
D31*
X139700000Y-71501000D03*
D18*
X142240000Y-71501000D03*
X139700000Y-74041000D03*
X142240000Y-74041000D03*
X139700000Y-76581000D03*
X142240000Y-76581000D03*
X139700000Y-79121000D03*
X142240000Y-79121000D03*
X139700000Y-81661000D03*
X142240000Y-81661000D03*
X139700000Y-84201000D03*
X142240000Y-84201000D03*
X139700000Y-86741000D03*
X142240000Y-86741000D03*
X139700000Y-89281000D03*
X142240000Y-89281000D03*
X139700000Y-91821000D03*
X142240000Y-91821000D03*
X139700000Y-94361000D03*
X142240000Y-94361000D03*
D31*
X93980000Y-80645000D03*
D18*
X96520000Y-80645000D03*
X93980000Y-83185000D03*
X96520000Y-83185000D03*
X93980000Y-85725000D03*
X96520000Y-85725000D03*
X93980000Y-88265000D03*
X96520000Y-88265000D03*
X93980000Y-90805000D03*
X96520000Y-90805000D03*
X93980000Y-93345000D03*
X96520000Y-93345000D03*
X93980000Y-95885000D03*
X96520000Y-95885000D03*
X93980000Y-98425000D03*
X96520000Y-98425000D03*
D31*
X93980000Y-103505000D03*
D18*
X96520000Y-103505000D03*
X93980000Y-106045000D03*
X96520000Y-106045000D03*
X93980000Y-108585000D03*
X96520000Y-108585000D03*
X93980000Y-111125000D03*
X96520000Y-111125000D03*
X93980000Y-113665000D03*
X96520000Y-113665000D03*
X93980000Y-116205000D03*
X96520000Y-116205000D03*
X93980000Y-118745000D03*
X96520000Y-118745000D03*
X93980000Y-121285000D03*
X96520000Y-121285000D03*
X93980000Y-123825000D03*
X96520000Y-123825000D03*
X93980000Y-126365000D03*
X96520000Y-126365000D03*
X93980000Y-128905000D03*
X96520000Y-128905000D03*
X93980000Y-131445000D03*
X96520000Y-131445000D03*
X93980000Y-133985000D03*
X96520000Y-133985000D03*
X93980000Y-136525000D03*
X96520000Y-136525000D03*
X93980000Y-139065000D03*
X96520000Y-139065000D03*
D31*
X139700000Y-98425000D03*
D18*
X142240000Y-98425000D03*
X139700000Y-100965000D03*
X142240000Y-100965000D03*
X139700000Y-103505000D03*
X142240000Y-103505000D03*
X139700000Y-106045000D03*
X142240000Y-106045000D03*
X139700000Y-108585000D03*
X142240000Y-108585000D03*
X139700000Y-111125000D03*
X142240000Y-111125000D03*
X139700000Y-113665000D03*
X142240000Y-113665000D03*
X139700000Y-116205000D03*
X142240000Y-116205000D03*
X139700000Y-118745000D03*
X142240000Y-118745000D03*
X139700000Y-121285000D03*
X142240000Y-121285000D03*
X139700000Y-123825000D03*
X142240000Y-123825000D03*
X139700000Y-126365000D03*
X142240000Y-126365000D03*
X139700000Y-128905000D03*
X142240000Y-128905000D03*
X139700000Y-131445000D03*
X142240000Y-131445000D03*
X139700000Y-133985000D03*
X142240000Y-133985000D03*
X139700000Y-136525000D03*
X142240000Y-136525000D03*
X139700000Y-139065000D03*
X142240000Y-139065000D03*
D31*
X86360000Y-70485000D03*
D18*
X88900000Y-70485000D03*
X86360000Y-73025000D03*
X88900000Y-73025000D03*
X86360000Y-75565000D03*
X88900000Y-75565000D03*
X86360000Y-78105000D03*
X88900000Y-78105000D03*
X86360000Y-80645000D03*
X88900000Y-80645000D03*
X86360000Y-83185000D03*
X88900000Y-83185000D03*
X86360000Y-85725000D03*
X88900000Y-85725000D03*
X86360000Y-88265000D03*
X88900000Y-88265000D03*
X86360000Y-90805000D03*
X88900000Y-90805000D03*
X86360000Y-93345000D03*
X88900000Y-93345000D03*
X86360000Y-95885000D03*
X88900000Y-95885000D03*
X86360000Y-98425000D03*
X88900000Y-98425000D03*
X86360000Y-100965000D03*
X88900000Y-100965000D03*
X86360000Y-103505000D03*
X88900000Y-103505000D03*
X86360000Y-106045000D03*
X88900000Y-106045000D03*
X86360000Y-108585000D03*
X88900000Y-108585000D03*
X86360000Y-111125000D03*
X88900000Y-111125000D03*
X86360000Y-113665000D03*
X88900000Y-113665000D03*
X86360000Y-116205000D03*
X88900000Y-116205000D03*
X86360000Y-118745000D03*
X88900000Y-118745000D03*
X86360000Y-121285000D03*
X88900000Y-121285000D03*
X86360000Y-123825000D03*
X88900000Y-123825000D03*
X86360000Y-126365000D03*
X88900000Y-126365000D03*
X86360000Y-128905000D03*
X88900000Y-128905000D03*
X86360000Y-131445000D03*
X88900000Y-131445000D03*
X86360000Y-133985000D03*
X88900000Y-133985000D03*
X86360000Y-136525000D03*
X88900000Y-136525000D03*
X86360000Y-139065000D03*
X88900000Y-139065000D03*
X86360000Y-141605000D03*
X88900000Y-141605000D03*
X86360000Y-144145000D03*
X88900000Y-144145000D03*
X86360000Y-146685000D03*
X88900000Y-146685000D03*
X86360000Y-149225000D03*
X88900000Y-149225000D03*
X86360000Y-151765000D03*
X88900000Y-151765000D03*
X86360000Y-154305000D03*
X88900000Y-154305000D03*
X86360000Y-156845000D03*
X88900000Y-156845000D03*
X86360000Y-159385000D03*
X88900000Y-159385000D03*
D31*
X147320000Y-70505000D03*
D18*
X149860000Y-70505000D03*
X147320000Y-73045000D03*
X149860000Y-73045000D03*
X147320000Y-75585000D03*
X149860000Y-75585000D03*
X147320000Y-78125000D03*
X149860000Y-78125000D03*
X147320000Y-80665000D03*
X149860000Y-80665000D03*
X147320000Y-83205000D03*
X149860000Y-83205000D03*
X147320000Y-85745000D03*
X149860000Y-85745000D03*
X147320000Y-88285000D03*
X149860000Y-88285000D03*
X147320000Y-90825000D03*
X149860000Y-90825000D03*
X147320000Y-93365000D03*
X149860000Y-93365000D03*
X147320000Y-95905000D03*
X149860000Y-95905000D03*
X147320000Y-98445000D03*
X149860000Y-98445000D03*
X147320000Y-100985000D03*
X149860000Y-100985000D03*
X147320000Y-103525000D03*
X149860000Y-103525000D03*
X147320000Y-106065000D03*
X149860000Y-106065000D03*
X147320000Y-108605000D03*
X149860000Y-108605000D03*
X147320000Y-111145000D03*
X149860000Y-111145000D03*
X147320000Y-113685000D03*
X149860000Y-113685000D03*
X147320000Y-116225000D03*
X149860000Y-116225000D03*
X147320000Y-118765000D03*
X149860000Y-118765000D03*
X147320000Y-121305000D03*
X149860000Y-121305000D03*
X147320000Y-123845000D03*
X149860000Y-123845000D03*
X147320000Y-126385000D03*
X149860000Y-126385000D03*
X147320000Y-128925000D03*
X149860000Y-128925000D03*
X147320000Y-131465000D03*
X149860000Y-131465000D03*
X147320000Y-134005000D03*
X149860000Y-134005000D03*
X147320000Y-136545000D03*
X149860000Y-136545000D03*
X147320000Y-139085000D03*
X149860000Y-139085000D03*
X147320000Y-141625000D03*
X149860000Y-141625000D03*
X147320000Y-144165000D03*
X149860000Y-144165000D03*
X147320000Y-146705000D03*
X149860000Y-146705000D03*
X147320000Y-149245000D03*
X149860000Y-149245000D03*
X147320000Y-151785000D03*
X149860000Y-151785000D03*
X147320000Y-154325000D03*
X149860000Y-154325000D03*
X147320000Y-156865000D03*
X149860000Y-156865000D03*
X147320000Y-159405000D03*
X149860000Y-159405000D03*
D15*
X173990000Y-143860000D03*
D16*
X173990000Y-145860000D03*
X173990000Y-147860000D03*
X173990000Y-149860000D03*
%LPD*%
M02*
