G04 #@! TF.GenerationSoftware,KiCad,Pcbnew,7.0.10*
G04 #@! TF.CreationDate,2024-03-01T12:45:03+01:00*
G04 #@! TF.ProjectId,zapdos,7a617064-6f73-42e6-9b69-6361645f7063,rev?*
G04 #@! TF.SameCoordinates,Original*
G04 #@! TF.FileFunction,Soldermask,Bot*
G04 #@! TF.FilePolarity,Negative*
%FSLAX46Y46*%
G04 Gerber Fmt 4.6, Leading zero omitted, Abs format (unit mm)*
G04 Created by KiCad (PCBNEW 7.0.10) date 2024-03-01 12:45:03*
%MOMM*%
%LPD*%
G01*
G04 APERTURE LIST*
G04 Aperture macros list*
%AMRoundRect*
0 Rectangle with rounded corners*
0 $1 Rounding radius*
0 $2 $3 $4 $5 $6 $7 $8 $9 X,Y pos of 4 corners*
0 Add a 4 corners polygon primitive as box body*
4,1,4,$2,$3,$4,$5,$6,$7,$8,$9,$2,$3,0*
0 Add four circle primitives for the rounded corners*
1,1,$1+$1,$2,$3*
1,1,$1+$1,$4,$5*
1,1,$1+$1,$6,$7*
1,1,$1+$1,$8,$9*
0 Add four rect primitives between the rounded corners*
20,1,$1+$1,$2,$3,$4,$5,0*
20,1,$1+$1,$4,$5,$6,$7,0*
20,1,$1+$1,$6,$7,$8,$9,0*
20,1,$1+$1,$8,$9,$2,$3,0*%
G04 Aperture macros list end*
%ADD10RoundRect,0.250000X-0.625000X0.350000X-0.625000X-0.350000X0.625000X-0.350000X0.625000X0.350000X0*%
%ADD11O,1.750000X1.200000*%
%ADD12RoundRect,0.102000X0.765000X0.765000X-0.765000X0.765000X-0.765000X-0.765000X0.765000X-0.765000X0*%
%ADD13C,1.734000*%
%ADD14RoundRect,0.250000X-1.100000X0.412500X-1.100000X-0.412500X1.100000X-0.412500X1.100000X0.412500X0*%
%ADD15C,3.200000*%
%ADD16R,1.700000X1.700000*%
%ADD17O,1.700000X1.700000*%
%ADD18RoundRect,0.250000X-0.350000X-0.625000X0.350000X-0.625000X0.350000X0.625000X-0.350000X0.625000X0*%
%ADD19O,1.200000X1.750000*%
%ADD20C,6.000000*%
%ADD21RoundRect,0.102000X-0.765000X-0.765000X0.765000X-0.765000X0.765000X0.765000X-0.765000X0.765000X0*%
G04 APERTURE END LIST*
D10*
X174000000Y-72000000D03*
D11*
X174000000Y-74000000D03*
X174000000Y-76000000D03*
X174000000Y-78000000D03*
D12*
X66675000Y-171165000D03*
D13*
X66675000Y-168625000D03*
X66675000Y-166085000D03*
X66675000Y-163545000D03*
X66675000Y-161005000D03*
X66675000Y-158465000D03*
X66675000Y-155925000D03*
X66675000Y-153385000D03*
X66675000Y-150845000D03*
X66675000Y-148305000D03*
X66675000Y-145765000D03*
X66675000Y-143225000D03*
X66675000Y-140685000D03*
X66675000Y-138145000D03*
X66675000Y-135605000D03*
X66675000Y-133065000D03*
X66675000Y-130525000D03*
X66675000Y-127985000D03*
X66675000Y-125445000D03*
X41275000Y-125445000D03*
X41275000Y-127985000D03*
X41275000Y-130525000D03*
X41275000Y-133065000D03*
X41275000Y-135605000D03*
X41275000Y-138145000D03*
X41275000Y-140685000D03*
X41275000Y-143225000D03*
X41275000Y-145765000D03*
X41275000Y-148305000D03*
X41275000Y-150845000D03*
X41275000Y-153385000D03*
X41275000Y-155925000D03*
X41275000Y-158465000D03*
X41275000Y-161005000D03*
X41275000Y-163545000D03*
X41275000Y-166085000D03*
X41275000Y-168625000D03*
X41275000Y-171165000D03*
D14*
X138000000Y-26937500D03*
X138000000Y-30062500D03*
X119500000Y-41062500D03*
X119500000Y-37937500D03*
X126000000Y-34000000D03*
X126000000Y-37125000D03*
D15*
X34290000Y-168910000D03*
D16*
X79375000Y-29210000D03*
D17*
X79375000Y-31750000D03*
X79375000Y-34290000D03*
D10*
X173990000Y-156560000D03*
D11*
X173990000Y-158560000D03*
X173990000Y-160560000D03*
X173990000Y-162560000D03*
D16*
X173990000Y-48895000D03*
D17*
X173990000Y-51435000D03*
X173990000Y-53975000D03*
X173990000Y-56515000D03*
X173990000Y-59055000D03*
X173990000Y-61595000D03*
D10*
X173990000Y-132430000D03*
D11*
X173990000Y-134430000D03*
X173990000Y-136430000D03*
X173990000Y-138430000D03*
D18*
X129175000Y-28390000D03*
D19*
X131175000Y-28390000D03*
D10*
X173990000Y-121920000D03*
D11*
X173990000Y-123920000D03*
X173990000Y-125920000D03*
D10*
X173990000Y-84900000D03*
D11*
X173990000Y-86900000D03*
X173990000Y-88900000D03*
X173990000Y-90900000D03*
X173990000Y-92900000D03*
X173990000Y-94900000D03*
D15*
X177165000Y-168910000D03*
D10*
X173990000Y-102395000D03*
D11*
X173990000Y-104395000D03*
X173990000Y-106395000D03*
X173990000Y-108395000D03*
X173990000Y-110395000D03*
X173990000Y-112395000D03*
D18*
X119785000Y-28390000D03*
D19*
X121785000Y-28390000D03*
D15*
X177165000Y-26035000D03*
X34290000Y-26035000D03*
D18*
X110395000Y-28390000D03*
D19*
X112395000Y-28390000D03*
D20*
X41970000Y-30690000D03*
X41970000Y-88690000D03*
X64970000Y-30690000D03*
X64970000Y-88690000D03*
D16*
X63700000Y-35560000D03*
D17*
X66240000Y-35560000D03*
X63700000Y-38100000D03*
X66240000Y-38100000D03*
X63700000Y-40640000D03*
X66240000Y-40640000D03*
X63700000Y-43180000D03*
X66240000Y-43180000D03*
X63700000Y-45720000D03*
X66240000Y-45720000D03*
X63700000Y-48260000D03*
X66240000Y-48260000D03*
X63700000Y-50800000D03*
X66240000Y-50800000D03*
X63700000Y-53340000D03*
X66240000Y-53340000D03*
X63700000Y-55880000D03*
X66240000Y-55880000D03*
X63700000Y-58420000D03*
X66240000Y-58420000D03*
X63700000Y-60960000D03*
X66240000Y-60960000D03*
X63700000Y-63500000D03*
X66240000Y-63500000D03*
X63700000Y-66040000D03*
X66240000Y-66040000D03*
X63700000Y-68580000D03*
X66240000Y-68580000D03*
X63700000Y-71120000D03*
X66240000Y-71120000D03*
X63700000Y-73660000D03*
X66240000Y-73660000D03*
X63700000Y-76200000D03*
X66240000Y-76200000D03*
X63700000Y-78740000D03*
X66240000Y-78740000D03*
X63700000Y-81280000D03*
X66240000Y-81280000D03*
X63700000Y-83820000D03*
X66240000Y-83820000D03*
D15*
X93980000Y-66675000D03*
X95250000Y-142875000D03*
X127000000Y-118745000D03*
X140970000Y-142875000D03*
X142240000Y-67945000D03*
D21*
X139700000Y-71501000D03*
D13*
X142240000Y-71501000D03*
X139700000Y-74041000D03*
X142240000Y-74041000D03*
X139700000Y-76581000D03*
X142240000Y-76581000D03*
X139700000Y-79121000D03*
X142240000Y-79121000D03*
X139700000Y-81661000D03*
X142240000Y-81661000D03*
X139700000Y-84201000D03*
X142240000Y-84201000D03*
X139700000Y-86741000D03*
X142240000Y-86741000D03*
X139700000Y-89281000D03*
X142240000Y-89281000D03*
X139700000Y-91821000D03*
X142240000Y-91821000D03*
X139700000Y-94361000D03*
X142240000Y-94361000D03*
D21*
X93980000Y-80645000D03*
D13*
X96520000Y-80645000D03*
X93980000Y-83185000D03*
X96520000Y-83185000D03*
X93980000Y-85725000D03*
X96520000Y-85725000D03*
X93980000Y-88265000D03*
X96520000Y-88265000D03*
X93980000Y-90805000D03*
X96520000Y-90805000D03*
X93980000Y-93345000D03*
X96520000Y-93345000D03*
X93980000Y-95885000D03*
X96520000Y-95885000D03*
X93980000Y-98425000D03*
X96520000Y-98425000D03*
D21*
X93980000Y-103505000D03*
D13*
X96520000Y-103505000D03*
X93980000Y-106045000D03*
X96520000Y-106045000D03*
X93980000Y-108585000D03*
X96520000Y-108585000D03*
X93980000Y-111125000D03*
X96520000Y-111125000D03*
X93980000Y-113665000D03*
X96520000Y-113665000D03*
X93980000Y-116205000D03*
X96520000Y-116205000D03*
X93980000Y-118745000D03*
X96520000Y-118745000D03*
X93980000Y-121285000D03*
X96520000Y-121285000D03*
X93980000Y-123825000D03*
X96520000Y-123825000D03*
X93980000Y-126365000D03*
X96520000Y-126365000D03*
X93980000Y-128905000D03*
X96520000Y-128905000D03*
X93980000Y-131445000D03*
X96520000Y-131445000D03*
X93980000Y-133985000D03*
X96520000Y-133985000D03*
X93980000Y-136525000D03*
X96520000Y-136525000D03*
X93980000Y-139065000D03*
X96520000Y-139065000D03*
D21*
X139700000Y-98425000D03*
D13*
X142240000Y-98425000D03*
X139700000Y-100965000D03*
X142240000Y-100965000D03*
X139700000Y-103505000D03*
X142240000Y-103505000D03*
X139700000Y-106045000D03*
X142240000Y-106045000D03*
X139700000Y-108585000D03*
X142240000Y-108585000D03*
X139700000Y-111125000D03*
X142240000Y-111125000D03*
X139700000Y-113665000D03*
X142240000Y-113665000D03*
X139700000Y-116205000D03*
X142240000Y-116205000D03*
X139700000Y-118745000D03*
X142240000Y-118745000D03*
X139700000Y-121285000D03*
X142240000Y-121285000D03*
X139700000Y-123825000D03*
X142240000Y-123825000D03*
X139700000Y-126365000D03*
X142240000Y-126365000D03*
X139700000Y-128905000D03*
X142240000Y-128905000D03*
X139700000Y-131445000D03*
X142240000Y-131445000D03*
X139700000Y-133985000D03*
X142240000Y-133985000D03*
X139700000Y-136525000D03*
X142240000Y-136525000D03*
X139700000Y-139065000D03*
X142240000Y-139065000D03*
D21*
X86360000Y-70485000D03*
D13*
X88900000Y-70485000D03*
X86360000Y-73025000D03*
X88900000Y-73025000D03*
X86360000Y-75565000D03*
X88900000Y-75565000D03*
X86360000Y-78105000D03*
X88900000Y-78105000D03*
X86360000Y-80645000D03*
X88900000Y-80645000D03*
X86360000Y-83185000D03*
X88900000Y-83185000D03*
X86360000Y-85725000D03*
X88900000Y-85725000D03*
X86360000Y-88265000D03*
X88900000Y-88265000D03*
X86360000Y-90805000D03*
X88900000Y-90805000D03*
X86360000Y-93345000D03*
X88900000Y-93345000D03*
X86360000Y-95885000D03*
X88900000Y-95885000D03*
X86360000Y-98425000D03*
X88900000Y-98425000D03*
X86360000Y-100965000D03*
X88900000Y-100965000D03*
X86360000Y-103505000D03*
X88900000Y-103505000D03*
X86360000Y-106045000D03*
X88900000Y-106045000D03*
X86360000Y-108585000D03*
X88900000Y-108585000D03*
X86360000Y-111125000D03*
X88900000Y-111125000D03*
X86360000Y-113665000D03*
X88900000Y-113665000D03*
X86360000Y-116205000D03*
X88900000Y-116205000D03*
X86360000Y-118745000D03*
X88900000Y-118745000D03*
X86360000Y-121285000D03*
X88900000Y-121285000D03*
X86360000Y-123825000D03*
X88900000Y-123825000D03*
X86360000Y-126365000D03*
X88900000Y-126365000D03*
X86360000Y-128905000D03*
X88900000Y-128905000D03*
X86360000Y-131445000D03*
X88900000Y-131445000D03*
X86360000Y-133985000D03*
X88900000Y-133985000D03*
X86360000Y-136525000D03*
X88900000Y-136525000D03*
X86360000Y-139065000D03*
X88900000Y-139065000D03*
X86360000Y-141605000D03*
X88900000Y-141605000D03*
X86360000Y-144145000D03*
X88900000Y-144145000D03*
X86360000Y-146685000D03*
X88900000Y-146685000D03*
X86360000Y-149225000D03*
X88900000Y-149225000D03*
X86360000Y-151765000D03*
X88900000Y-151765000D03*
X86360000Y-154305000D03*
X88900000Y-154305000D03*
X86360000Y-156845000D03*
X88900000Y-156845000D03*
X86360000Y-159385000D03*
X88900000Y-159385000D03*
D21*
X147320000Y-70505000D03*
D13*
X149860000Y-70505000D03*
X147320000Y-73045000D03*
X149860000Y-73045000D03*
X147320000Y-75585000D03*
X149860000Y-75585000D03*
X147320000Y-78125000D03*
X149860000Y-78125000D03*
X147320000Y-80665000D03*
X149860000Y-80665000D03*
X147320000Y-83205000D03*
X149860000Y-83205000D03*
X147320000Y-85745000D03*
X149860000Y-85745000D03*
X147320000Y-88285000D03*
X149860000Y-88285000D03*
X147320000Y-90825000D03*
X149860000Y-90825000D03*
X147320000Y-93365000D03*
X149860000Y-93365000D03*
X147320000Y-95905000D03*
X149860000Y-95905000D03*
X147320000Y-98445000D03*
X149860000Y-98445000D03*
X147320000Y-100985000D03*
X149860000Y-100985000D03*
X147320000Y-103525000D03*
X149860000Y-103525000D03*
X147320000Y-106065000D03*
X149860000Y-106065000D03*
X147320000Y-108605000D03*
X149860000Y-108605000D03*
X147320000Y-111145000D03*
X149860000Y-111145000D03*
X147320000Y-113685000D03*
X149860000Y-113685000D03*
X147320000Y-116225000D03*
X149860000Y-116225000D03*
X147320000Y-118765000D03*
X149860000Y-118765000D03*
X147320000Y-121305000D03*
X149860000Y-121305000D03*
X147320000Y-123845000D03*
X149860000Y-123845000D03*
X147320000Y-126385000D03*
X149860000Y-126385000D03*
X147320000Y-128925000D03*
X149860000Y-128925000D03*
X147320000Y-131465000D03*
X149860000Y-131465000D03*
X147320000Y-134005000D03*
X149860000Y-134005000D03*
X147320000Y-136545000D03*
X149860000Y-136545000D03*
X147320000Y-139085000D03*
X149860000Y-139085000D03*
X147320000Y-141625000D03*
X149860000Y-141625000D03*
X147320000Y-144165000D03*
X149860000Y-144165000D03*
X147320000Y-146705000D03*
X149860000Y-146705000D03*
X147320000Y-149245000D03*
X149860000Y-149245000D03*
X147320000Y-151785000D03*
X149860000Y-151785000D03*
X147320000Y-154325000D03*
X149860000Y-154325000D03*
X147320000Y-156865000D03*
X149860000Y-156865000D03*
X147320000Y-159405000D03*
X149860000Y-159405000D03*
D10*
X173990000Y-143860000D03*
D11*
X173990000Y-145860000D03*
X173990000Y-147860000D03*
X173990000Y-149860000D03*
M02*
