M48
; DRILL file {KiCad 7.0.10} date Fri 01 Mar 2024 12:45:20 CET
; FORMAT={-:-/ absolute / metric / decimal}
; #@! TF.CreationDate,2024-03-01T12:45:20+01:00
; #@! TF.GenerationSoftware,Kicad,Pcbnew,7.0.10
; #@! TF.FileFunction,Plated,1,2,PTH
FMAT,2
METRIC
; #@! TA.AperFunction,Plated,PTH,ViaDrill
T1C0.400
; #@! TA.AperFunction,Plated,PTH,ComponentDrill
T2C0.750
; #@! TA.AperFunction,Plated,PTH,ComponentDrill
T3C1.000
; #@! TA.AperFunction,Plated,PTH,ComponentDrill
T4C1.020
%
G90
G05
T1
X74.93Y-170.18
X77.47Y-103.505
X81.915Y-100.965
X81.915Y-108.585
X82.55Y-60.325
X98.421Y-84.451
X100.438Y-42.438
X104.14Y-84.455
X119.38Y-35.56
X126.0Y-31.75
X135.89Y-133.985
X137.16Y-133.985
X138.0Y-24.13
X144.145Y-139.065
X145.415Y-139.065
X155.0Y-100.0
X178.435Y-69.0
T2
X110.395Y-28.39
X112.395Y-28.39
X119.785Y-28.39
X121.785Y-28.39
X129.175Y-28.39
X131.175Y-28.39
X173.99Y-84.9
X173.99Y-86.9
X173.99Y-88.9
X173.99Y-90.9
X173.99Y-92.9
X173.99Y-94.9
X173.99Y-102.395
X173.99Y-104.395
X173.99Y-106.395
X173.99Y-108.395
X173.99Y-110.395
X173.99Y-112.395
X173.99Y-121.92
X173.99Y-123.92
X173.99Y-125.92
X173.99Y-132.43
X173.99Y-134.43
X173.99Y-136.43
X173.99Y-138.43
X173.99Y-143.86
X173.99Y-145.86
X173.99Y-147.86
X173.99Y-149.86
X173.99Y-156.56
X173.99Y-158.56
X173.99Y-160.56
X173.99Y-162.56
X174.0Y-72.0
X174.0Y-74.0
X174.0Y-76.0
X174.0Y-78.0
T3
X63.7Y-35.56
X63.7Y-38.1
X63.7Y-40.64
X63.7Y-43.18
X63.7Y-45.72
X63.7Y-48.26
X63.7Y-50.8
X63.7Y-53.34
X63.7Y-55.88
X63.7Y-58.42
X63.7Y-60.96
X63.7Y-63.5
X63.7Y-66.04
X63.7Y-68.58
X63.7Y-71.12
X63.7Y-73.66
X63.7Y-76.2
X63.7Y-78.74
X63.7Y-81.28
X63.7Y-83.82
X66.24Y-35.56
X66.24Y-38.1
X66.24Y-40.64
X66.24Y-43.18
X66.24Y-45.72
X66.24Y-48.26
X66.24Y-50.8
X66.24Y-53.34
X66.24Y-55.88
X66.24Y-58.42
X66.24Y-60.96
X66.24Y-63.5
X66.24Y-66.04
X66.24Y-68.58
X66.24Y-71.12
X66.24Y-73.66
X66.24Y-76.2
X66.24Y-78.74
X66.24Y-81.28
X66.24Y-83.82
X79.375Y-29.21
X79.375Y-31.75
X79.375Y-34.29
X173.99Y-48.895
X173.99Y-51.435
X173.99Y-53.975
X173.99Y-56.515
X173.99Y-59.055
X173.99Y-61.595
T4
X41.275Y-125.445
X41.275Y-127.985
X41.275Y-130.525
X41.275Y-133.065
X41.275Y-135.605
X41.275Y-138.145
X41.275Y-140.685
X41.275Y-143.225
X41.275Y-145.765
X41.275Y-148.305
X41.275Y-150.845
X41.275Y-153.385
X41.275Y-155.925
X41.275Y-158.465
X41.275Y-161.005
X41.275Y-163.545
X41.275Y-166.085
X41.275Y-168.625
X41.275Y-171.165
X66.675Y-125.445
X66.675Y-127.985
X66.675Y-130.525
X66.675Y-133.065
X66.675Y-135.605
X66.675Y-138.145
X66.675Y-140.685
X66.675Y-143.225
X66.675Y-145.765
X66.675Y-148.305
X66.675Y-150.845
X66.675Y-153.385
X66.675Y-155.925
X66.675Y-158.465
X66.675Y-161.005
X66.675Y-163.545
X66.675Y-166.085
X66.675Y-168.625
X66.675Y-171.165
X86.36Y-70.485
X86.36Y-73.025
X86.36Y-75.565
X86.36Y-78.105
X86.36Y-80.645
X86.36Y-83.185
X86.36Y-85.725
X86.36Y-88.265
X86.36Y-90.805
X86.36Y-93.345
X86.36Y-95.885
X86.36Y-98.425
X86.36Y-100.965
X86.36Y-103.505
X86.36Y-106.045
X86.36Y-108.585
X86.36Y-111.125
X86.36Y-113.665
X86.36Y-116.205
X86.36Y-118.745
X86.36Y-121.285
X86.36Y-123.825
X86.36Y-126.365
X86.36Y-128.905
X86.36Y-131.445
X86.36Y-133.985
X86.36Y-136.525
X86.36Y-139.065
X86.36Y-141.605
X86.36Y-144.145
X86.36Y-146.685
X86.36Y-149.225
X86.36Y-151.765
X86.36Y-154.305
X86.36Y-156.845
X86.36Y-159.385
X88.9Y-70.485
X88.9Y-73.025
X88.9Y-75.565
X88.9Y-78.105
X88.9Y-80.645
X88.9Y-83.185
X88.9Y-85.725
X88.9Y-88.265
X88.9Y-90.805
X88.9Y-93.345
X88.9Y-95.885
X88.9Y-98.425
X88.9Y-100.965
X88.9Y-103.505
X88.9Y-106.045
X88.9Y-108.585
X88.9Y-111.125
X88.9Y-113.665
X88.9Y-116.205
X88.9Y-118.745
X88.9Y-121.285
X88.9Y-123.825
X88.9Y-126.365
X88.9Y-128.905
X88.9Y-131.445
X88.9Y-133.985
X88.9Y-136.525
X88.9Y-139.065
X88.9Y-141.605
X88.9Y-144.145
X88.9Y-146.685
X88.9Y-149.225
X88.9Y-151.765
X88.9Y-154.305
X88.9Y-156.845
X88.9Y-159.385
X93.98Y-80.645
X93.98Y-83.185
X93.98Y-85.725
X93.98Y-88.265
X93.98Y-90.805
X93.98Y-93.345
X93.98Y-95.885
X93.98Y-98.425
X93.98Y-103.505
X93.98Y-106.045
X93.98Y-108.585
X93.98Y-111.125
X93.98Y-113.665
X93.98Y-116.205
X93.98Y-118.745
X93.98Y-121.285
X93.98Y-123.825
X93.98Y-126.365
X93.98Y-128.905
X93.98Y-131.445
X93.98Y-133.985
X93.98Y-136.525
X93.98Y-139.065
X96.52Y-80.645
X96.52Y-83.185
X96.52Y-85.725
X96.52Y-88.265
X96.52Y-90.805
X96.52Y-93.345
X96.52Y-95.885
X96.52Y-98.425
X96.52Y-103.505
X96.52Y-106.045
X96.52Y-108.585
X96.52Y-111.125
X96.52Y-113.665
X96.52Y-116.205
X96.52Y-118.745
X96.52Y-121.285
X96.52Y-123.825
X96.52Y-126.365
X96.52Y-128.905
X96.52Y-131.445
X96.52Y-133.985
X96.52Y-136.525
X96.52Y-139.065
X139.7Y-71.501
X139.7Y-74.041
X139.7Y-76.581
X139.7Y-79.121
X139.7Y-81.661
X139.7Y-84.201
X139.7Y-86.741
X139.7Y-89.281
X139.7Y-91.821
X139.7Y-94.361
X139.7Y-98.425
X139.7Y-100.965
X139.7Y-103.505
X139.7Y-106.045
X139.7Y-108.585
X139.7Y-111.125
X139.7Y-113.665
X139.7Y-116.205
X139.7Y-118.745
X139.7Y-121.285
X139.7Y-123.825
X139.7Y-126.365
X139.7Y-128.905
X139.7Y-131.445
X139.7Y-133.985
X139.7Y-136.525
X139.7Y-139.065
X142.24Y-71.501
X142.24Y-74.041
X142.24Y-76.581
X142.24Y-79.121
X142.24Y-81.661
X142.24Y-84.201
X142.24Y-86.741
X142.24Y-89.281
X142.24Y-91.821
X142.24Y-94.361
X142.24Y-98.425
X142.24Y-100.965
X142.24Y-103.505
X142.24Y-106.045
X142.24Y-108.585
X142.24Y-111.125
X142.24Y-113.665
X142.24Y-116.205
X142.24Y-118.745
X142.24Y-121.285
X142.24Y-123.825
X142.24Y-126.365
X142.24Y-128.905
X142.24Y-131.445
X142.24Y-133.985
X142.24Y-136.525
X142.24Y-139.065
X147.32Y-70.505
X147.32Y-73.045
X147.32Y-75.585
X147.32Y-78.125
X147.32Y-80.665
X147.32Y-83.205
X147.32Y-85.745
X147.32Y-88.285
X147.32Y-90.825
X147.32Y-93.365
X147.32Y-95.905
X147.32Y-98.445
X147.32Y-100.985
X147.32Y-103.525
X147.32Y-106.065
X147.32Y-108.605
X147.32Y-111.145
X147.32Y-113.685
X147.32Y-116.225
X147.32Y-118.765
X147.32Y-121.305
X147.32Y-123.845
X147.32Y-126.385
X147.32Y-128.925
X147.32Y-131.465
X147.32Y-134.005
X147.32Y-136.545
X147.32Y-139.085
X147.32Y-141.625
X147.32Y-144.165
X147.32Y-146.705
X147.32Y-149.245
X147.32Y-151.785
X147.32Y-154.325
X147.32Y-156.865
X147.32Y-159.405
X149.86Y-70.505
X149.86Y-73.045
X149.86Y-75.585
X149.86Y-78.125
X149.86Y-80.665
X149.86Y-83.205
X149.86Y-85.745
X149.86Y-88.285
X149.86Y-90.825
X149.86Y-93.365
X149.86Y-95.905
X149.86Y-98.445
X149.86Y-100.985
X149.86Y-103.525
X149.86Y-106.065
X149.86Y-108.605
X149.86Y-111.145
X149.86Y-113.685
X149.86Y-116.225
X149.86Y-118.765
X149.86Y-121.305
X149.86Y-123.845
X149.86Y-126.385
X149.86Y-128.925
X149.86Y-131.465
X149.86Y-134.005
X149.86Y-136.545
X149.86Y-139.085
X149.86Y-141.625
X149.86Y-144.165
X149.86Y-146.705
X149.86Y-149.245
X149.86Y-151.785
X149.86Y-154.325
X149.86Y-156.865
X149.86Y-159.405
M30
