%TF.GenerationSoftware,KiCad,Pcbnew,7.0.10*%
%TF.CreationDate,2024-03-01T12:45:31+01:00*%
%TF.ProjectId,zapdos,7a617064-6f73-42e6-9b69-6361645f7063,rev?*%
%TF.SameCoordinates,Original*%
%TF.FileFunction,Drillmap*%
%TF.FilePolarity,Positive*%
%FSLAX45Y45*%
G04 Gerber Fmt 4.5, Leading zero omitted, Abs format (unit mm)*
G04 Created by KiCad (PCBNEW 7.0.10) date 2024-03-01 12:45:31*
%MOMM*%
%LPD*%
G01*
G04 APERTURE LIST*
%ADD10C,0.200000*%
%ADD11C,0.100000*%
%ADD12C,0.102000*%
G04 APERTURE END LIST*
D10*
X18097500Y-2222500D02*
X3048000Y-2222500D01*
X3048000Y-17272000D02*
X18097500Y-17272000D01*
X18097500Y-17272000D02*
X18097500Y-2222500D01*
X3048000Y-2222500D02*
X3048000Y-17272000D01*
D11*
X7473000Y-16998000D02*
X7513000Y-17038000D01*
X7513000Y-16998000D02*
X7473000Y-17038000D01*
X7727000Y-10330500D02*
X7767000Y-10370500D01*
X7767000Y-10330500D02*
X7727000Y-10370500D01*
X8171500Y-10076500D02*
X8211500Y-10116500D01*
X8211500Y-10076500D02*
X8171500Y-10116500D01*
X8171500Y-10838500D02*
X8211500Y-10878500D01*
X8211500Y-10838500D02*
X8171500Y-10878500D01*
X8235000Y-6012500D02*
X8275000Y-6052500D01*
X8275000Y-6012500D02*
X8235000Y-6052500D01*
X9822059Y-8425059D02*
X9862059Y-8465059D01*
X9862059Y-8425059D02*
X9822059Y-8465059D01*
X10023750Y-4223750D02*
X10063750Y-4263750D01*
X10063750Y-4223750D02*
X10023750Y-4263750D01*
X10394000Y-8425500D02*
X10434000Y-8465500D01*
X10434000Y-8425500D02*
X10394000Y-8465500D01*
X11918000Y-3536000D02*
X11958000Y-3576000D01*
X11958000Y-3536000D02*
X11918000Y-3576000D01*
X12580000Y-3155000D02*
X12620000Y-3195000D01*
X12620000Y-3155000D02*
X12580000Y-3195000D01*
X13569000Y-13378500D02*
X13609000Y-13418500D01*
X13609000Y-13378500D02*
X13569000Y-13418500D01*
X13696000Y-13378500D02*
X13736000Y-13418500D01*
X13736000Y-13378500D02*
X13696000Y-13418500D01*
X13780000Y-2393000D02*
X13820000Y-2433000D01*
X13820000Y-2393000D02*
X13780000Y-2433000D01*
X14394500Y-13886500D02*
X14434500Y-13926500D01*
X14434500Y-13886500D02*
X14394500Y-13926500D01*
X14521500Y-13886500D02*
X14561500Y-13926500D01*
X14561500Y-13886500D02*
X14521500Y-13926500D01*
X15480000Y-9980000D02*
X15520000Y-10020000D01*
X15520000Y-9980000D02*
X15480000Y-10020000D01*
X17823500Y-6880000D02*
X17863500Y-6920000D01*
X17863500Y-6880000D02*
X17823500Y-6920000D01*
X11077000Y-2839000D02*
G75*
G03*
X11002000Y-2839000I-37500J0D01*
G01*
X11002000Y-2839000D02*
G75*
G03*
X11077000Y-2839000I37500J0D01*
G01*
X11277000Y-2839000D02*
G75*
G03*
X11202000Y-2839000I-37500J0D01*
G01*
X11202000Y-2839000D02*
G75*
G03*
X11277000Y-2839000I37500J0D01*
G01*
X12016000Y-2839000D02*
G75*
G03*
X11941000Y-2839000I-37500J0D01*
G01*
X11941000Y-2839000D02*
G75*
G03*
X12016000Y-2839000I37500J0D01*
G01*
X12216000Y-2839000D02*
G75*
G03*
X12141000Y-2839000I-37500J0D01*
G01*
X12141000Y-2839000D02*
G75*
G03*
X12216000Y-2839000I37500J0D01*
G01*
X12955000Y-2839000D02*
G75*
G03*
X12880000Y-2839000I-37500J0D01*
G01*
X12880000Y-2839000D02*
G75*
G03*
X12955000Y-2839000I37500J0D01*
G01*
X13155000Y-2839000D02*
G75*
G03*
X13080000Y-2839000I-37500J0D01*
G01*
X13080000Y-2839000D02*
G75*
G03*
X13155000Y-2839000I37500J0D01*
G01*
X17436500Y-8490000D02*
G75*
G03*
X17361500Y-8490000I-37500J0D01*
G01*
X17361500Y-8490000D02*
G75*
G03*
X17436500Y-8490000I37500J0D01*
G01*
X17436500Y-8690000D02*
G75*
G03*
X17361500Y-8690000I-37500J0D01*
G01*
X17361500Y-8690000D02*
G75*
G03*
X17436500Y-8690000I37500J0D01*
G01*
X17436500Y-8890000D02*
G75*
G03*
X17361500Y-8890000I-37500J0D01*
G01*
X17361500Y-8890000D02*
G75*
G03*
X17436500Y-8890000I37500J0D01*
G01*
X17436500Y-9090000D02*
G75*
G03*
X17361500Y-9090000I-37500J0D01*
G01*
X17361500Y-9090000D02*
G75*
G03*
X17436500Y-9090000I37500J0D01*
G01*
X17436500Y-9290000D02*
G75*
G03*
X17361500Y-9290000I-37500J0D01*
G01*
X17361500Y-9290000D02*
G75*
G03*
X17436500Y-9290000I37500J0D01*
G01*
X17436500Y-9490000D02*
G75*
G03*
X17361500Y-9490000I-37500J0D01*
G01*
X17361500Y-9490000D02*
G75*
G03*
X17436500Y-9490000I37500J0D01*
G01*
X17436500Y-10239500D02*
G75*
G03*
X17361500Y-10239500I-37500J0D01*
G01*
X17361500Y-10239500D02*
G75*
G03*
X17436500Y-10239500I37500J0D01*
G01*
X17436500Y-10439500D02*
G75*
G03*
X17361500Y-10439500I-37500J0D01*
G01*
X17361500Y-10439500D02*
G75*
G03*
X17436500Y-10439500I37500J0D01*
G01*
X17436500Y-10639500D02*
G75*
G03*
X17361500Y-10639500I-37500J0D01*
G01*
X17361500Y-10639500D02*
G75*
G03*
X17436500Y-10639500I37500J0D01*
G01*
X17436500Y-10839500D02*
G75*
G03*
X17361500Y-10839500I-37500J0D01*
G01*
X17361500Y-10839500D02*
G75*
G03*
X17436500Y-10839500I37500J0D01*
G01*
X17436500Y-11039500D02*
G75*
G03*
X17361500Y-11039500I-37500J0D01*
G01*
X17361500Y-11039500D02*
G75*
G03*
X17436500Y-11039500I37500J0D01*
G01*
X17436500Y-11239500D02*
G75*
G03*
X17361500Y-11239500I-37500J0D01*
G01*
X17361500Y-11239500D02*
G75*
G03*
X17436500Y-11239500I37500J0D01*
G01*
X17436500Y-12192000D02*
G75*
G03*
X17361500Y-12192000I-37500J0D01*
G01*
X17361500Y-12192000D02*
G75*
G03*
X17436500Y-12192000I37500J0D01*
G01*
X17436500Y-12392000D02*
G75*
G03*
X17361500Y-12392000I-37500J0D01*
G01*
X17361500Y-12392000D02*
G75*
G03*
X17436500Y-12392000I37500J0D01*
G01*
X17436500Y-12592000D02*
G75*
G03*
X17361500Y-12592000I-37500J0D01*
G01*
X17361500Y-12592000D02*
G75*
G03*
X17436500Y-12592000I37500J0D01*
G01*
X17436500Y-13243000D02*
G75*
G03*
X17361500Y-13243000I-37500J0D01*
G01*
X17361500Y-13243000D02*
G75*
G03*
X17436500Y-13243000I37500J0D01*
G01*
X17436500Y-13443000D02*
G75*
G03*
X17361500Y-13443000I-37500J0D01*
G01*
X17361500Y-13443000D02*
G75*
G03*
X17436500Y-13443000I37500J0D01*
G01*
X17436500Y-13643000D02*
G75*
G03*
X17361500Y-13643000I-37500J0D01*
G01*
X17361500Y-13643000D02*
G75*
G03*
X17436500Y-13643000I37500J0D01*
G01*
X17436500Y-13843000D02*
G75*
G03*
X17361500Y-13843000I-37500J0D01*
G01*
X17361500Y-13843000D02*
G75*
G03*
X17436500Y-13843000I37500J0D01*
G01*
X17436500Y-14386000D02*
G75*
G03*
X17361500Y-14386000I-37500J0D01*
G01*
X17361500Y-14386000D02*
G75*
G03*
X17436500Y-14386000I37500J0D01*
G01*
X17436500Y-14586000D02*
G75*
G03*
X17361500Y-14586000I-37500J0D01*
G01*
X17361500Y-14586000D02*
G75*
G03*
X17436500Y-14586000I37500J0D01*
G01*
X17436500Y-14786000D02*
G75*
G03*
X17361500Y-14786000I-37500J0D01*
G01*
X17361500Y-14786000D02*
G75*
G03*
X17436500Y-14786000I37500J0D01*
G01*
X17436500Y-14986000D02*
G75*
G03*
X17361500Y-14986000I-37500J0D01*
G01*
X17361500Y-14986000D02*
G75*
G03*
X17436500Y-14986000I37500J0D01*
G01*
X17436500Y-15656000D02*
G75*
G03*
X17361500Y-15656000I-37500J0D01*
G01*
X17361500Y-15656000D02*
G75*
G03*
X17436500Y-15656000I37500J0D01*
G01*
X17436500Y-15856000D02*
G75*
G03*
X17361500Y-15856000I-37500J0D01*
G01*
X17361500Y-15856000D02*
G75*
G03*
X17436500Y-15856000I37500J0D01*
G01*
X17436500Y-16056000D02*
G75*
G03*
X17361500Y-16056000I-37500J0D01*
G01*
X17361500Y-16056000D02*
G75*
G03*
X17436500Y-16056000I37500J0D01*
G01*
X17436500Y-16256000D02*
G75*
G03*
X17361500Y-16256000I-37500J0D01*
G01*
X17361500Y-16256000D02*
G75*
G03*
X17436500Y-16256000I37500J0D01*
G01*
X17437500Y-7200000D02*
G75*
G03*
X17362500Y-7200000I-37500J0D01*
G01*
X17362500Y-7200000D02*
G75*
G03*
X17437500Y-7200000I37500J0D01*
G01*
X17437500Y-7400000D02*
G75*
G03*
X17362500Y-7400000I-37500J0D01*
G01*
X17362500Y-7400000D02*
G75*
G03*
X17437500Y-7400000I37500J0D01*
G01*
X17437500Y-7600000D02*
G75*
G03*
X17362500Y-7600000I-37500J0D01*
G01*
X17362500Y-7600000D02*
G75*
G03*
X17437500Y-7600000I37500J0D01*
G01*
X17437500Y-7800000D02*
G75*
G03*
X17362500Y-7800000I-37500J0D01*
G01*
X17362500Y-7800000D02*
G75*
G03*
X17437500Y-7800000I37500J0D01*
G01*
X6370000Y-3506000D02*
X6370000Y-3606000D01*
X6320000Y-3556000D02*
X6420000Y-3556000D01*
X6370000Y-3760000D02*
X6370000Y-3860000D01*
X6320000Y-3810000D02*
X6420000Y-3810000D01*
X6370000Y-4014000D02*
X6370000Y-4114000D01*
X6320000Y-4064000D02*
X6420000Y-4064000D01*
X6370000Y-4268000D02*
X6370000Y-4368000D01*
X6320000Y-4318000D02*
X6420000Y-4318000D01*
X6370000Y-4522000D02*
X6370000Y-4622000D01*
X6320000Y-4572000D02*
X6420000Y-4572000D01*
X6370000Y-4776000D02*
X6370000Y-4876000D01*
X6320000Y-4826000D02*
X6420000Y-4826000D01*
X6370000Y-5030000D02*
X6370000Y-5130000D01*
X6320000Y-5080000D02*
X6420000Y-5080000D01*
X6370000Y-5284000D02*
X6370000Y-5384000D01*
X6320000Y-5334000D02*
X6420000Y-5334000D01*
X6370000Y-5538000D02*
X6370000Y-5638000D01*
X6320000Y-5588000D02*
X6420000Y-5588000D01*
X6370000Y-5792000D02*
X6370000Y-5892000D01*
X6320000Y-5842000D02*
X6420000Y-5842000D01*
X6370000Y-6046000D02*
X6370000Y-6146000D01*
X6320000Y-6096000D02*
X6420000Y-6096000D01*
X6370000Y-6300000D02*
X6370000Y-6400000D01*
X6320000Y-6350000D02*
X6420000Y-6350000D01*
X6370000Y-6554000D02*
X6370000Y-6654000D01*
X6320000Y-6604000D02*
X6420000Y-6604000D01*
X6370000Y-6808000D02*
X6370000Y-6908000D01*
X6320000Y-6858000D02*
X6420000Y-6858000D01*
X6370000Y-7062000D02*
X6370000Y-7162000D01*
X6320000Y-7112000D02*
X6420000Y-7112000D01*
X6370000Y-7316000D02*
X6370000Y-7416000D01*
X6320000Y-7366000D02*
X6420000Y-7366000D01*
X6370000Y-7570000D02*
X6370000Y-7670000D01*
X6320000Y-7620000D02*
X6420000Y-7620000D01*
X6370000Y-7824000D02*
X6370000Y-7924000D01*
X6320000Y-7874000D02*
X6420000Y-7874000D01*
X6370000Y-8078000D02*
X6370000Y-8178000D01*
X6320000Y-8128000D02*
X6420000Y-8128000D01*
X6370000Y-8332000D02*
X6370000Y-8432000D01*
X6320000Y-8382000D02*
X6420000Y-8382000D01*
X6624000Y-3506000D02*
X6624000Y-3606000D01*
X6574000Y-3556000D02*
X6674000Y-3556000D01*
X6624000Y-3760000D02*
X6624000Y-3860000D01*
X6574000Y-3810000D02*
X6674000Y-3810000D01*
X6624000Y-4014000D02*
X6624000Y-4114000D01*
X6574000Y-4064000D02*
X6674000Y-4064000D01*
X6624000Y-4268000D02*
X6624000Y-4368000D01*
X6574000Y-4318000D02*
X6674000Y-4318000D01*
X6624000Y-4522000D02*
X6624000Y-4622000D01*
X6574000Y-4572000D02*
X6674000Y-4572000D01*
X6624000Y-4776000D02*
X6624000Y-4876000D01*
X6574000Y-4826000D02*
X6674000Y-4826000D01*
X6624000Y-5030000D02*
X6624000Y-5130000D01*
X6574000Y-5080000D02*
X6674000Y-5080000D01*
X6624000Y-5284000D02*
X6624000Y-5384000D01*
X6574000Y-5334000D02*
X6674000Y-5334000D01*
X6624000Y-5538000D02*
X6624000Y-5638000D01*
X6574000Y-5588000D02*
X6674000Y-5588000D01*
X6624000Y-5792000D02*
X6624000Y-5892000D01*
X6574000Y-5842000D02*
X6674000Y-5842000D01*
X6624000Y-6046000D02*
X6624000Y-6146000D01*
X6574000Y-6096000D02*
X6674000Y-6096000D01*
X6624000Y-6300000D02*
X6624000Y-6400000D01*
X6574000Y-6350000D02*
X6674000Y-6350000D01*
X6624000Y-6554000D02*
X6624000Y-6654000D01*
X6574000Y-6604000D02*
X6674000Y-6604000D01*
X6624000Y-6808000D02*
X6624000Y-6908000D01*
X6574000Y-6858000D02*
X6674000Y-6858000D01*
X6624000Y-7062000D02*
X6624000Y-7162000D01*
X6574000Y-7112000D02*
X6674000Y-7112000D01*
X6624000Y-7316000D02*
X6624000Y-7416000D01*
X6574000Y-7366000D02*
X6674000Y-7366000D01*
X6624000Y-7570000D02*
X6624000Y-7670000D01*
X6574000Y-7620000D02*
X6674000Y-7620000D01*
X6624000Y-7824000D02*
X6624000Y-7924000D01*
X6574000Y-7874000D02*
X6674000Y-7874000D01*
X6624000Y-8078000D02*
X6624000Y-8178000D01*
X6574000Y-8128000D02*
X6674000Y-8128000D01*
X6624000Y-8332000D02*
X6624000Y-8432000D01*
X6574000Y-8382000D02*
X6674000Y-8382000D01*
X7937500Y-2871000D02*
X7937500Y-2971000D01*
X7887500Y-2921000D02*
X7987500Y-2921000D01*
X7937500Y-3125000D02*
X7937500Y-3225000D01*
X7887500Y-3175000D02*
X7987500Y-3175000D01*
X7937500Y-3379000D02*
X7937500Y-3479000D01*
X7887500Y-3429000D02*
X7987500Y-3429000D01*
X17399000Y-4839500D02*
X17399000Y-4939500D01*
X17349000Y-4889500D02*
X17449000Y-4889500D01*
X17399000Y-5093500D02*
X17399000Y-5193500D01*
X17349000Y-5143500D02*
X17449000Y-5143500D01*
X17399000Y-5347500D02*
X17399000Y-5447500D01*
X17349000Y-5397500D02*
X17449000Y-5397500D01*
X17399000Y-5601500D02*
X17399000Y-5701500D01*
X17349000Y-5651500D02*
X17449000Y-5651500D01*
X17399000Y-5855500D02*
X17399000Y-5955500D01*
X17349000Y-5905500D02*
X17449000Y-5905500D01*
X17399000Y-6109500D02*
X17399000Y-6209500D01*
X17349000Y-6159500D02*
X17449000Y-6159500D01*
D12*
X4163563Y-12580563D02*
X4163563Y-12508437D01*
X4091437Y-12508437D01*
X4091437Y-12580563D01*
X4163563Y-12580563D01*
X4163563Y-12834563D02*
X4163563Y-12762437D01*
X4091437Y-12762437D01*
X4091437Y-12834563D01*
X4163563Y-12834563D01*
X4163563Y-13088563D02*
X4163563Y-13016437D01*
X4091437Y-13016437D01*
X4091437Y-13088563D01*
X4163563Y-13088563D01*
X4163563Y-13342563D02*
X4163563Y-13270437D01*
X4091437Y-13270437D01*
X4091437Y-13342563D01*
X4163563Y-13342563D01*
X4163563Y-13596563D02*
X4163563Y-13524437D01*
X4091437Y-13524437D01*
X4091437Y-13596563D01*
X4163563Y-13596563D01*
X4163563Y-13850563D02*
X4163563Y-13778437D01*
X4091437Y-13778437D01*
X4091437Y-13850563D01*
X4163563Y-13850563D01*
X4163563Y-14104563D02*
X4163563Y-14032437D01*
X4091437Y-14032437D01*
X4091437Y-14104563D01*
X4163563Y-14104563D01*
X4163563Y-14358563D02*
X4163563Y-14286437D01*
X4091437Y-14286437D01*
X4091437Y-14358563D01*
X4163563Y-14358563D01*
X4163563Y-14612563D02*
X4163563Y-14540437D01*
X4091437Y-14540437D01*
X4091437Y-14612563D01*
X4163563Y-14612563D01*
X4163563Y-14866563D02*
X4163563Y-14794437D01*
X4091437Y-14794437D01*
X4091437Y-14866563D01*
X4163563Y-14866563D01*
X4163563Y-15120563D02*
X4163563Y-15048437D01*
X4091437Y-15048437D01*
X4091437Y-15120563D01*
X4163563Y-15120563D01*
X4163563Y-15374563D02*
X4163563Y-15302437D01*
X4091437Y-15302437D01*
X4091437Y-15374563D01*
X4163563Y-15374563D01*
X4163563Y-15628563D02*
X4163563Y-15556437D01*
X4091437Y-15556437D01*
X4091437Y-15628563D01*
X4163563Y-15628563D01*
X4163563Y-15882563D02*
X4163563Y-15810437D01*
X4091437Y-15810437D01*
X4091437Y-15882563D01*
X4163563Y-15882563D01*
X4163563Y-16136563D02*
X4163563Y-16064437D01*
X4091437Y-16064437D01*
X4091437Y-16136563D01*
X4163563Y-16136563D01*
X4163563Y-16390563D02*
X4163563Y-16318437D01*
X4091437Y-16318437D01*
X4091437Y-16390563D01*
X4163563Y-16390563D01*
X4163563Y-16644563D02*
X4163563Y-16572437D01*
X4091437Y-16572437D01*
X4091437Y-16644563D01*
X4163563Y-16644563D01*
X4163563Y-16898563D02*
X4163563Y-16826437D01*
X4091437Y-16826437D01*
X4091437Y-16898563D01*
X4163563Y-16898563D01*
X4163563Y-17152563D02*
X4163563Y-17080437D01*
X4091437Y-17080437D01*
X4091437Y-17152563D01*
X4163563Y-17152563D01*
X6703563Y-12580563D02*
X6703563Y-12508437D01*
X6631437Y-12508437D01*
X6631437Y-12580563D01*
X6703563Y-12580563D01*
X6703563Y-12834563D02*
X6703563Y-12762437D01*
X6631437Y-12762437D01*
X6631437Y-12834563D01*
X6703563Y-12834563D01*
X6703563Y-13088563D02*
X6703563Y-13016437D01*
X6631437Y-13016437D01*
X6631437Y-13088563D01*
X6703563Y-13088563D01*
X6703563Y-13342563D02*
X6703563Y-13270437D01*
X6631437Y-13270437D01*
X6631437Y-13342563D01*
X6703563Y-13342563D01*
X6703563Y-13596563D02*
X6703563Y-13524437D01*
X6631437Y-13524437D01*
X6631437Y-13596563D01*
X6703563Y-13596563D01*
X6703563Y-13850563D02*
X6703563Y-13778437D01*
X6631437Y-13778437D01*
X6631437Y-13850563D01*
X6703563Y-13850563D01*
X6703563Y-14104563D02*
X6703563Y-14032437D01*
X6631437Y-14032437D01*
X6631437Y-14104563D01*
X6703563Y-14104563D01*
X6703563Y-14358563D02*
X6703563Y-14286437D01*
X6631437Y-14286437D01*
X6631437Y-14358563D01*
X6703563Y-14358563D01*
X6703563Y-14612563D02*
X6703563Y-14540437D01*
X6631437Y-14540437D01*
X6631437Y-14612563D01*
X6703563Y-14612563D01*
X6703563Y-14866563D02*
X6703563Y-14794437D01*
X6631437Y-14794437D01*
X6631437Y-14866563D01*
X6703563Y-14866563D01*
X6703563Y-15120563D02*
X6703563Y-15048437D01*
X6631437Y-15048437D01*
X6631437Y-15120563D01*
X6703563Y-15120563D01*
X6703563Y-15374563D02*
X6703563Y-15302437D01*
X6631437Y-15302437D01*
X6631437Y-15374563D01*
X6703563Y-15374563D01*
X6703563Y-15628563D02*
X6703563Y-15556437D01*
X6631437Y-15556437D01*
X6631437Y-15628563D01*
X6703563Y-15628563D01*
X6703563Y-15882563D02*
X6703563Y-15810437D01*
X6631437Y-15810437D01*
X6631437Y-15882563D01*
X6703563Y-15882563D01*
X6703563Y-16136563D02*
X6703563Y-16064437D01*
X6631437Y-16064437D01*
X6631437Y-16136563D01*
X6703563Y-16136563D01*
X6703563Y-16390563D02*
X6703563Y-16318437D01*
X6631437Y-16318437D01*
X6631437Y-16390563D01*
X6703563Y-16390563D01*
X6703563Y-16644563D02*
X6703563Y-16572437D01*
X6631437Y-16572437D01*
X6631437Y-16644563D01*
X6703563Y-16644563D01*
X6703563Y-16898563D02*
X6703563Y-16826437D01*
X6631437Y-16826437D01*
X6631437Y-16898563D01*
X6703563Y-16898563D01*
X6703563Y-17152563D02*
X6703563Y-17080437D01*
X6631437Y-17080437D01*
X6631437Y-17152563D01*
X6703563Y-17152563D01*
X8672063Y-7084563D02*
X8672063Y-7012437D01*
X8599937Y-7012437D01*
X8599937Y-7084563D01*
X8672063Y-7084563D01*
X8672063Y-7338563D02*
X8672063Y-7266437D01*
X8599937Y-7266437D01*
X8599937Y-7338563D01*
X8672063Y-7338563D01*
X8672063Y-7592563D02*
X8672063Y-7520437D01*
X8599937Y-7520437D01*
X8599937Y-7592563D01*
X8672063Y-7592563D01*
X8672063Y-7846563D02*
X8672063Y-7774437D01*
X8599937Y-7774437D01*
X8599937Y-7846563D01*
X8672063Y-7846563D01*
X8672063Y-8100563D02*
X8672063Y-8028437D01*
X8599937Y-8028437D01*
X8599937Y-8100563D01*
X8672063Y-8100563D01*
X8672063Y-8354563D02*
X8672063Y-8282437D01*
X8599937Y-8282437D01*
X8599937Y-8354563D01*
X8672063Y-8354563D01*
X8672063Y-8608563D02*
X8672063Y-8536437D01*
X8599937Y-8536437D01*
X8599937Y-8608563D01*
X8672063Y-8608563D01*
X8672063Y-8862563D02*
X8672063Y-8790437D01*
X8599937Y-8790437D01*
X8599937Y-8862563D01*
X8672063Y-8862563D01*
X8672063Y-9116563D02*
X8672063Y-9044437D01*
X8599937Y-9044437D01*
X8599937Y-9116563D01*
X8672063Y-9116563D01*
X8672063Y-9370563D02*
X8672063Y-9298437D01*
X8599937Y-9298437D01*
X8599937Y-9370563D01*
X8672063Y-9370563D01*
X8672063Y-9624563D02*
X8672063Y-9552437D01*
X8599937Y-9552437D01*
X8599937Y-9624563D01*
X8672063Y-9624563D01*
X8672063Y-9878563D02*
X8672063Y-9806437D01*
X8599937Y-9806437D01*
X8599937Y-9878563D01*
X8672063Y-9878563D01*
X8672063Y-10132563D02*
X8672063Y-10060437D01*
X8599937Y-10060437D01*
X8599937Y-10132563D01*
X8672063Y-10132563D01*
X8672063Y-10386563D02*
X8672063Y-10314437D01*
X8599937Y-10314437D01*
X8599937Y-10386563D01*
X8672063Y-10386563D01*
X8672063Y-10640563D02*
X8672063Y-10568437D01*
X8599937Y-10568437D01*
X8599937Y-10640563D01*
X8672063Y-10640563D01*
X8672063Y-10894563D02*
X8672063Y-10822437D01*
X8599937Y-10822437D01*
X8599937Y-10894563D01*
X8672063Y-10894563D01*
X8672063Y-11148563D02*
X8672063Y-11076437D01*
X8599937Y-11076437D01*
X8599937Y-11148563D01*
X8672063Y-11148563D01*
X8672063Y-11402563D02*
X8672063Y-11330437D01*
X8599937Y-11330437D01*
X8599937Y-11402563D01*
X8672063Y-11402563D01*
X8672063Y-11656563D02*
X8672063Y-11584437D01*
X8599937Y-11584437D01*
X8599937Y-11656563D01*
X8672063Y-11656563D01*
X8672063Y-11910563D02*
X8672063Y-11838437D01*
X8599937Y-11838437D01*
X8599937Y-11910563D01*
X8672063Y-11910563D01*
X8672063Y-12164563D02*
X8672063Y-12092437D01*
X8599937Y-12092437D01*
X8599937Y-12164563D01*
X8672063Y-12164563D01*
X8672063Y-12418563D02*
X8672063Y-12346437D01*
X8599937Y-12346437D01*
X8599937Y-12418563D01*
X8672063Y-12418563D01*
X8672063Y-12672563D02*
X8672063Y-12600437D01*
X8599937Y-12600437D01*
X8599937Y-12672563D01*
X8672063Y-12672563D01*
X8672063Y-12926563D02*
X8672063Y-12854437D01*
X8599937Y-12854437D01*
X8599937Y-12926563D01*
X8672063Y-12926563D01*
X8672063Y-13180563D02*
X8672063Y-13108437D01*
X8599937Y-13108437D01*
X8599937Y-13180563D01*
X8672063Y-13180563D01*
X8672063Y-13434563D02*
X8672063Y-13362437D01*
X8599937Y-13362437D01*
X8599937Y-13434563D01*
X8672063Y-13434563D01*
X8672063Y-13688563D02*
X8672063Y-13616437D01*
X8599937Y-13616437D01*
X8599937Y-13688563D01*
X8672063Y-13688563D01*
X8672063Y-13942563D02*
X8672063Y-13870437D01*
X8599937Y-13870437D01*
X8599937Y-13942563D01*
X8672063Y-13942563D01*
X8672063Y-14196563D02*
X8672063Y-14124437D01*
X8599937Y-14124437D01*
X8599937Y-14196563D01*
X8672063Y-14196563D01*
X8672063Y-14450563D02*
X8672063Y-14378437D01*
X8599937Y-14378437D01*
X8599937Y-14450563D01*
X8672063Y-14450563D01*
X8672063Y-14704563D02*
X8672063Y-14632437D01*
X8599937Y-14632437D01*
X8599937Y-14704563D01*
X8672063Y-14704563D01*
X8672063Y-14958563D02*
X8672063Y-14886437D01*
X8599937Y-14886437D01*
X8599937Y-14958563D01*
X8672063Y-14958563D01*
X8672063Y-15212563D02*
X8672063Y-15140437D01*
X8599937Y-15140437D01*
X8599937Y-15212563D01*
X8672063Y-15212563D01*
X8672063Y-15466563D02*
X8672063Y-15394437D01*
X8599937Y-15394437D01*
X8599937Y-15466563D01*
X8672063Y-15466563D01*
X8672063Y-15720563D02*
X8672063Y-15648437D01*
X8599937Y-15648437D01*
X8599937Y-15720563D01*
X8672063Y-15720563D01*
X8672063Y-15974563D02*
X8672063Y-15902437D01*
X8599937Y-15902437D01*
X8599937Y-15974563D01*
X8672063Y-15974563D01*
X8926063Y-7084563D02*
X8926063Y-7012437D01*
X8853937Y-7012437D01*
X8853937Y-7084563D01*
X8926063Y-7084563D01*
X8926063Y-7338563D02*
X8926063Y-7266437D01*
X8853937Y-7266437D01*
X8853937Y-7338563D01*
X8926063Y-7338563D01*
X8926063Y-7592563D02*
X8926063Y-7520437D01*
X8853937Y-7520437D01*
X8853937Y-7592563D01*
X8926063Y-7592563D01*
X8926063Y-7846563D02*
X8926063Y-7774437D01*
X8853937Y-7774437D01*
X8853937Y-7846563D01*
X8926063Y-7846563D01*
X8926063Y-8100563D02*
X8926063Y-8028437D01*
X8853937Y-8028437D01*
X8853937Y-8100563D01*
X8926063Y-8100563D01*
X8926063Y-8354563D02*
X8926063Y-8282437D01*
X8853937Y-8282437D01*
X8853937Y-8354563D01*
X8926063Y-8354563D01*
X8926063Y-8608563D02*
X8926063Y-8536437D01*
X8853937Y-8536437D01*
X8853937Y-8608563D01*
X8926063Y-8608563D01*
X8926063Y-8862563D02*
X8926063Y-8790437D01*
X8853937Y-8790437D01*
X8853937Y-8862563D01*
X8926063Y-8862563D01*
X8926063Y-9116563D02*
X8926063Y-9044437D01*
X8853937Y-9044437D01*
X8853937Y-9116563D01*
X8926063Y-9116563D01*
X8926063Y-9370563D02*
X8926063Y-9298437D01*
X8853937Y-9298437D01*
X8853937Y-9370563D01*
X8926063Y-9370563D01*
X8926063Y-9624563D02*
X8926063Y-9552437D01*
X8853937Y-9552437D01*
X8853937Y-9624563D01*
X8926063Y-9624563D01*
X8926063Y-9878563D02*
X8926063Y-9806437D01*
X8853937Y-9806437D01*
X8853937Y-9878563D01*
X8926063Y-9878563D01*
X8926063Y-10132563D02*
X8926063Y-10060437D01*
X8853937Y-10060437D01*
X8853937Y-10132563D01*
X8926063Y-10132563D01*
X8926063Y-10386563D02*
X8926063Y-10314437D01*
X8853937Y-10314437D01*
X8853937Y-10386563D01*
X8926063Y-10386563D01*
X8926063Y-10640563D02*
X8926063Y-10568437D01*
X8853937Y-10568437D01*
X8853937Y-10640563D01*
X8926063Y-10640563D01*
X8926063Y-10894563D02*
X8926063Y-10822437D01*
X8853937Y-10822437D01*
X8853937Y-10894563D01*
X8926063Y-10894563D01*
X8926063Y-11148563D02*
X8926063Y-11076437D01*
X8853937Y-11076437D01*
X8853937Y-11148563D01*
X8926063Y-11148563D01*
X8926063Y-11402563D02*
X8926063Y-11330437D01*
X8853937Y-11330437D01*
X8853937Y-11402563D01*
X8926063Y-11402563D01*
X8926063Y-11656563D02*
X8926063Y-11584437D01*
X8853937Y-11584437D01*
X8853937Y-11656563D01*
X8926063Y-11656563D01*
X8926063Y-11910563D02*
X8926063Y-11838437D01*
X8853937Y-11838437D01*
X8853937Y-11910563D01*
X8926063Y-11910563D01*
X8926063Y-12164563D02*
X8926063Y-12092437D01*
X8853937Y-12092437D01*
X8853937Y-12164563D01*
X8926063Y-12164563D01*
X8926063Y-12418563D02*
X8926063Y-12346437D01*
X8853937Y-12346437D01*
X8853937Y-12418563D01*
X8926063Y-12418563D01*
X8926063Y-12672563D02*
X8926063Y-12600437D01*
X8853937Y-12600437D01*
X8853937Y-12672563D01*
X8926063Y-12672563D01*
X8926063Y-12926563D02*
X8926063Y-12854437D01*
X8853937Y-12854437D01*
X8853937Y-12926563D01*
X8926063Y-12926563D01*
X8926063Y-13180563D02*
X8926063Y-13108437D01*
X8853937Y-13108437D01*
X8853937Y-13180563D01*
X8926063Y-13180563D01*
X8926063Y-13434563D02*
X8926063Y-13362437D01*
X8853937Y-13362437D01*
X8853937Y-13434563D01*
X8926063Y-13434563D01*
X8926063Y-13688563D02*
X8926063Y-13616437D01*
X8853937Y-13616437D01*
X8853937Y-13688563D01*
X8926063Y-13688563D01*
X8926063Y-13942563D02*
X8926063Y-13870437D01*
X8853937Y-13870437D01*
X8853937Y-13942563D01*
X8926063Y-13942563D01*
X8926063Y-14196563D02*
X8926063Y-14124437D01*
X8853937Y-14124437D01*
X8853937Y-14196563D01*
X8926063Y-14196563D01*
X8926063Y-14450563D02*
X8926063Y-14378437D01*
X8853937Y-14378437D01*
X8853937Y-14450563D01*
X8926063Y-14450563D01*
X8926063Y-14704563D02*
X8926063Y-14632437D01*
X8853937Y-14632437D01*
X8853937Y-14704563D01*
X8926063Y-14704563D01*
X8926063Y-14958563D02*
X8926063Y-14886437D01*
X8853937Y-14886437D01*
X8853937Y-14958563D01*
X8926063Y-14958563D01*
X8926063Y-15212563D02*
X8926063Y-15140437D01*
X8853937Y-15140437D01*
X8853937Y-15212563D01*
X8926063Y-15212563D01*
X8926063Y-15466563D02*
X8926063Y-15394437D01*
X8853937Y-15394437D01*
X8853937Y-15466563D01*
X8926063Y-15466563D01*
X8926063Y-15720563D02*
X8926063Y-15648437D01*
X8853937Y-15648437D01*
X8853937Y-15720563D01*
X8926063Y-15720563D01*
X8926063Y-15974563D02*
X8926063Y-15902437D01*
X8853937Y-15902437D01*
X8853937Y-15974563D01*
X8926063Y-15974563D01*
X9434063Y-8100563D02*
X9434063Y-8028437D01*
X9361937Y-8028437D01*
X9361937Y-8100563D01*
X9434063Y-8100563D01*
X9434063Y-8354563D02*
X9434063Y-8282437D01*
X9361937Y-8282437D01*
X9361937Y-8354563D01*
X9434063Y-8354563D01*
X9434063Y-8608563D02*
X9434063Y-8536437D01*
X9361937Y-8536437D01*
X9361937Y-8608563D01*
X9434063Y-8608563D01*
X9434063Y-8862563D02*
X9434063Y-8790437D01*
X9361937Y-8790437D01*
X9361937Y-8862563D01*
X9434063Y-8862563D01*
X9434063Y-9116563D02*
X9434063Y-9044437D01*
X9361937Y-9044437D01*
X9361937Y-9116563D01*
X9434063Y-9116563D01*
X9434063Y-9370563D02*
X9434063Y-9298437D01*
X9361937Y-9298437D01*
X9361937Y-9370563D01*
X9434063Y-9370563D01*
X9434063Y-9624563D02*
X9434063Y-9552437D01*
X9361937Y-9552437D01*
X9361937Y-9624563D01*
X9434063Y-9624563D01*
X9434063Y-9878563D02*
X9434063Y-9806437D01*
X9361937Y-9806437D01*
X9361937Y-9878563D01*
X9434063Y-9878563D01*
X9434063Y-10386563D02*
X9434063Y-10314437D01*
X9361937Y-10314437D01*
X9361937Y-10386563D01*
X9434063Y-10386563D01*
X9434063Y-10640563D02*
X9434063Y-10568437D01*
X9361937Y-10568437D01*
X9361937Y-10640563D01*
X9434063Y-10640563D01*
X9434063Y-10894563D02*
X9434063Y-10822437D01*
X9361937Y-10822437D01*
X9361937Y-10894563D01*
X9434063Y-10894563D01*
X9434063Y-11148563D02*
X9434063Y-11076437D01*
X9361937Y-11076437D01*
X9361937Y-11148563D01*
X9434063Y-11148563D01*
X9434063Y-11402563D02*
X9434063Y-11330437D01*
X9361937Y-11330437D01*
X9361937Y-11402563D01*
X9434063Y-11402563D01*
X9434063Y-11656563D02*
X9434063Y-11584437D01*
X9361937Y-11584437D01*
X9361937Y-11656563D01*
X9434063Y-11656563D01*
X9434063Y-11910563D02*
X9434063Y-11838437D01*
X9361937Y-11838437D01*
X9361937Y-11910563D01*
X9434063Y-11910563D01*
X9434063Y-12164563D02*
X9434063Y-12092437D01*
X9361937Y-12092437D01*
X9361937Y-12164563D01*
X9434063Y-12164563D01*
X9434063Y-12418563D02*
X9434063Y-12346437D01*
X9361937Y-12346437D01*
X9361937Y-12418563D01*
X9434063Y-12418563D01*
X9434063Y-12672563D02*
X9434063Y-12600437D01*
X9361937Y-12600437D01*
X9361937Y-12672563D01*
X9434063Y-12672563D01*
X9434063Y-12926563D02*
X9434063Y-12854437D01*
X9361937Y-12854437D01*
X9361937Y-12926563D01*
X9434063Y-12926563D01*
X9434063Y-13180563D02*
X9434063Y-13108437D01*
X9361937Y-13108437D01*
X9361937Y-13180563D01*
X9434063Y-13180563D01*
X9434063Y-13434563D02*
X9434063Y-13362437D01*
X9361937Y-13362437D01*
X9361937Y-13434563D01*
X9434063Y-13434563D01*
X9434063Y-13688563D02*
X9434063Y-13616437D01*
X9361937Y-13616437D01*
X9361937Y-13688563D01*
X9434063Y-13688563D01*
X9434063Y-13942563D02*
X9434063Y-13870437D01*
X9361937Y-13870437D01*
X9361937Y-13942563D01*
X9434063Y-13942563D01*
X9688063Y-8100563D02*
X9688063Y-8028437D01*
X9615937Y-8028437D01*
X9615937Y-8100563D01*
X9688063Y-8100563D01*
X9688063Y-8354563D02*
X9688063Y-8282437D01*
X9615937Y-8282437D01*
X9615937Y-8354563D01*
X9688063Y-8354563D01*
X9688063Y-8608563D02*
X9688063Y-8536437D01*
X9615937Y-8536437D01*
X9615937Y-8608563D01*
X9688063Y-8608563D01*
X9688063Y-8862563D02*
X9688063Y-8790437D01*
X9615937Y-8790437D01*
X9615937Y-8862563D01*
X9688063Y-8862563D01*
X9688063Y-9116563D02*
X9688063Y-9044437D01*
X9615937Y-9044437D01*
X9615937Y-9116563D01*
X9688063Y-9116563D01*
X9688063Y-9370563D02*
X9688063Y-9298437D01*
X9615937Y-9298437D01*
X9615937Y-9370563D01*
X9688063Y-9370563D01*
X9688063Y-9624563D02*
X9688063Y-9552437D01*
X9615937Y-9552437D01*
X9615937Y-9624563D01*
X9688063Y-9624563D01*
X9688063Y-9878563D02*
X9688063Y-9806437D01*
X9615937Y-9806437D01*
X9615937Y-9878563D01*
X9688063Y-9878563D01*
X9688063Y-10386563D02*
X9688063Y-10314437D01*
X9615937Y-10314437D01*
X9615937Y-10386563D01*
X9688063Y-10386563D01*
X9688063Y-10640563D02*
X9688063Y-10568437D01*
X9615937Y-10568437D01*
X9615937Y-10640563D01*
X9688063Y-10640563D01*
X9688063Y-10894563D02*
X9688063Y-10822437D01*
X9615937Y-10822437D01*
X9615937Y-10894563D01*
X9688063Y-10894563D01*
X9688063Y-11148563D02*
X9688063Y-11076437D01*
X9615937Y-11076437D01*
X9615937Y-11148563D01*
X9688063Y-11148563D01*
X9688063Y-11402563D02*
X9688063Y-11330437D01*
X9615937Y-11330437D01*
X9615937Y-11402563D01*
X9688063Y-11402563D01*
X9688063Y-11656563D02*
X9688063Y-11584437D01*
X9615937Y-11584437D01*
X9615937Y-11656563D01*
X9688063Y-11656563D01*
X9688063Y-11910563D02*
X9688063Y-11838437D01*
X9615937Y-11838437D01*
X9615937Y-11910563D01*
X9688063Y-11910563D01*
X9688063Y-12164563D02*
X9688063Y-12092437D01*
X9615937Y-12092437D01*
X9615937Y-12164563D01*
X9688063Y-12164563D01*
X9688063Y-12418563D02*
X9688063Y-12346437D01*
X9615937Y-12346437D01*
X9615937Y-12418563D01*
X9688063Y-12418563D01*
X9688063Y-12672563D02*
X9688063Y-12600437D01*
X9615937Y-12600437D01*
X9615937Y-12672563D01*
X9688063Y-12672563D01*
X9688063Y-12926563D02*
X9688063Y-12854437D01*
X9615937Y-12854437D01*
X9615937Y-12926563D01*
X9688063Y-12926563D01*
X9688063Y-13180563D02*
X9688063Y-13108437D01*
X9615937Y-13108437D01*
X9615937Y-13180563D01*
X9688063Y-13180563D01*
X9688063Y-13434563D02*
X9688063Y-13362437D01*
X9615937Y-13362437D01*
X9615937Y-13434563D01*
X9688063Y-13434563D01*
X9688063Y-13688563D02*
X9688063Y-13616437D01*
X9615937Y-13616437D01*
X9615937Y-13688563D01*
X9688063Y-13688563D01*
X9688063Y-13942563D02*
X9688063Y-13870437D01*
X9615937Y-13870437D01*
X9615937Y-13942563D01*
X9688063Y-13942563D01*
X14006063Y-7186163D02*
X14006063Y-7114037D01*
X13933937Y-7114037D01*
X13933937Y-7186163D01*
X14006063Y-7186163D01*
X14006063Y-7440163D02*
X14006063Y-7368037D01*
X13933937Y-7368037D01*
X13933937Y-7440163D01*
X14006063Y-7440163D01*
X14006063Y-7694163D02*
X14006063Y-7622037D01*
X13933937Y-7622037D01*
X13933937Y-7694163D01*
X14006063Y-7694163D01*
X14006063Y-7948163D02*
X14006063Y-7876037D01*
X13933937Y-7876037D01*
X13933937Y-7948163D01*
X14006063Y-7948163D01*
X14006063Y-8202163D02*
X14006063Y-8130037D01*
X13933937Y-8130037D01*
X13933937Y-8202163D01*
X14006063Y-8202163D01*
X14006063Y-8456163D02*
X14006063Y-8384037D01*
X13933937Y-8384037D01*
X13933937Y-8456163D01*
X14006063Y-8456163D01*
X14006063Y-8710163D02*
X14006063Y-8638037D01*
X13933937Y-8638037D01*
X13933937Y-8710163D01*
X14006063Y-8710163D01*
X14006063Y-8964163D02*
X14006063Y-8892037D01*
X13933937Y-8892037D01*
X13933937Y-8964163D01*
X14006063Y-8964163D01*
X14006063Y-9218163D02*
X14006063Y-9146037D01*
X13933937Y-9146037D01*
X13933937Y-9218163D01*
X14006063Y-9218163D01*
X14006063Y-9472163D02*
X14006063Y-9400037D01*
X13933937Y-9400037D01*
X13933937Y-9472163D01*
X14006063Y-9472163D01*
X14006063Y-9878563D02*
X14006063Y-9806437D01*
X13933937Y-9806437D01*
X13933937Y-9878563D01*
X14006063Y-9878563D01*
X14006063Y-10132563D02*
X14006063Y-10060437D01*
X13933937Y-10060437D01*
X13933937Y-10132563D01*
X14006063Y-10132563D01*
X14006063Y-10386563D02*
X14006063Y-10314437D01*
X13933937Y-10314437D01*
X13933937Y-10386563D01*
X14006063Y-10386563D01*
X14006063Y-10640563D02*
X14006063Y-10568437D01*
X13933937Y-10568437D01*
X13933937Y-10640563D01*
X14006063Y-10640563D01*
X14006063Y-10894563D02*
X14006063Y-10822437D01*
X13933937Y-10822437D01*
X13933937Y-10894563D01*
X14006063Y-10894563D01*
X14006063Y-11148563D02*
X14006063Y-11076437D01*
X13933937Y-11076437D01*
X13933937Y-11148563D01*
X14006063Y-11148563D01*
X14006063Y-11402563D02*
X14006063Y-11330437D01*
X13933937Y-11330437D01*
X13933937Y-11402563D01*
X14006063Y-11402563D01*
X14006063Y-11656563D02*
X14006063Y-11584437D01*
X13933937Y-11584437D01*
X13933937Y-11656563D01*
X14006063Y-11656563D01*
X14006063Y-11910563D02*
X14006063Y-11838437D01*
X13933937Y-11838437D01*
X13933937Y-11910563D01*
X14006063Y-11910563D01*
X14006063Y-12164563D02*
X14006063Y-12092437D01*
X13933937Y-12092437D01*
X13933937Y-12164563D01*
X14006063Y-12164563D01*
X14006063Y-12418563D02*
X14006063Y-12346437D01*
X13933937Y-12346437D01*
X13933937Y-12418563D01*
X14006063Y-12418563D01*
X14006063Y-12672563D02*
X14006063Y-12600437D01*
X13933937Y-12600437D01*
X13933937Y-12672563D01*
X14006063Y-12672563D01*
X14006063Y-12926563D02*
X14006063Y-12854437D01*
X13933937Y-12854437D01*
X13933937Y-12926563D01*
X14006063Y-12926563D01*
X14006063Y-13180563D02*
X14006063Y-13108437D01*
X13933937Y-13108437D01*
X13933937Y-13180563D01*
X14006063Y-13180563D01*
X14006063Y-13434563D02*
X14006063Y-13362437D01*
X13933937Y-13362437D01*
X13933937Y-13434563D01*
X14006063Y-13434563D01*
X14006063Y-13688563D02*
X14006063Y-13616437D01*
X13933937Y-13616437D01*
X13933937Y-13688563D01*
X14006063Y-13688563D01*
X14006063Y-13942563D02*
X14006063Y-13870437D01*
X13933937Y-13870437D01*
X13933937Y-13942563D01*
X14006063Y-13942563D01*
X14260063Y-7186163D02*
X14260063Y-7114037D01*
X14187937Y-7114037D01*
X14187937Y-7186163D01*
X14260063Y-7186163D01*
X14260063Y-7440163D02*
X14260063Y-7368037D01*
X14187937Y-7368037D01*
X14187937Y-7440163D01*
X14260063Y-7440163D01*
X14260063Y-7694163D02*
X14260063Y-7622037D01*
X14187937Y-7622037D01*
X14187937Y-7694163D01*
X14260063Y-7694163D01*
X14260063Y-7948163D02*
X14260063Y-7876037D01*
X14187937Y-7876037D01*
X14187937Y-7948163D01*
X14260063Y-7948163D01*
X14260063Y-8202163D02*
X14260063Y-8130037D01*
X14187937Y-8130037D01*
X14187937Y-8202163D01*
X14260063Y-8202163D01*
X14260063Y-8456163D02*
X14260063Y-8384037D01*
X14187937Y-8384037D01*
X14187937Y-8456163D01*
X14260063Y-8456163D01*
X14260063Y-8710163D02*
X14260063Y-8638037D01*
X14187937Y-8638037D01*
X14187937Y-8710163D01*
X14260063Y-8710163D01*
X14260063Y-8964163D02*
X14260063Y-8892037D01*
X14187937Y-8892037D01*
X14187937Y-8964163D01*
X14260063Y-8964163D01*
X14260063Y-9218163D02*
X14260063Y-9146037D01*
X14187937Y-9146037D01*
X14187937Y-9218163D01*
X14260063Y-9218163D01*
X14260063Y-9472163D02*
X14260063Y-9400037D01*
X14187937Y-9400037D01*
X14187937Y-9472163D01*
X14260063Y-9472163D01*
X14260063Y-9878563D02*
X14260063Y-9806437D01*
X14187937Y-9806437D01*
X14187937Y-9878563D01*
X14260063Y-9878563D01*
X14260063Y-10132563D02*
X14260063Y-10060437D01*
X14187937Y-10060437D01*
X14187937Y-10132563D01*
X14260063Y-10132563D01*
X14260063Y-10386563D02*
X14260063Y-10314437D01*
X14187937Y-10314437D01*
X14187937Y-10386563D01*
X14260063Y-10386563D01*
X14260063Y-10640563D02*
X14260063Y-10568437D01*
X14187937Y-10568437D01*
X14187937Y-10640563D01*
X14260063Y-10640563D01*
X14260063Y-10894563D02*
X14260063Y-10822437D01*
X14187937Y-10822437D01*
X14187937Y-10894563D01*
X14260063Y-10894563D01*
X14260063Y-11148563D02*
X14260063Y-11076437D01*
X14187937Y-11076437D01*
X14187937Y-11148563D01*
X14260063Y-11148563D01*
X14260063Y-11402563D02*
X14260063Y-11330437D01*
X14187937Y-11330437D01*
X14187937Y-11402563D01*
X14260063Y-11402563D01*
X14260063Y-11656563D02*
X14260063Y-11584437D01*
X14187937Y-11584437D01*
X14187937Y-11656563D01*
X14260063Y-11656563D01*
X14260063Y-11910563D02*
X14260063Y-11838437D01*
X14187937Y-11838437D01*
X14187937Y-11910563D01*
X14260063Y-11910563D01*
X14260063Y-12164563D02*
X14260063Y-12092437D01*
X14187937Y-12092437D01*
X14187937Y-12164563D01*
X14260063Y-12164563D01*
X14260063Y-12418563D02*
X14260063Y-12346437D01*
X14187937Y-12346437D01*
X14187937Y-12418563D01*
X14260063Y-12418563D01*
X14260063Y-12672563D02*
X14260063Y-12600437D01*
X14187937Y-12600437D01*
X14187937Y-12672563D01*
X14260063Y-12672563D01*
X14260063Y-12926563D02*
X14260063Y-12854437D01*
X14187937Y-12854437D01*
X14187937Y-12926563D01*
X14260063Y-12926563D01*
X14260063Y-13180563D02*
X14260063Y-13108437D01*
X14187937Y-13108437D01*
X14187937Y-13180563D01*
X14260063Y-13180563D01*
X14260063Y-13434563D02*
X14260063Y-13362437D01*
X14187937Y-13362437D01*
X14187937Y-13434563D01*
X14260063Y-13434563D01*
X14260063Y-13688563D02*
X14260063Y-13616437D01*
X14187937Y-13616437D01*
X14187937Y-13688563D01*
X14260063Y-13688563D01*
X14260063Y-13942563D02*
X14260063Y-13870437D01*
X14187937Y-13870437D01*
X14187937Y-13942563D01*
X14260063Y-13942563D01*
X14768063Y-7086563D02*
X14768063Y-7014437D01*
X14695937Y-7014437D01*
X14695937Y-7086563D01*
X14768063Y-7086563D01*
X14768063Y-7340563D02*
X14768063Y-7268437D01*
X14695937Y-7268437D01*
X14695937Y-7340563D01*
X14768063Y-7340563D01*
X14768063Y-7594563D02*
X14768063Y-7522437D01*
X14695937Y-7522437D01*
X14695937Y-7594563D01*
X14768063Y-7594563D01*
X14768063Y-7848563D02*
X14768063Y-7776437D01*
X14695937Y-7776437D01*
X14695937Y-7848563D01*
X14768063Y-7848563D01*
X14768063Y-8102563D02*
X14768063Y-8030437D01*
X14695937Y-8030437D01*
X14695937Y-8102563D01*
X14768063Y-8102563D01*
X14768063Y-8356563D02*
X14768063Y-8284437D01*
X14695937Y-8284437D01*
X14695937Y-8356563D01*
X14768063Y-8356563D01*
X14768063Y-8610563D02*
X14768063Y-8538437D01*
X14695937Y-8538437D01*
X14695937Y-8610563D01*
X14768063Y-8610563D01*
X14768063Y-8864563D02*
X14768063Y-8792437D01*
X14695937Y-8792437D01*
X14695937Y-8864563D01*
X14768063Y-8864563D01*
X14768063Y-9118563D02*
X14768063Y-9046437D01*
X14695937Y-9046437D01*
X14695937Y-9118563D01*
X14768063Y-9118563D01*
X14768063Y-9372563D02*
X14768063Y-9300437D01*
X14695937Y-9300437D01*
X14695937Y-9372563D01*
X14768063Y-9372563D01*
X14768063Y-9626563D02*
X14768063Y-9554437D01*
X14695937Y-9554437D01*
X14695937Y-9626563D01*
X14768063Y-9626563D01*
X14768063Y-9880563D02*
X14768063Y-9808437D01*
X14695937Y-9808437D01*
X14695937Y-9880563D01*
X14768063Y-9880563D01*
X14768063Y-10134563D02*
X14768063Y-10062437D01*
X14695937Y-10062437D01*
X14695937Y-10134563D01*
X14768063Y-10134563D01*
X14768063Y-10388563D02*
X14768063Y-10316437D01*
X14695937Y-10316437D01*
X14695937Y-10388563D01*
X14768063Y-10388563D01*
X14768063Y-10642563D02*
X14768063Y-10570437D01*
X14695937Y-10570437D01*
X14695937Y-10642563D01*
X14768063Y-10642563D01*
X14768063Y-10896563D02*
X14768063Y-10824437D01*
X14695937Y-10824437D01*
X14695937Y-10896563D01*
X14768063Y-10896563D01*
X14768063Y-11150563D02*
X14768063Y-11078437D01*
X14695937Y-11078437D01*
X14695937Y-11150563D01*
X14768063Y-11150563D01*
X14768063Y-11404563D02*
X14768063Y-11332437D01*
X14695937Y-11332437D01*
X14695937Y-11404563D01*
X14768063Y-11404563D01*
X14768063Y-11658563D02*
X14768063Y-11586437D01*
X14695937Y-11586437D01*
X14695937Y-11658563D01*
X14768063Y-11658563D01*
X14768063Y-11912563D02*
X14768063Y-11840437D01*
X14695937Y-11840437D01*
X14695937Y-11912563D01*
X14768063Y-11912563D01*
X14768063Y-12166563D02*
X14768063Y-12094437D01*
X14695937Y-12094437D01*
X14695937Y-12166563D01*
X14768063Y-12166563D01*
X14768063Y-12420563D02*
X14768063Y-12348437D01*
X14695937Y-12348437D01*
X14695937Y-12420563D01*
X14768063Y-12420563D01*
X14768063Y-12674563D02*
X14768063Y-12602437D01*
X14695937Y-12602437D01*
X14695937Y-12674563D01*
X14768063Y-12674563D01*
X14768063Y-12928563D02*
X14768063Y-12856437D01*
X14695937Y-12856437D01*
X14695937Y-12928563D01*
X14768063Y-12928563D01*
X14768063Y-13182563D02*
X14768063Y-13110437D01*
X14695937Y-13110437D01*
X14695937Y-13182563D01*
X14768063Y-13182563D01*
X14768063Y-13436563D02*
X14768063Y-13364437D01*
X14695937Y-13364437D01*
X14695937Y-13436563D01*
X14768063Y-13436563D01*
X14768063Y-13690563D02*
X14768063Y-13618437D01*
X14695937Y-13618437D01*
X14695937Y-13690563D01*
X14768063Y-13690563D01*
X14768063Y-13944563D02*
X14768063Y-13872437D01*
X14695937Y-13872437D01*
X14695937Y-13944563D01*
X14768063Y-13944563D01*
X14768063Y-14198563D02*
X14768063Y-14126437D01*
X14695937Y-14126437D01*
X14695937Y-14198563D01*
X14768063Y-14198563D01*
X14768063Y-14452563D02*
X14768063Y-14380437D01*
X14695937Y-14380437D01*
X14695937Y-14452563D01*
X14768063Y-14452563D01*
X14768063Y-14706563D02*
X14768063Y-14634437D01*
X14695937Y-14634437D01*
X14695937Y-14706563D01*
X14768063Y-14706563D01*
X14768063Y-14960563D02*
X14768063Y-14888437D01*
X14695937Y-14888437D01*
X14695937Y-14960563D01*
X14768063Y-14960563D01*
X14768063Y-15214563D02*
X14768063Y-15142437D01*
X14695937Y-15142437D01*
X14695937Y-15214563D01*
X14768063Y-15214563D01*
X14768063Y-15468563D02*
X14768063Y-15396437D01*
X14695937Y-15396437D01*
X14695937Y-15468563D01*
X14768063Y-15468563D01*
X14768063Y-15722563D02*
X14768063Y-15650437D01*
X14695937Y-15650437D01*
X14695937Y-15722563D01*
X14768063Y-15722563D01*
X14768063Y-15976563D02*
X14768063Y-15904437D01*
X14695937Y-15904437D01*
X14695937Y-15976563D01*
X14768063Y-15976563D01*
X15022063Y-7086563D02*
X15022063Y-7014437D01*
X14949937Y-7014437D01*
X14949937Y-7086563D01*
X15022063Y-7086563D01*
X15022063Y-7340563D02*
X15022063Y-7268437D01*
X14949937Y-7268437D01*
X14949937Y-7340563D01*
X15022063Y-7340563D01*
X15022063Y-7594563D02*
X15022063Y-7522437D01*
X14949937Y-7522437D01*
X14949937Y-7594563D01*
X15022063Y-7594563D01*
X15022063Y-7848563D02*
X15022063Y-7776437D01*
X14949937Y-7776437D01*
X14949937Y-7848563D01*
X15022063Y-7848563D01*
X15022063Y-8102563D02*
X15022063Y-8030437D01*
X14949937Y-8030437D01*
X14949937Y-8102563D01*
X15022063Y-8102563D01*
X15022063Y-8356563D02*
X15022063Y-8284437D01*
X14949937Y-8284437D01*
X14949937Y-8356563D01*
X15022063Y-8356563D01*
X15022063Y-8610563D02*
X15022063Y-8538437D01*
X14949937Y-8538437D01*
X14949937Y-8610563D01*
X15022063Y-8610563D01*
X15022063Y-8864563D02*
X15022063Y-8792437D01*
X14949937Y-8792437D01*
X14949937Y-8864563D01*
X15022063Y-8864563D01*
X15022063Y-9118563D02*
X15022063Y-9046437D01*
X14949937Y-9046437D01*
X14949937Y-9118563D01*
X15022063Y-9118563D01*
X15022063Y-9372563D02*
X15022063Y-9300437D01*
X14949937Y-9300437D01*
X14949937Y-9372563D01*
X15022063Y-9372563D01*
X15022063Y-9626563D02*
X15022063Y-9554437D01*
X14949937Y-9554437D01*
X14949937Y-9626563D01*
X15022063Y-9626563D01*
X15022063Y-9880563D02*
X15022063Y-9808437D01*
X14949937Y-9808437D01*
X14949937Y-9880563D01*
X15022063Y-9880563D01*
X15022063Y-10134563D02*
X15022063Y-10062437D01*
X14949937Y-10062437D01*
X14949937Y-10134563D01*
X15022063Y-10134563D01*
X15022063Y-10388563D02*
X15022063Y-10316437D01*
X14949937Y-10316437D01*
X14949937Y-10388563D01*
X15022063Y-10388563D01*
X15022063Y-10642563D02*
X15022063Y-10570437D01*
X14949937Y-10570437D01*
X14949937Y-10642563D01*
X15022063Y-10642563D01*
X15022063Y-10896563D02*
X15022063Y-10824437D01*
X14949937Y-10824437D01*
X14949937Y-10896563D01*
X15022063Y-10896563D01*
X15022063Y-11150563D02*
X15022063Y-11078437D01*
X14949937Y-11078437D01*
X14949937Y-11150563D01*
X15022063Y-11150563D01*
X15022063Y-11404563D02*
X15022063Y-11332437D01*
X14949937Y-11332437D01*
X14949937Y-11404563D01*
X15022063Y-11404563D01*
X15022063Y-11658563D02*
X15022063Y-11586437D01*
X14949937Y-11586437D01*
X14949937Y-11658563D01*
X15022063Y-11658563D01*
X15022063Y-11912563D02*
X15022063Y-11840437D01*
X14949937Y-11840437D01*
X14949937Y-11912563D01*
X15022063Y-11912563D01*
X15022063Y-12166563D02*
X15022063Y-12094437D01*
X14949937Y-12094437D01*
X14949937Y-12166563D01*
X15022063Y-12166563D01*
X15022063Y-12420563D02*
X15022063Y-12348437D01*
X14949937Y-12348437D01*
X14949937Y-12420563D01*
X15022063Y-12420563D01*
X15022063Y-12674563D02*
X15022063Y-12602437D01*
X14949937Y-12602437D01*
X14949937Y-12674563D01*
X15022063Y-12674563D01*
X15022063Y-12928563D02*
X15022063Y-12856437D01*
X14949937Y-12856437D01*
X14949937Y-12928563D01*
X15022063Y-12928563D01*
X15022063Y-13182563D02*
X15022063Y-13110437D01*
X14949937Y-13110437D01*
X14949937Y-13182563D01*
X15022063Y-13182563D01*
X15022063Y-13436563D02*
X15022063Y-13364437D01*
X14949937Y-13364437D01*
X14949937Y-13436563D01*
X15022063Y-13436563D01*
X15022063Y-13690563D02*
X15022063Y-13618437D01*
X14949937Y-13618437D01*
X14949937Y-13690563D01*
X15022063Y-13690563D01*
X15022063Y-13944563D02*
X15022063Y-13872437D01*
X14949937Y-13872437D01*
X14949937Y-13944563D01*
X15022063Y-13944563D01*
X15022063Y-14198563D02*
X15022063Y-14126437D01*
X14949937Y-14126437D01*
X14949937Y-14198563D01*
X15022063Y-14198563D01*
X15022063Y-14452563D02*
X15022063Y-14380437D01*
X14949937Y-14380437D01*
X14949937Y-14452563D01*
X15022063Y-14452563D01*
X15022063Y-14706563D02*
X15022063Y-14634437D01*
X14949937Y-14634437D01*
X14949937Y-14706563D01*
X15022063Y-14706563D01*
X15022063Y-14960563D02*
X15022063Y-14888437D01*
X14949937Y-14888437D01*
X14949937Y-14960563D01*
X15022063Y-14960563D01*
X15022063Y-15214563D02*
X15022063Y-15142437D01*
X14949937Y-15142437D01*
X14949937Y-15214563D01*
X15022063Y-15214563D01*
X15022063Y-15468563D02*
X15022063Y-15396437D01*
X14949937Y-15396437D01*
X14949937Y-15468563D01*
X15022063Y-15468563D01*
X15022063Y-15722563D02*
X15022063Y-15650437D01*
X14949937Y-15650437D01*
X14949937Y-15722563D01*
X15022063Y-15722563D01*
X15022063Y-15976563D02*
X15022063Y-15904437D01*
X14949937Y-15904437D01*
X14949937Y-15976563D01*
X15022063Y-15976563D01*
D10*
X3298777Y-17593484D02*
X3298777Y-17393484D01*
X3298777Y-17393484D02*
X3346396Y-17393484D01*
X3346396Y-17393484D02*
X3374967Y-17403008D01*
X3374967Y-17403008D02*
X3394015Y-17422055D01*
X3394015Y-17422055D02*
X3403539Y-17441103D01*
X3403539Y-17441103D02*
X3413062Y-17479198D01*
X3413062Y-17479198D02*
X3413062Y-17507770D01*
X3413062Y-17507770D02*
X3403539Y-17545865D01*
X3403539Y-17545865D02*
X3394015Y-17564912D01*
X3394015Y-17564912D02*
X3374967Y-17583960D01*
X3374967Y-17583960D02*
X3346396Y-17593484D01*
X3346396Y-17593484D02*
X3298777Y-17593484D01*
X3498777Y-17593484D02*
X3498777Y-17460150D01*
X3498777Y-17498246D02*
X3508301Y-17479198D01*
X3508301Y-17479198D02*
X3517824Y-17469674D01*
X3517824Y-17469674D02*
X3536872Y-17460150D01*
X3536872Y-17460150D02*
X3555920Y-17460150D01*
X3622586Y-17593484D02*
X3622586Y-17460150D01*
X3622586Y-17393484D02*
X3613062Y-17403008D01*
X3613062Y-17403008D02*
X3622586Y-17412531D01*
X3622586Y-17412531D02*
X3632110Y-17403008D01*
X3632110Y-17403008D02*
X3622586Y-17393484D01*
X3622586Y-17393484D02*
X3622586Y-17412531D01*
X3746396Y-17593484D02*
X3727348Y-17583960D01*
X3727348Y-17583960D02*
X3717824Y-17564912D01*
X3717824Y-17564912D02*
X3717824Y-17393484D01*
X3851158Y-17593484D02*
X3832110Y-17583960D01*
X3832110Y-17583960D02*
X3822586Y-17564912D01*
X3822586Y-17564912D02*
X3822586Y-17393484D01*
X4079729Y-17593484D02*
X4079729Y-17393484D01*
X4079729Y-17393484D02*
X4146396Y-17536341D01*
X4146396Y-17536341D02*
X4213063Y-17393484D01*
X4213063Y-17393484D02*
X4213063Y-17593484D01*
X4394015Y-17593484D02*
X4394015Y-17488722D01*
X4394015Y-17488722D02*
X4384491Y-17469674D01*
X4384491Y-17469674D02*
X4365444Y-17460150D01*
X4365444Y-17460150D02*
X4327348Y-17460150D01*
X4327348Y-17460150D02*
X4308301Y-17469674D01*
X4394015Y-17583960D02*
X4374967Y-17593484D01*
X4374967Y-17593484D02*
X4327348Y-17593484D01*
X4327348Y-17593484D02*
X4308301Y-17583960D01*
X4308301Y-17583960D02*
X4298777Y-17564912D01*
X4298777Y-17564912D02*
X4298777Y-17545865D01*
X4298777Y-17545865D02*
X4308301Y-17526817D01*
X4308301Y-17526817D02*
X4327348Y-17517293D01*
X4327348Y-17517293D02*
X4374967Y-17517293D01*
X4374967Y-17517293D02*
X4394015Y-17507770D01*
X4489253Y-17460150D02*
X4489253Y-17660150D01*
X4489253Y-17469674D02*
X4508301Y-17460150D01*
X4508301Y-17460150D02*
X4546396Y-17460150D01*
X4546396Y-17460150D02*
X4565444Y-17469674D01*
X4565444Y-17469674D02*
X4574967Y-17479198D01*
X4574967Y-17479198D02*
X4584491Y-17498246D01*
X4584491Y-17498246D02*
X4584491Y-17555389D01*
X4584491Y-17555389D02*
X4574967Y-17574436D01*
X4574967Y-17574436D02*
X4565444Y-17583960D01*
X4565444Y-17583960D02*
X4546396Y-17593484D01*
X4546396Y-17593484D02*
X4508301Y-17593484D01*
X4508301Y-17593484D02*
X4489253Y-17583960D01*
X4670205Y-17574436D02*
X4679729Y-17583960D01*
X4679729Y-17583960D02*
X4670205Y-17593484D01*
X4670205Y-17593484D02*
X4660682Y-17583960D01*
X4660682Y-17583960D02*
X4670205Y-17574436D01*
X4670205Y-17574436D02*
X4670205Y-17593484D01*
X4670205Y-17469674D02*
X4679729Y-17479198D01*
X4679729Y-17479198D02*
X4670205Y-17488722D01*
X4670205Y-17488722D02*
X4660682Y-17479198D01*
X4660682Y-17479198D02*
X4670205Y-17469674D01*
X4670205Y-17469674D02*
X4670205Y-17488722D01*
D11*
X2998000Y-17902000D02*
X3038000Y-17942000D01*
X3038000Y-17902000D02*
X2998000Y-17942000D01*
D10*
X3336872Y-17813484D02*
X3355920Y-17813484D01*
X3355920Y-17813484D02*
X3374967Y-17823008D01*
X3374967Y-17823008D02*
X3384491Y-17832531D01*
X3384491Y-17832531D02*
X3394015Y-17851579D01*
X3394015Y-17851579D02*
X3403539Y-17889674D01*
X3403539Y-17889674D02*
X3403539Y-17937293D01*
X3403539Y-17937293D02*
X3394015Y-17975389D01*
X3394015Y-17975389D02*
X3384491Y-17994436D01*
X3384491Y-17994436D02*
X3374967Y-18003960D01*
X3374967Y-18003960D02*
X3355920Y-18013484D01*
X3355920Y-18013484D02*
X3336872Y-18013484D01*
X3336872Y-18013484D02*
X3317824Y-18003960D01*
X3317824Y-18003960D02*
X3308301Y-17994436D01*
X3308301Y-17994436D02*
X3298777Y-17975389D01*
X3298777Y-17975389D02*
X3289253Y-17937293D01*
X3289253Y-17937293D02*
X3289253Y-17889674D01*
X3289253Y-17889674D02*
X3298777Y-17851579D01*
X3298777Y-17851579D02*
X3308301Y-17832531D01*
X3308301Y-17832531D02*
X3317824Y-17823008D01*
X3317824Y-17823008D02*
X3336872Y-17813484D01*
X3489253Y-17994436D02*
X3498777Y-18003960D01*
X3498777Y-18003960D02*
X3489253Y-18013484D01*
X3489253Y-18013484D02*
X3479729Y-18003960D01*
X3479729Y-18003960D02*
X3489253Y-17994436D01*
X3489253Y-17994436D02*
X3489253Y-18013484D01*
X3670205Y-17880150D02*
X3670205Y-18013484D01*
X3622586Y-17803960D02*
X3574967Y-17946817D01*
X3574967Y-17946817D02*
X3698777Y-17946817D01*
X3813062Y-17813484D02*
X3832110Y-17813484D01*
X3832110Y-17813484D02*
X3851158Y-17823008D01*
X3851158Y-17823008D02*
X3860682Y-17832531D01*
X3860682Y-17832531D02*
X3870205Y-17851579D01*
X3870205Y-17851579D02*
X3879729Y-17889674D01*
X3879729Y-17889674D02*
X3879729Y-17937293D01*
X3879729Y-17937293D02*
X3870205Y-17975389D01*
X3870205Y-17975389D02*
X3860682Y-17994436D01*
X3860682Y-17994436D02*
X3851158Y-18003960D01*
X3851158Y-18003960D02*
X3832110Y-18013484D01*
X3832110Y-18013484D02*
X3813062Y-18013484D01*
X3813062Y-18013484D02*
X3794015Y-18003960D01*
X3794015Y-18003960D02*
X3784491Y-17994436D01*
X3784491Y-17994436D02*
X3774967Y-17975389D01*
X3774967Y-17975389D02*
X3765443Y-17937293D01*
X3765443Y-17937293D02*
X3765443Y-17889674D01*
X3765443Y-17889674D02*
X3774967Y-17851579D01*
X3774967Y-17851579D02*
X3784491Y-17832531D01*
X3784491Y-17832531D02*
X3794015Y-17823008D01*
X3794015Y-17823008D02*
X3813062Y-17813484D01*
X4003539Y-17813484D02*
X4022586Y-17813484D01*
X4022586Y-17813484D02*
X4041634Y-17823008D01*
X4041634Y-17823008D02*
X4051158Y-17832531D01*
X4051158Y-17832531D02*
X4060682Y-17851579D01*
X4060682Y-17851579D02*
X4070205Y-17889674D01*
X4070205Y-17889674D02*
X4070205Y-17937293D01*
X4070205Y-17937293D02*
X4060682Y-17975389D01*
X4060682Y-17975389D02*
X4051158Y-17994436D01*
X4051158Y-17994436D02*
X4041634Y-18003960D01*
X4041634Y-18003960D02*
X4022586Y-18013484D01*
X4022586Y-18013484D02*
X4003539Y-18013484D01*
X4003539Y-18013484D02*
X3984491Y-18003960D01*
X3984491Y-18003960D02*
X3974967Y-17994436D01*
X3974967Y-17994436D02*
X3965443Y-17975389D01*
X3965443Y-17975389D02*
X3955920Y-17937293D01*
X3955920Y-17937293D02*
X3955920Y-17889674D01*
X3955920Y-17889674D02*
X3965443Y-17851579D01*
X3965443Y-17851579D02*
X3974967Y-17832531D01*
X3974967Y-17832531D02*
X3984491Y-17823008D01*
X3984491Y-17823008D02*
X4003539Y-17813484D01*
X4155920Y-18013484D02*
X4155920Y-17880150D01*
X4155920Y-17899198D02*
X4165443Y-17889674D01*
X4165443Y-17889674D02*
X4184491Y-17880150D01*
X4184491Y-17880150D02*
X4213063Y-17880150D01*
X4213063Y-17880150D02*
X4232110Y-17889674D01*
X4232110Y-17889674D02*
X4241634Y-17908722D01*
X4241634Y-17908722D02*
X4241634Y-18013484D01*
X4241634Y-17908722D02*
X4251158Y-17889674D01*
X4251158Y-17889674D02*
X4270205Y-17880150D01*
X4270205Y-17880150D02*
X4298777Y-17880150D01*
X4298777Y-17880150D02*
X4317825Y-17889674D01*
X4317825Y-17889674D02*
X4327348Y-17908722D01*
X4327348Y-17908722D02*
X4327348Y-18013484D01*
X4422586Y-18013484D02*
X4422586Y-17880150D01*
X4422586Y-17899198D02*
X4432110Y-17889674D01*
X4432110Y-17889674D02*
X4451158Y-17880150D01*
X4451158Y-17880150D02*
X4479729Y-17880150D01*
X4479729Y-17880150D02*
X4498777Y-17889674D01*
X4498777Y-17889674D02*
X4508301Y-17908722D01*
X4508301Y-17908722D02*
X4508301Y-18013484D01*
X4508301Y-17908722D02*
X4517825Y-17889674D01*
X4517825Y-17889674D02*
X4536872Y-17880150D01*
X4536872Y-17880150D02*
X4565444Y-17880150D01*
X4565444Y-17880150D02*
X4584491Y-17889674D01*
X4584491Y-17889674D02*
X4594015Y-17908722D01*
X4594015Y-17908722D02*
X4594015Y-18013484D01*
X4984491Y-17803960D02*
X4813063Y-18061103D01*
X5241634Y-17813484D02*
X5260682Y-17813484D01*
X5260682Y-17813484D02*
X5279729Y-17823008D01*
X5279729Y-17823008D02*
X5289253Y-17832531D01*
X5289253Y-17832531D02*
X5298777Y-17851579D01*
X5298777Y-17851579D02*
X5308301Y-17889674D01*
X5308301Y-17889674D02*
X5308301Y-17937293D01*
X5308301Y-17937293D02*
X5298777Y-17975389D01*
X5298777Y-17975389D02*
X5289253Y-17994436D01*
X5289253Y-17994436D02*
X5279729Y-18003960D01*
X5279729Y-18003960D02*
X5260682Y-18013484D01*
X5260682Y-18013484D02*
X5241634Y-18013484D01*
X5241634Y-18013484D02*
X5222587Y-18003960D01*
X5222587Y-18003960D02*
X5213063Y-17994436D01*
X5213063Y-17994436D02*
X5203539Y-17975389D01*
X5203539Y-17975389D02*
X5194015Y-17937293D01*
X5194015Y-17937293D02*
X5194015Y-17889674D01*
X5194015Y-17889674D02*
X5203539Y-17851579D01*
X5203539Y-17851579D02*
X5213063Y-17832531D01*
X5213063Y-17832531D02*
X5222587Y-17823008D01*
X5222587Y-17823008D02*
X5241634Y-17813484D01*
X5394015Y-17994436D02*
X5403539Y-18003960D01*
X5403539Y-18003960D02*
X5394015Y-18013484D01*
X5394015Y-18013484D02*
X5384491Y-18003960D01*
X5384491Y-18003960D02*
X5394015Y-17994436D01*
X5394015Y-17994436D02*
X5394015Y-18013484D01*
X5527348Y-17813484D02*
X5546396Y-17813484D01*
X5546396Y-17813484D02*
X5565444Y-17823008D01*
X5565444Y-17823008D02*
X5574968Y-17832531D01*
X5574968Y-17832531D02*
X5584491Y-17851579D01*
X5584491Y-17851579D02*
X5594015Y-17889674D01*
X5594015Y-17889674D02*
X5594015Y-17937293D01*
X5594015Y-17937293D02*
X5584491Y-17975389D01*
X5584491Y-17975389D02*
X5574968Y-17994436D01*
X5574968Y-17994436D02*
X5565444Y-18003960D01*
X5565444Y-18003960D02*
X5546396Y-18013484D01*
X5546396Y-18013484D02*
X5527348Y-18013484D01*
X5527348Y-18013484D02*
X5508301Y-18003960D01*
X5508301Y-18003960D02*
X5498777Y-17994436D01*
X5498777Y-17994436D02*
X5489253Y-17975389D01*
X5489253Y-17975389D02*
X5479729Y-17937293D01*
X5479729Y-17937293D02*
X5479729Y-17889674D01*
X5479729Y-17889674D02*
X5489253Y-17851579D01*
X5489253Y-17851579D02*
X5498777Y-17832531D01*
X5498777Y-17832531D02*
X5508301Y-17823008D01*
X5508301Y-17823008D02*
X5527348Y-17813484D01*
X5784491Y-18013484D02*
X5670206Y-18013484D01*
X5727348Y-18013484D02*
X5727348Y-17813484D01*
X5727348Y-17813484D02*
X5708301Y-17842055D01*
X5708301Y-17842055D02*
X5689253Y-17861103D01*
X5689253Y-17861103D02*
X5670206Y-17870627D01*
X5965444Y-17813484D02*
X5870206Y-17813484D01*
X5870206Y-17813484D02*
X5860682Y-17908722D01*
X5860682Y-17908722D02*
X5870206Y-17899198D01*
X5870206Y-17899198D02*
X5889253Y-17889674D01*
X5889253Y-17889674D02*
X5936872Y-17889674D01*
X5936872Y-17889674D02*
X5955920Y-17899198D01*
X5955920Y-17899198D02*
X5965444Y-17908722D01*
X5965444Y-17908722D02*
X5974967Y-17927770D01*
X5974967Y-17927770D02*
X5974967Y-17975389D01*
X5974967Y-17975389D02*
X5965444Y-17994436D01*
X5965444Y-17994436D02*
X5955920Y-18003960D01*
X5955920Y-18003960D02*
X5936872Y-18013484D01*
X5936872Y-18013484D02*
X5889253Y-18013484D01*
X5889253Y-18013484D02*
X5870206Y-18003960D01*
X5870206Y-18003960D02*
X5860682Y-17994436D01*
X6041634Y-17813484D02*
X6174967Y-17813484D01*
X6174967Y-17813484D02*
X6089253Y-18013484D01*
X6241634Y-17813484D02*
X6241634Y-17851579D01*
X6317825Y-17813484D02*
X6317825Y-17851579D01*
X6613063Y-18089674D02*
X6603539Y-18080150D01*
X6603539Y-18080150D02*
X6584491Y-18051579D01*
X6584491Y-18051579D02*
X6574968Y-18032531D01*
X6574968Y-18032531D02*
X6565444Y-18003960D01*
X6565444Y-18003960D02*
X6555920Y-17956341D01*
X6555920Y-17956341D02*
X6555920Y-17918246D01*
X6555920Y-17918246D02*
X6565444Y-17870627D01*
X6565444Y-17870627D02*
X6574968Y-17842055D01*
X6574968Y-17842055D02*
X6584491Y-17823008D01*
X6584491Y-17823008D02*
X6603539Y-17794436D01*
X6603539Y-17794436D02*
X6613063Y-17784912D01*
X6794015Y-18013484D02*
X6679729Y-18013484D01*
X6736872Y-18013484D02*
X6736872Y-17813484D01*
X6736872Y-17813484D02*
X6717825Y-17842055D01*
X6717825Y-17842055D02*
X6698777Y-17861103D01*
X6698777Y-17861103D02*
X6679729Y-17870627D01*
X6860682Y-17813484D02*
X6994015Y-17813484D01*
X6994015Y-17813484D02*
X6908301Y-18013484D01*
X7222587Y-18013484D02*
X7222587Y-17813484D01*
X7308301Y-18013484D02*
X7308301Y-17908722D01*
X7308301Y-17908722D02*
X7298777Y-17889674D01*
X7298777Y-17889674D02*
X7279730Y-17880150D01*
X7279730Y-17880150D02*
X7251158Y-17880150D01*
X7251158Y-17880150D02*
X7232110Y-17889674D01*
X7232110Y-17889674D02*
X7222587Y-17899198D01*
X7432110Y-18013484D02*
X7413063Y-18003960D01*
X7413063Y-18003960D02*
X7403539Y-17994436D01*
X7403539Y-17994436D02*
X7394015Y-17975389D01*
X7394015Y-17975389D02*
X7394015Y-17918246D01*
X7394015Y-17918246D02*
X7403539Y-17899198D01*
X7403539Y-17899198D02*
X7413063Y-17889674D01*
X7413063Y-17889674D02*
X7432110Y-17880150D01*
X7432110Y-17880150D02*
X7460682Y-17880150D01*
X7460682Y-17880150D02*
X7479730Y-17889674D01*
X7479730Y-17889674D02*
X7489253Y-17899198D01*
X7489253Y-17899198D02*
X7498777Y-17918246D01*
X7498777Y-17918246D02*
X7498777Y-17975389D01*
X7498777Y-17975389D02*
X7489253Y-17994436D01*
X7489253Y-17994436D02*
X7479730Y-18003960D01*
X7479730Y-18003960D02*
X7460682Y-18013484D01*
X7460682Y-18013484D02*
X7432110Y-18013484D01*
X7613063Y-18013484D02*
X7594015Y-18003960D01*
X7594015Y-18003960D02*
X7584491Y-17984912D01*
X7584491Y-17984912D02*
X7584491Y-17813484D01*
X7765444Y-18003960D02*
X7746396Y-18013484D01*
X7746396Y-18013484D02*
X7708301Y-18013484D01*
X7708301Y-18013484D02*
X7689253Y-18003960D01*
X7689253Y-18003960D02*
X7679730Y-17984912D01*
X7679730Y-17984912D02*
X7679730Y-17908722D01*
X7679730Y-17908722D02*
X7689253Y-17889674D01*
X7689253Y-17889674D02*
X7708301Y-17880150D01*
X7708301Y-17880150D02*
X7746396Y-17880150D01*
X7746396Y-17880150D02*
X7765444Y-17889674D01*
X7765444Y-17889674D02*
X7774968Y-17908722D01*
X7774968Y-17908722D02*
X7774968Y-17927770D01*
X7774968Y-17927770D02*
X7679730Y-17946817D01*
X7851158Y-18003960D02*
X7870206Y-18013484D01*
X7870206Y-18013484D02*
X7908301Y-18013484D01*
X7908301Y-18013484D02*
X7927349Y-18003960D01*
X7927349Y-18003960D02*
X7936872Y-17984912D01*
X7936872Y-17984912D02*
X7936872Y-17975389D01*
X7936872Y-17975389D02*
X7927349Y-17956341D01*
X7927349Y-17956341D02*
X7908301Y-17946817D01*
X7908301Y-17946817D02*
X7879730Y-17946817D01*
X7879730Y-17946817D02*
X7860682Y-17937293D01*
X7860682Y-17937293D02*
X7851158Y-17918246D01*
X7851158Y-17918246D02*
X7851158Y-17908722D01*
X7851158Y-17908722D02*
X7860682Y-17889674D01*
X7860682Y-17889674D02*
X7879730Y-17880150D01*
X7879730Y-17880150D02*
X7908301Y-17880150D01*
X7908301Y-17880150D02*
X7927349Y-17889674D01*
X8003539Y-18089674D02*
X8013063Y-18080150D01*
X8013063Y-18080150D02*
X8032111Y-18051579D01*
X8032111Y-18051579D02*
X8041634Y-18032531D01*
X8041634Y-18032531D02*
X8051158Y-18003960D01*
X8051158Y-18003960D02*
X8060682Y-17956341D01*
X8060682Y-17956341D02*
X8060682Y-17918246D01*
X8060682Y-17918246D02*
X8051158Y-17870627D01*
X8051158Y-17870627D02*
X8041634Y-17842055D01*
X8041634Y-17842055D02*
X8032111Y-17823008D01*
X8032111Y-17823008D02*
X8013063Y-17794436D01*
X8013063Y-17794436D02*
X8003539Y-17784912D01*
D11*
X3038000Y-18186000D02*
G75*
G03*
X2963000Y-18186000I-37500J0D01*
G01*
X2963000Y-18186000D02*
G75*
G03*
X3038000Y-18186000I37500J0D01*
G01*
D10*
X3336872Y-18077484D02*
X3355920Y-18077484D01*
X3355920Y-18077484D02*
X3374967Y-18087008D01*
X3374967Y-18087008D02*
X3384491Y-18096531D01*
X3384491Y-18096531D02*
X3394015Y-18115579D01*
X3394015Y-18115579D02*
X3403539Y-18153674D01*
X3403539Y-18153674D02*
X3403539Y-18201293D01*
X3403539Y-18201293D02*
X3394015Y-18239389D01*
X3394015Y-18239389D02*
X3384491Y-18258436D01*
X3384491Y-18258436D02*
X3374967Y-18267960D01*
X3374967Y-18267960D02*
X3355920Y-18277484D01*
X3355920Y-18277484D02*
X3336872Y-18277484D01*
X3336872Y-18277484D02*
X3317824Y-18267960D01*
X3317824Y-18267960D02*
X3308301Y-18258436D01*
X3308301Y-18258436D02*
X3298777Y-18239389D01*
X3298777Y-18239389D02*
X3289253Y-18201293D01*
X3289253Y-18201293D02*
X3289253Y-18153674D01*
X3289253Y-18153674D02*
X3298777Y-18115579D01*
X3298777Y-18115579D02*
X3308301Y-18096531D01*
X3308301Y-18096531D02*
X3317824Y-18087008D01*
X3317824Y-18087008D02*
X3336872Y-18077484D01*
X3489253Y-18258436D02*
X3498777Y-18267960D01*
X3498777Y-18267960D02*
X3489253Y-18277484D01*
X3489253Y-18277484D02*
X3479729Y-18267960D01*
X3479729Y-18267960D02*
X3489253Y-18258436D01*
X3489253Y-18258436D02*
X3489253Y-18277484D01*
X3565443Y-18077484D02*
X3698777Y-18077484D01*
X3698777Y-18077484D02*
X3613062Y-18277484D01*
X3870205Y-18077484D02*
X3774967Y-18077484D01*
X3774967Y-18077484D02*
X3765443Y-18172722D01*
X3765443Y-18172722D02*
X3774967Y-18163198D01*
X3774967Y-18163198D02*
X3794015Y-18153674D01*
X3794015Y-18153674D02*
X3841634Y-18153674D01*
X3841634Y-18153674D02*
X3860682Y-18163198D01*
X3860682Y-18163198D02*
X3870205Y-18172722D01*
X3870205Y-18172722D02*
X3879729Y-18191770D01*
X3879729Y-18191770D02*
X3879729Y-18239389D01*
X3879729Y-18239389D02*
X3870205Y-18258436D01*
X3870205Y-18258436D02*
X3860682Y-18267960D01*
X3860682Y-18267960D02*
X3841634Y-18277484D01*
X3841634Y-18277484D02*
X3794015Y-18277484D01*
X3794015Y-18277484D02*
X3774967Y-18267960D01*
X3774967Y-18267960D02*
X3765443Y-18258436D01*
X4003539Y-18077484D02*
X4022586Y-18077484D01*
X4022586Y-18077484D02*
X4041634Y-18087008D01*
X4041634Y-18087008D02*
X4051158Y-18096531D01*
X4051158Y-18096531D02*
X4060682Y-18115579D01*
X4060682Y-18115579D02*
X4070205Y-18153674D01*
X4070205Y-18153674D02*
X4070205Y-18201293D01*
X4070205Y-18201293D02*
X4060682Y-18239389D01*
X4060682Y-18239389D02*
X4051158Y-18258436D01*
X4051158Y-18258436D02*
X4041634Y-18267960D01*
X4041634Y-18267960D02*
X4022586Y-18277484D01*
X4022586Y-18277484D02*
X4003539Y-18277484D01*
X4003539Y-18277484D02*
X3984491Y-18267960D01*
X3984491Y-18267960D02*
X3974967Y-18258436D01*
X3974967Y-18258436D02*
X3965443Y-18239389D01*
X3965443Y-18239389D02*
X3955920Y-18201293D01*
X3955920Y-18201293D02*
X3955920Y-18153674D01*
X3955920Y-18153674D02*
X3965443Y-18115579D01*
X3965443Y-18115579D02*
X3974967Y-18096531D01*
X3974967Y-18096531D02*
X3984491Y-18087008D01*
X3984491Y-18087008D02*
X4003539Y-18077484D01*
X4155920Y-18277484D02*
X4155920Y-18144150D01*
X4155920Y-18163198D02*
X4165443Y-18153674D01*
X4165443Y-18153674D02*
X4184491Y-18144150D01*
X4184491Y-18144150D02*
X4213063Y-18144150D01*
X4213063Y-18144150D02*
X4232110Y-18153674D01*
X4232110Y-18153674D02*
X4241634Y-18172722D01*
X4241634Y-18172722D02*
X4241634Y-18277484D01*
X4241634Y-18172722D02*
X4251158Y-18153674D01*
X4251158Y-18153674D02*
X4270205Y-18144150D01*
X4270205Y-18144150D02*
X4298777Y-18144150D01*
X4298777Y-18144150D02*
X4317825Y-18153674D01*
X4317825Y-18153674D02*
X4327348Y-18172722D01*
X4327348Y-18172722D02*
X4327348Y-18277484D01*
X4422586Y-18277484D02*
X4422586Y-18144150D01*
X4422586Y-18163198D02*
X4432110Y-18153674D01*
X4432110Y-18153674D02*
X4451158Y-18144150D01*
X4451158Y-18144150D02*
X4479729Y-18144150D01*
X4479729Y-18144150D02*
X4498777Y-18153674D01*
X4498777Y-18153674D02*
X4508301Y-18172722D01*
X4508301Y-18172722D02*
X4508301Y-18277484D01*
X4508301Y-18172722D02*
X4517825Y-18153674D01*
X4517825Y-18153674D02*
X4536872Y-18144150D01*
X4536872Y-18144150D02*
X4565444Y-18144150D01*
X4565444Y-18144150D02*
X4584491Y-18153674D01*
X4584491Y-18153674D02*
X4594015Y-18172722D01*
X4594015Y-18172722D02*
X4594015Y-18277484D01*
X4984491Y-18067960D02*
X4813063Y-18325103D01*
X5241634Y-18077484D02*
X5260682Y-18077484D01*
X5260682Y-18077484D02*
X5279729Y-18087008D01*
X5279729Y-18087008D02*
X5289253Y-18096531D01*
X5289253Y-18096531D02*
X5298777Y-18115579D01*
X5298777Y-18115579D02*
X5308301Y-18153674D01*
X5308301Y-18153674D02*
X5308301Y-18201293D01*
X5308301Y-18201293D02*
X5298777Y-18239389D01*
X5298777Y-18239389D02*
X5289253Y-18258436D01*
X5289253Y-18258436D02*
X5279729Y-18267960D01*
X5279729Y-18267960D02*
X5260682Y-18277484D01*
X5260682Y-18277484D02*
X5241634Y-18277484D01*
X5241634Y-18277484D02*
X5222587Y-18267960D01*
X5222587Y-18267960D02*
X5213063Y-18258436D01*
X5213063Y-18258436D02*
X5203539Y-18239389D01*
X5203539Y-18239389D02*
X5194015Y-18201293D01*
X5194015Y-18201293D02*
X5194015Y-18153674D01*
X5194015Y-18153674D02*
X5203539Y-18115579D01*
X5203539Y-18115579D02*
X5213063Y-18096531D01*
X5213063Y-18096531D02*
X5222587Y-18087008D01*
X5222587Y-18087008D02*
X5241634Y-18077484D01*
X5394015Y-18258436D02*
X5403539Y-18267960D01*
X5403539Y-18267960D02*
X5394015Y-18277484D01*
X5394015Y-18277484D02*
X5384491Y-18267960D01*
X5384491Y-18267960D02*
X5394015Y-18258436D01*
X5394015Y-18258436D02*
X5394015Y-18277484D01*
X5527348Y-18077484D02*
X5546396Y-18077484D01*
X5546396Y-18077484D02*
X5565444Y-18087008D01*
X5565444Y-18087008D02*
X5574968Y-18096531D01*
X5574968Y-18096531D02*
X5584491Y-18115579D01*
X5584491Y-18115579D02*
X5594015Y-18153674D01*
X5594015Y-18153674D02*
X5594015Y-18201293D01*
X5594015Y-18201293D02*
X5584491Y-18239389D01*
X5584491Y-18239389D02*
X5574968Y-18258436D01*
X5574968Y-18258436D02*
X5565444Y-18267960D01*
X5565444Y-18267960D02*
X5546396Y-18277484D01*
X5546396Y-18277484D02*
X5527348Y-18277484D01*
X5527348Y-18277484D02*
X5508301Y-18267960D01*
X5508301Y-18267960D02*
X5498777Y-18258436D01*
X5498777Y-18258436D02*
X5489253Y-18239389D01*
X5489253Y-18239389D02*
X5479729Y-18201293D01*
X5479729Y-18201293D02*
X5479729Y-18153674D01*
X5479729Y-18153674D02*
X5489253Y-18115579D01*
X5489253Y-18115579D02*
X5498777Y-18096531D01*
X5498777Y-18096531D02*
X5508301Y-18087008D01*
X5508301Y-18087008D02*
X5527348Y-18077484D01*
X5670206Y-18096531D02*
X5679729Y-18087008D01*
X5679729Y-18087008D02*
X5698777Y-18077484D01*
X5698777Y-18077484D02*
X5746396Y-18077484D01*
X5746396Y-18077484D02*
X5765444Y-18087008D01*
X5765444Y-18087008D02*
X5774967Y-18096531D01*
X5774967Y-18096531D02*
X5784491Y-18115579D01*
X5784491Y-18115579D02*
X5784491Y-18134627D01*
X5784491Y-18134627D02*
X5774967Y-18163198D01*
X5774967Y-18163198D02*
X5660682Y-18277484D01*
X5660682Y-18277484D02*
X5784491Y-18277484D01*
X5879729Y-18277484D02*
X5917825Y-18277484D01*
X5917825Y-18277484D02*
X5936872Y-18267960D01*
X5936872Y-18267960D02*
X5946396Y-18258436D01*
X5946396Y-18258436D02*
X5965444Y-18229865D01*
X5965444Y-18229865D02*
X5974967Y-18191770D01*
X5974967Y-18191770D02*
X5974967Y-18115579D01*
X5974967Y-18115579D02*
X5965444Y-18096531D01*
X5965444Y-18096531D02*
X5955920Y-18087008D01*
X5955920Y-18087008D02*
X5936872Y-18077484D01*
X5936872Y-18077484D02*
X5898777Y-18077484D01*
X5898777Y-18077484D02*
X5879729Y-18087008D01*
X5879729Y-18087008D02*
X5870206Y-18096531D01*
X5870206Y-18096531D02*
X5860682Y-18115579D01*
X5860682Y-18115579D02*
X5860682Y-18163198D01*
X5860682Y-18163198D02*
X5870206Y-18182246D01*
X5870206Y-18182246D02*
X5879729Y-18191770D01*
X5879729Y-18191770D02*
X5898777Y-18201293D01*
X5898777Y-18201293D02*
X5936872Y-18201293D01*
X5936872Y-18201293D02*
X5955920Y-18191770D01*
X5955920Y-18191770D02*
X5965444Y-18182246D01*
X5965444Y-18182246D02*
X5974967Y-18163198D01*
X6155920Y-18077484D02*
X6060682Y-18077484D01*
X6060682Y-18077484D02*
X6051158Y-18172722D01*
X6051158Y-18172722D02*
X6060682Y-18163198D01*
X6060682Y-18163198D02*
X6079729Y-18153674D01*
X6079729Y-18153674D02*
X6127348Y-18153674D01*
X6127348Y-18153674D02*
X6146396Y-18163198D01*
X6146396Y-18163198D02*
X6155920Y-18172722D01*
X6155920Y-18172722D02*
X6165444Y-18191770D01*
X6165444Y-18191770D02*
X6165444Y-18239389D01*
X6165444Y-18239389D02*
X6155920Y-18258436D01*
X6155920Y-18258436D02*
X6146396Y-18267960D01*
X6146396Y-18267960D02*
X6127348Y-18277484D01*
X6127348Y-18277484D02*
X6079729Y-18277484D01*
X6079729Y-18277484D02*
X6060682Y-18267960D01*
X6060682Y-18267960D02*
X6051158Y-18258436D01*
X6241634Y-18077484D02*
X6241634Y-18115579D01*
X6317825Y-18077484D02*
X6317825Y-18115579D01*
X6613063Y-18353674D02*
X6603539Y-18344150D01*
X6603539Y-18344150D02*
X6584491Y-18315579D01*
X6584491Y-18315579D02*
X6574968Y-18296531D01*
X6574968Y-18296531D02*
X6565444Y-18267960D01*
X6565444Y-18267960D02*
X6555920Y-18220341D01*
X6555920Y-18220341D02*
X6555920Y-18182246D01*
X6555920Y-18182246D02*
X6565444Y-18134627D01*
X6565444Y-18134627D02*
X6574968Y-18106055D01*
X6574968Y-18106055D02*
X6584491Y-18087008D01*
X6584491Y-18087008D02*
X6603539Y-18058436D01*
X6603539Y-18058436D02*
X6613063Y-18048912D01*
X6670206Y-18077484D02*
X6794015Y-18077484D01*
X6794015Y-18077484D02*
X6727348Y-18153674D01*
X6727348Y-18153674D02*
X6755920Y-18153674D01*
X6755920Y-18153674D02*
X6774968Y-18163198D01*
X6774968Y-18163198D02*
X6784491Y-18172722D01*
X6784491Y-18172722D02*
X6794015Y-18191770D01*
X6794015Y-18191770D02*
X6794015Y-18239389D01*
X6794015Y-18239389D02*
X6784491Y-18258436D01*
X6784491Y-18258436D02*
X6774968Y-18267960D01*
X6774968Y-18267960D02*
X6755920Y-18277484D01*
X6755920Y-18277484D02*
X6698777Y-18277484D01*
X6698777Y-18277484D02*
X6679729Y-18267960D01*
X6679729Y-18267960D02*
X6670206Y-18258436D01*
X6860682Y-18077484D02*
X6994015Y-18077484D01*
X6994015Y-18077484D02*
X6908301Y-18277484D01*
X7222587Y-18277484D02*
X7222587Y-18077484D01*
X7308301Y-18277484D02*
X7308301Y-18172722D01*
X7308301Y-18172722D02*
X7298777Y-18153674D01*
X7298777Y-18153674D02*
X7279730Y-18144150D01*
X7279730Y-18144150D02*
X7251158Y-18144150D01*
X7251158Y-18144150D02*
X7232110Y-18153674D01*
X7232110Y-18153674D02*
X7222587Y-18163198D01*
X7432110Y-18277484D02*
X7413063Y-18267960D01*
X7413063Y-18267960D02*
X7403539Y-18258436D01*
X7403539Y-18258436D02*
X7394015Y-18239389D01*
X7394015Y-18239389D02*
X7394015Y-18182246D01*
X7394015Y-18182246D02*
X7403539Y-18163198D01*
X7403539Y-18163198D02*
X7413063Y-18153674D01*
X7413063Y-18153674D02*
X7432110Y-18144150D01*
X7432110Y-18144150D02*
X7460682Y-18144150D01*
X7460682Y-18144150D02*
X7479730Y-18153674D01*
X7479730Y-18153674D02*
X7489253Y-18163198D01*
X7489253Y-18163198D02*
X7498777Y-18182246D01*
X7498777Y-18182246D02*
X7498777Y-18239389D01*
X7498777Y-18239389D02*
X7489253Y-18258436D01*
X7489253Y-18258436D02*
X7479730Y-18267960D01*
X7479730Y-18267960D02*
X7460682Y-18277484D01*
X7460682Y-18277484D02*
X7432110Y-18277484D01*
X7613063Y-18277484D02*
X7594015Y-18267960D01*
X7594015Y-18267960D02*
X7584491Y-18248912D01*
X7584491Y-18248912D02*
X7584491Y-18077484D01*
X7765444Y-18267960D02*
X7746396Y-18277484D01*
X7746396Y-18277484D02*
X7708301Y-18277484D01*
X7708301Y-18277484D02*
X7689253Y-18267960D01*
X7689253Y-18267960D02*
X7679730Y-18248912D01*
X7679730Y-18248912D02*
X7679730Y-18172722D01*
X7679730Y-18172722D02*
X7689253Y-18153674D01*
X7689253Y-18153674D02*
X7708301Y-18144150D01*
X7708301Y-18144150D02*
X7746396Y-18144150D01*
X7746396Y-18144150D02*
X7765444Y-18153674D01*
X7765444Y-18153674D02*
X7774968Y-18172722D01*
X7774968Y-18172722D02*
X7774968Y-18191770D01*
X7774968Y-18191770D02*
X7679730Y-18210817D01*
X7851158Y-18267960D02*
X7870206Y-18277484D01*
X7870206Y-18277484D02*
X7908301Y-18277484D01*
X7908301Y-18277484D02*
X7927349Y-18267960D01*
X7927349Y-18267960D02*
X7936872Y-18248912D01*
X7936872Y-18248912D02*
X7936872Y-18239389D01*
X7936872Y-18239389D02*
X7927349Y-18220341D01*
X7927349Y-18220341D02*
X7908301Y-18210817D01*
X7908301Y-18210817D02*
X7879730Y-18210817D01*
X7879730Y-18210817D02*
X7860682Y-18201293D01*
X7860682Y-18201293D02*
X7851158Y-18182246D01*
X7851158Y-18182246D02*
X7851158Y-18172722D01*
X7851158Y-18172722D02*
X7860682Y-18153674D01*
X7860682Y-18153674D02*
X7879730Y-18144150D01*
X7879730Y-18144150D02*
X7908301Y-18144150D01*
X7908301Y-18144150D02*
X7927349Y-18153674D01*
X8003539Y-18353674D02*
X8013063Y-18344150D01*
X8013063Y-18344150D02*
X8032111Y-18315579D01*
X8032111Y-18315579D02*
X8041634Y-18296531D01*
X8041634Y-18296531D02*
X8051158Y-18267960D01*
X8051158Y-18267960D02*
X8060682Y-18220341D01*
X8060682Y-18220341D02*
X8060682Y-18182246D01*
X8060682Y-18182246D02*
X8051158Y-18134627D01*
X8051158Y-18134627D02*
X8041634Y-18106055D01*
X8041634Y-18106055D02*
X8032111Y-18087008D01*
X8032111Y-18087008D02*
X8013063Y-18058436D01*
X8013063Y-18058436D02*
X8003539Y-18048912D01*
D11*
X2988000Y-18400000D02*
X2988000Y-18500000D01*
X2938000Y-18450000D02*
X3038000Y-18450000D01*
D10*
X3403539Y-18541484D02*
X3289253Y-18541484D01*
X3346396Y-18541484D02*
X3346396Y-18341484D01*
X3346396Y-18341484D02*
X3327348Y-18370055D01*
X3327348Y-18370055D02*
X3308301Y-18389103D01*
X3308301Y-18389103D02*
X3289253Y-18398627D01*
X3489253Y-18522436D02*
X3498777Y-18531960D01*
X3498777Y-18531960D02*
X3489253Y-18541484D01*
X3489253Y-18541484D02*
X3479729Y-18531960D01*
X3479729Y-18531960D02*
X3489253Y-18522436D01*
X3489253Y-18522436D02*
X3489253Y-18541484D01*
X3622586Y-18341484D02*
X3641634Y-18341484D01*
X3641634Y-18341484D02*
X3660682Y-18351008D01*
X3660682Y-18351008D02*
X3670205Y-18360531D01*
X3670205Y-18360531D02*
X3679729Y-18379579D01*
X3679729Y-18379579D02*
X3689253Y-18417674D01*
X3689253Y-18417674D02*
X3689253Y-18465293D01*
X3689253Y-18465293D02*
X3679729Y-18503389D01*
X3679729Y-18503389D02*
X3670205Y-18522436D01*
X3670205Y-18522436D02*
X3660682Y-18531960D01*
X3660682Y-18531960D02*
X3641634Y-18541484D01*
X3641634Y-18541484D02*
X3622586Y-18541484D01*
X3622586Y-18541484D02*
X3603539Y-18531960D01*
X3603539Y-18531960D02*
X3594015Y-18522436D01*
X3594015Y-18522436D02*
X3584491Y-18503389D01*
X3584491Y-18503389D02*
X3574967Y-18465293D01*
X3574967Y-18465293D02*
X3574967Y-18417674D01*
X3574967Y-18417674D02*
X3584491Y-18379579D01*
X3584491Y-18379579D02*
X3594015Y-18360531D01*
X3594015Y-18360531D02*
X3603539Y-18351008D01*
X3603539Y-18351008D02*
X3622586Y-18341484D01*
X3813062Y-18341484D02*
X3832110Y-18341484D01*
X3832110Y-18341484D02*
X3851158Y-18351008D01*
X3851158Y-18351008D02*
X3860682Y-18360531D01*
X3860682Y-18360531D02*
X3870205Y-18379579D01*
X3870205Y-18379579D02*
X3879729Y-18417674D01*
X3879729Y-18417674D02*
X3879729Y-18465293D01*
X3879729Y-18465293D02*
X3870205Y-18503389D01*
X3870205Y-18503389D02*
X3860682Y-18522436D01*
X3860682Y-18522436D02*
X3851158Y-18531960D01*
X3851158Y-18531960D02*
X3832110Y-18541484D01*
X3832110Y-18541484D02*
X3813062Y-18541484D01*
X3813062Y-18541484D02*
X3794015Y-18531960D01*
X3794015Y-18531960D02*
X3784491Y-18522436D01*
X3784491Y-18522436D02*
X3774967Y-18503389D01*
X3774967Y-18503389D02*
X3765443Y-18465293D01*
X3765443Y-18465293D02*
X3765443Y-18417674D01*
X3765443Y-18417674D02*
X3774967Y-18379579D01*
X3774967Y-18379579D02*
X3784491Y-18360531D01*
X3784491Y-18360531D02*
X3794015Y-18351008D01*
X3794015Y-18351008D02*
X3813062Y-18341484D01*
X4003539Y-18341484D02*
X4022586Y-18341484D01*
X4022586Y-18341484D02*
X4041634Y-18351008D01*
X4041634Y-18351008D02*
X4051158Y-18360531D01*
X4051158Y-18360531D02*
X4060682Y-18379579D01*
X4060682Y-18379579D02*
X4070205Y-18417674D01*
X4070205Y-18417674D02*
X4070205Y-18465293D01*
X4070205Y-18465293D02*
X4060682Y-18503389D01*
X4060682Y-18503389D02*
X4051158Y-18522436D01*
X4051158Y-18522436D02*
X4041634Y-18531960D01*
X4041634Y-18531960D02*
X4022586Y-18541484D01*
X4022586Y-18541484D02*
X4003539Y-18541484D01*
X4003539Y-18541484D02*
X3984491Y-18531960D01*
X3984491Y-18531960D02*
X3974967Y-18522436D01*
X3974967Y-18522436D02*
X3965443Y-18503389D01*
X3965443Y-18503389D02*
X3955920Y-18465293D01*
X3955920Y-18465293D02*
X3955920Y-18417674D01*
X3955920Y-18417674D02*
X3965443Y-18379579D01*
X3965443Y-18379579D02*
X3974967Y-18360531D01*
X3974967Y-18360531D02*
X3984491Y-18351008D01*
X3984491Y-18351008D02*
X4003539Y-18341484D01*
X4155920Y-18541484D02*
X4155920Y-18408150D01*
X4155920Y-18427198D02*
X4165443Y-18417674D01*
X4165443Y-18417674D02*
X4184491Y-18408150D01*
X4184491Y-18408150D02*
X4213063Y-18408150D01*
X4213063Y-18408150D02*
X4232110Y-18417674D01*
X4232110Y-18417674D02*
X4241634Y-18436722D01*
X4241634Y-18436722D02*
X4241634Y-18541484D01*
X4241634Y-18436722D02*
X4251158Y-18417674D01*
X4251158Y-18417674D02*
X4270205Y-18408150D01*
X4270205Y-18408150D02*
X4298777Y-18408150D01*
X4298777Y-18408150D02*
X4317825Y-18417674D01*
X4317825Y-18417674D02*
X4327348Y-18436722D01*
X4327348Y-18436722D02*
X4327348Y-18541484D01*
X4422586Y-18541484D02*
X4422586Y-18408150D01*
X4422586Y-18427198D02*
X4432110Y-18417674D01*
X4432110Y-18417674D02*
X4451158Y-18408150D01*
X4451158Y-18408150D02*
X4479729Y-18408150D01*
X4479729Y-18408150D02*
X4498777Y-18417674D01*
X4498777Y-18417674D02*
X4508301Y-18436722D01*
X4508301Y-18436722D02*
X4508301Y-18541484D01*
X4508301Y-18436722D02*
X4517825Y-18417674D01*
X4517825Y-18417674D02*
X4536872Y-18408150D01*
X4536872Y-18408150D02*
X4565444Y-18408150D01*
X4565444Y-18408150D02*
X4584491Y-18417674D01*
X4584491Y-18417674D02*
X4594015Y-18436722D01*
X4594015Y-18436722D02*
X4594015Y-18541484D01*
X4984491Y-18331960D02*
X4813063Y-18589103D01*
X5241634Y-18341484D02*
X5260682Y-18341484D01*
X5260682Y-18341484D02*
X5279729Y-18351008D01*
X5279729Y-18351008D02*
X5289253Y-18360531D01*
X5289253Y-18360531D02*
X5298777Y-18379579D01*
X5298777Y-18379579D02*
X5308301Y-18417674D01*
X5308301Y-18417674D02*
X5308301Y-18465293D01*
X5308301Y-18465293D02*
X5298777Y-18503389D01*
X5298777Y-18503389D02*
X5289253Y-18522436D01*
X5289253Y-18522436D02*
X5279729Y-18531960D01*
X5279729Y-18531960D02*
X5260682Y-18541484D01*
X5260682Y-18541484D02*
X5241634Y-18541484D01*
X5241634Y-18541484D02*
X5222587Y-18531960D01*
X5222587Y-18531960D02*
X5213063Y-18522436D01*
X5213063Y-18522436D02*
X5203539Y-18503389D01*
X5203539Y-18503389D02*
X5194015Y-18465293D01*
X5194015Y-18465293D02*
X5194015Y-18417674D01*
X5194015Y-18417674D02*
X5203539Y-18379579D01*
X5203539Y-18379579D02*
X5213063Y-18360531D01*
X5213063Y-18360531D02*
X5222587Y-18351008D01*
X5222587Y-18351008D02*
X5241634Y-18341484D01*
X5394015Y-18522436D02*
X5403539Y-18531960D01*
X5403539Y-18531960D02*
X5394015Y-18541484D01*
X5394015Y-18541484D02*
X5384491Y-18531960D01*
X5384491Y-18531960D02*
X5394015Y-18522436D01*
X5394015Y-18522436D02*
X5394015Y-18541484D01*
X5527348Y-18341484D02*
X5546396Y-18341484D01*
X5546396Y-18341484D02*
X5565444Y-18351008D01*
X5565444Y-18351008D02*
X5574968Y-18360531D01*
X5574968Y-18360531D02*
X5584491Y-18379579D01*
X5584491Y-18379579D02*
X5594015Y-18417674D01*
X5594015Y-18417674D02*
X5594015Y-18465293D01*
X5594015Y-18465293D02*
X5584491Y-18503389D01*
X5584491Y-18503389D02*
X5574968Y-18522436D01*
X5574968Y-18522436D02*
X5565444Y-18531960D01*
X5565444Y-18531960D02*
X5546396Y-18541484D01*
X5546396Y-18541484D02*
X5527348Y-18541484D01*
X5527348Y-18541484D02*
X5508301Y-18531960D01*
X5508301Y-18531960D02*
X5498777Y-18522436D01*
X5498777Y-18522436D02*
X5489253Y-18503389D01*
X5489253Y-18503389D02*
X5479729Y-18465293D01*
X5479729Y-18465293D02*
X5479729Y-18417674D01*
X5479729Y-18417674D02*
X5489253Y-18379579D01*
X5489253Y-18379579D02*
X5498777Y-18360531D01*
X5498777Y-18360531D02*
X5508301Y-18351008D01*
X5508301Y-18351008D02*
X5527348Y-18341484D01*
X5660682Y-18341484D02*
X5784491Y-18341484D01*
X5784491Y-18341484D02*
X5717825Y-18417674D01*
X5717825Y-18417674D02*
X5746396Y-18417674D01*
X5746396Y-18417674D02*
X5765444Y-18427198D01*
X5765444Y-18427198D02*
X5774967Y-18436722D01*
X5774967Y-18436722D02*
X5784491Y-18455770D01*
X5784491Y-18455770D02*
X5784491Y-18503389D01*
X5784491Y-18503389D02*
X5774967Y-18522436D01*
X5774967Y-18522436D02*
X5765444Y-18531960D01*
X5765444Y-18531960D02*
X5746396Y-18541484D01*
X5746396Y-18541484D02*
X5689253Y-18541484D01*
X5689253Y-18541484D02*
X5670206Y-18531960D01*
X5670206Y-18531960D02*
X5660682Y-18522436D01*
X5879729Y-18541484D02*
X5917825Y-18541484D01*
X5917825Y-18541484D02*
X5936872Y-18531960D01*
X5936872Y-18531960D02*
X5946396Y-18522436D01*
X5946396Y-18522436D02*
X5965444Y-18493865D01*
X5965444Y-18493865D02*
X5974967Y-18455770D01*
X5974967Y-18455770D02*
X5974967Y-18379579D01*
X5974967Y-18379579D02*
X5965444Y-18360531D01*
X5965444Y-18360531D02*
X5955920Y-18351008D01*
X5955920Y-18351008D02*
X5936872Y-18341484D01*
X5936872Y-18341484D02*
X5898777Y-18341484D01*
X5898777Y-18341484D02*
X5879729Y-18351008D01*
X5879729Y-18351008D02*
X5870206Y-18360531D01*
X5870206Y-18360531D02*
X5860682Y-18379579D01*
X5860682Y-18379579D02*
X5860682Y-18427198D01*
X5860682Y-18427198D02*
X5870206Y-18446246D01*
X5870206Y-18446246D02*
X5879729Y-18455770D01*
X5879729Y-18455770D02*
X5898777Y-18465293D01*
X5898777Y-18465293D02*
X5936872Y-18465293D01*
X5936872Y-18465293D02*
X5955920Y-18455770D01*
X5955920Y-18455770D02*
X5965444Y-18446246D01*
X5965444Y-18446246D02*
X5974967Y-18427198D01*
X6146396Y-18408150D02*
X6146396Y-18541484D01*
X6098777Y-18331960D02*
X6051158Y-18474817D01*
X6051158Y-18474817D02*
X6174967Y-18474817D01*
X6241634Y-18341484D02*
X6241634Y-18379579D01*
X6317825Y-18341484D02*
X6317825Y-18379579D01*
X6613063Y-18617674D02*
X6603539Y-18608150D01*
X6603539Y-18608150D02*
X6584491Y-18579579D01*
X6584491Y-18579579D02*
X6574968Y-18560531D01*
X6574968Y-18560531D02*
X6565444Y-18531960D01*
X6565444Y-18531960D02*
X6555920Y-18484341D01*
X6555920Y-18484341D02*
X6555920Y-18446246D01*
X6555920Y-18446246D02*
X6565444Y-18398627D01*
X6565444Y-18398627D02*
X6574968Y-18370055D01*
X6574968Y-18370055D02*
X6584491Y-18351008D01*
X6584491Y-18351008D02*
X6603539Y-18322436D01*
X6603539Y-18322436D02*
X6613063Y-18312912D01*
X6774968Y-18408150D02*
X6774968Y-18541484D01*
X6727348Y-18331960D02*
X6679729Y-18474817D01*
X6679729Y-18474817D02*
X6803539Y-18474817D01*
X6889253Y-18541484D02*
X6927348Y-18541484D01*
X6927348Y-18541484D02*
X6946396Y-18531960D01*
X6946396Y-18531960D02*
X6955920Y-18522436D01*
X6955920Y-18522436D02*
X6974968Y-18493865D01*
X6974968Y-18493865D02*
X6984491Y-18455770D01*
X6984491Y-18455770D02*
X6984491Y-18379579D01*
X6984491Y-18379579D02*
X6974968Y-18360531D01*
X6974968Y-18360531D02*
X6965444Y-18351008D01*
X6965444Y-18351008D02*
X6946396Y-18341484D01*
X6946396Y-18341484D02*
X6908301Y-18341484D01*
X6908301Y-18341484D02*
X6889253Y-18351008D01*
X6889253Y-18351008D02*
X6879729Y-18360531D01*
X6879729Y-18360531D02*
X6870206Y-18379579D01*
X6870206Y-18379579D02*
X6870206Y-18427198D01*
X6870206Y-18427198D02*
X6879729Y-18446246D01*
X6879729Y-18446246D02*
X6889253Y-18455770D01*
X6889253Y-18455770D02*
X6908301Y-18465293D01*
X6908301Y-18465293D02*
X6946396Y-18465293D01*
X6946396Y-18465293D02*
X6965444Y-18455770D01*
X6965444Y-18455770D02*
X6974968Y-18446246D01*
X6974968Y-18446246D02*
X6984491Y-18427198D01*
X7222587Y-18541484D02*
X7222587Y-18341484D01*
X7308301Y-18541484D02*
X7308301Y-18436722D01*
X7308301Y-18436722D02*
X7298777Y-18417674D01*
X7298777Y-18417674D02*
X7279730Y-18408150D01*
X7279730Y-18408150D02*
X7251158Y-18408150D01*
X7251158Y-18408150D02*
X7232110Y-18417674D01*
X7232110Y-18417674D02*
X7222587Y-18427198D01*
X7432110Y-18541484D02*
X7413063Y-18531960D01*
X7413063Y-18531960D02*
X7403539Y-18522436D01*
X7403539Y-18522436D02*
X7394015Y-18503389D01*
X7394015Y-18503389D02*
X7394015Y-18446246D01*
X7394015Y-18446246D02*
X7403539Y-18427198D01*
X7403539Y-18427198D02*
X7413063Y-18417674D01*
X7413063Y-18417674D02*
X7432110Y-18408150D01*
X7432110Y-18408150D02*
X7460682Y-18408150D01*
X7460682Y-18408150D02*
X7479730Y-18417674D01*
X7479730Y-18417674D02*
X7489253Y-18427198D01*
X7489253Y-18427198D02*
X7498777Y-18446246D01*
X7498777Y-18446246D02*
X7498777Y-18503389D01*
X7498777Y-18503389D02*
X7489253Y-18522436D01*
X7489253Y-18522436D02*
X7479730Y-18531960D01*
X7479730Y-18531960D02*
X7460682Y-18541484D01*
X7460682Y-18541484D02*
X7432110Y-18541484D01*
X7613063Y-18541484D02*
X7594015Y-18531960D01*
X7594015Y-18531960D02*
X7584491Y-18512912D01*
X7584491Y-18512912D02*
X7584491Y-18341484D01*
X7765444Y-18531960D02*
X7746396Y-18541484D01*
X7746396Y-18541484D02*
X7708301Y-18541484D01*
X7708301Y-18541484D02*
X7689253Y-18531960D01*
X7689253Y-18531960D02*
X7679730Y-18512912D01*
X7679730Y-18512912D02*
X7679730Y-18436722D01*
X7679730Y-18436722D02*
X7689253Y-18417674D01*
X7689253Y-18417674D02*
X7708301Y-18408150D01*
X7708301Y-18408150D02*
X7746396Y-18408150D01*
X7746396Y-18408150D02*
X7765444Y-18417674D01*
X7765444Y-18417674D02*
X7774968Y-18436722D01*
X7774968Y-18436722D02*
X7774968Y-18455770D01*
X7774968Y-18455770D02*
X7679730Y-18474817D01*
X7851158Y-18531960D02*
X7870206Y-18541484D01*
X7870206Y-18541484D02*
X7908301Y-18541484D01*
X7908301Y-18541484D02*
X7927349Y-18531960D01*
X7927349Y-18531960D02*
X7936872Y-18512912D01*
X7936872Y-18512912D02*
X7936872Y-18503389D01*
X7936872Y-18503389D02*
X7927349Y-18484341D01*
X7927349Y-18484341D02*
X7908301Y-18474817D01*
X7908301Y-18474817D02*
X7879730Y-18474817D01*
X7879730Y-18474817D02*
X7860682Y-18465293D01*
X7860682Y-18465293D02*
X7851158Y-18446246D01*
X7851158Y-18446246D02*
X7851158Y-18436722D01*
X7851158Y-18436722D02*
X7860682Y-18417674D01*
X7860682Y-18417674D02*
X7879730Y-18408150D01*
X7879730Y-18408150D02*
X7908301Y-18408150D01*
X7908301Y-18408150D02*
X7927349Y-18417674D01*
X8003539Y-18617674D02*
X8013063Y-18608150D01*
X8013063Y-18608150D02*
X8032111Y-18579579D01*
X8032111Y-18579579D02*
X8041634Y-18560531D01*
X8041634Y-18560531D02*
X8051158Y-18531960D01*
X8051158Y-18531960D02*
X8060682Y-18484341D01*
X8060682Y-18484341D02*
X8060682Y-18446246D01*
X8060682Y-18446246D02*
X8051158Y-18398627D01*
X8051158Y-18398627D02*
X8041634Y-18370055D01*
X8041634Y-18370055D02*
X8032111Y-18351008D01*
X8032111Y-18351008D02*
X8013063Y-18322436D01*
X8013063Y-18322436D02*
X8003539Y-18312912D01*
D12*
X3023063Y-18750063D02*
X3023063Y-18677937D01*
X2950937Y-18677937D01*
X2950937Y-18750063D01*
X3023063Y-18750063D01*
D10*
X3403539Y-18805484D02*
X3289253Y-18805484D01*
X3346396Y-18805484D02*
X3346396Y-18605484D01*
X3346396Y-18605484D02*
X3327348Y-18634055D01*
X3327348Y-18634055D02*
X3308301Y-18653103D01*
X3308301Y-18653103D02*
X3289253Y-18662627D01*
X3489253Y-18786436D02*
X3498777Y-18795960D01*
X3498777Y-18795960D02*
X3489253Y-18805484D01*
X3489253Y-18805484D02*
X3479729Y-18795960D01*
X3479729Y-18795960D02*
X3489253Y-18786436D01*
X3489253Y-18786436D02*
X3489253Y-18805484D01*
X3622586Y-18605484D02*
X3641634Y-18605484D01*
X3641634Y-18605484D02*
X3660682Y-18615008D01*
X3660682Y-18615008D02*
X3670205Y-18624531D01*
X3670205Y-18624531D02*
X3679729Y-18643579D01*
X3679729Y-18643579D02*
X3689253Y-18681674D01*
X3689253Y-18681674D02*
X3689253Y-18729293D01*
X3689253Y-18729293D02*
X3679729Y-18767389D01*
X3679729Y-18767389D02*
X3670205Y-18786436D01*
X3670205Y-18786436D02*
X3660682Y-18795960D01*
X3660682Y-18795960D02*
X3641634Y-18805484D01*
X3641634Y-18805484D02*
X3622586Y-18805484D01*
X3622586Y-18805484D02*
X3603539Y-18795960D01*
X3603539Y-18795960D02*
X3594015Y-18786436D01*
X3594015Y-18786436D02*
X3584491Y-18767389D01*
X3584491Y-18767389D02*
X3574967Y-18729293D01*
X3574967Y-18729293D02*
X3574967Y-18681674D01*
X3574967Y-18681674D02*
X3584491Y-18643579D01*
X3584491Y-18643579D02*
X3594015Y-18624531D01*
X3594015Y-18624531D02*
X3603539Y-18615008D01*
X3603539Y-18615008D02*
X3622586Y-18605484D01*
X3765443Y-18624531D02*
X3774967Y-18615008D01*
X3774967Y-18615008D02*
X3794015Y-18605484D01*
X3794015Y-18605484D02*
X3841634Y-18605484D01*
X3841634Y-18605484D02*
X3860682Y-18615008D01*
X3860682Y-18615008D02*
X3870205Y-18624531D01*
X3870205Y-18624531D02*
X3879729Y-18643579D01*
X3879729Y-18643579D02*
X3879729Y-18662627D01*
X3879729Y-18662627D02*
X3870205Y-18691198D01*
X3870205Y-18691198D02*
X3755920Y-18805484D01*
X3755920Y-18805484D02*
X3879729Y-18805484D01*
X4003539Y-18605484D02*
X4022586Y-18605484D01*
X4022586Y-18605484D02*
X4041634Y-18615008D01*
X4041634Y-18615008D02*
X4051158Y-18624531D01*
X4051158Y-18624531D02*
X4060682Y-18643579D01*
X4060682Y-18643579D02*
X4070205Y-18681674D01*
X4070205Y-18681674D02*
X4070205Y-18729293D01*
X4070205Y-18729293D02*
X4060682Y-18767389D01*
X4060682Y-18767389D02*
X4051158Y-18786436D01*
X4051158Y-18786436D02*
X4041634Y-18795960D01*
X4041634Y-18795960D02*
X4022586Y-18805484D01*
X4022586Y-18805484D02*
X4003539Y-18805484D01*
X4003539Y-18805484D02*
X3984491Y-18795960D01*
X3984491Y-18795960D02*
X3974967Y-18786436D01*
X3974967Y-18786436D02*
X3965443Y-18767389D01*
X3965443Y-18767389D02*
X3955920Y-18729293D01*
X3955920Y-18729293D02*
X3955920Y-18681674D01*
X3955920Y-18681674D02*
X3965443Y-18643579D01*
X3965443Y-18643579D02*
X3974967Y-18624531D01*
X3974967Y-18624531D02*
X3984491Y-18615008D01*
X3984491Y-18615008D02*
X4003539Y-18605484D01*
X4155920Y-18805484D02*
X4155920Y-18672150D01*
X4155920Y-18691198D02*
X4165443Y-18681674D01*
X4165443Y-18681674D02*
X4184491Y-18672150D01*
X4184491Y-18672150D02*
X4213063Y-18672150D01*
X4213063Y-18672150D02*
X4232110Y-18681674D01*
X4232110Y-18681674D02*
X4241634Y-18700722D01*
X4241634Y-18700722D02*
X4241634Y-18805484D01*
X4241634Y-18700722D02*
X4251158Y-18681674D01*
X4251158Y-18681674D02*
X4270205Y-18672150D01*
X4270205Y-18672150D02*
X4298777Y-18672150D01*
X4298777Y-18672150D02*
X4317825Y-18681674D01*
X4317825Y-18681674D02*
X4327348Y-18700722D01*
X4327348Y-18700722D02*
X4327348Y-18805484D01*
X4422586Y-18805484D02*
X4422586Y-18672150D01*
X4422586Y-18691198D02*
X4432110Y-18681674D01*
X4432110Y-18681674D02*
X4451158Y-18672150D01*
X4451158Y-18672150D02*
X4479729Y-18672150D01*
X4479729Y-18672150D02*
X4498777Y-18681674D01*
X4498777Y-18681674D02*
X4508301Y-18700722D01*
X4508301Y-18700722D02*
X4508301Y-18805484D01*
X4508301Y-18700722D02*
X4517825Y-18681674D01*
X4517825Y-18681674D02*
X4536872Y-18672150D01*
X4536872Y-18672150D02*
X4565444Y-18672150D01*
X4565444Y-18672150D02*
X4584491Y-18681674D01*
X4584491Y-18681674D02*
X4594015Y-18700722D01*
X4594015Y-18700722D02*
X4594015Y-18805484D01*
X4984491Y-18595960D02*
X4813063Y-18853103D01*
X5241634Y-18605484D02*
X5260682Y-18605484D01*
X5260682Y-18605484D02*
X5279729Y-18615008D01*
X5279729Y-18615008D02*
X5289253Y-18624531D01*
X5289253Y-18624531D02*
X5298777Y-18643579D01*
X5298777Y-18643579D02*
X5308301Y-18681674D01*
X5308301Y-18681674D02*
X5308301Y-18729293D01*
X5308301Y-18729293D02*
X5298777Y-18767389D01*
X5298777Y-18767389D02*
X5289253Y-18786436D01*
X5289253Y-18786436D02*
X5279729Y-18795960D01*
X5279729Y-18795960D02*
X5260682Y-18805484D01*
X5260682Y-18805484D02*
X5241634Y-18805484D01*
X5241634Y-18805484D02*
X5222587Y-18795960D01*
X5222587Y-18795960D02*
X5213063Y-18786436D01*
X5213063Y-18786436D02*
X5203539Y-18767389D01*
X5203539Y-18767389D02*
X5194015Y-18729293D01*
X5194015Y-18729293D02*
X5194015Y-18681674D01*
X5194015Y-18681674D02*
X5203539Y-18643579D01*
X5203539Y-18643579D02*
X5213063Y-18624531D01*
X5213063Y-18624531D02*
X5222587Y-18615008D01*
X5222587Y-18615008D02*
X5241634Y-18605484D01*
X5394015Y-18786436D02*
X5403539Y-18795960D01*
X5403539Y-18795960D02*
X5394015Y-18805484D01*
X5394015Y-18805484D02*
X5384491Y-18795960D01*
X5384491Y-18795960D02*
X5394015Y-18786436D01*
X5394015Y-18786436D02*
X5394015Y-18805484D01*
X5527348Y-18605484D02*
X5546396Y-18605484D01*
X5546396Y-18605484D02*
X5565444Y-18615008D01*
X5565444Y-18615008D02*
X5574968Y-18624531D01*
X5574968Y-18624531D02*
X5584491Y-18643579D01*
X5584491Y-18643579D02*
X5594015Y-18681674D01*
X5594015Y-18681674D02*
X5594015Y-18729293D01*
X5594015Y-18729293D02*
X5584491Y-18767389D01*
X5584491Y-18767389D02*
X5574968Y-18786436D01*
X5574968Y-18786436D02*
X5565444Y-18795960D01*
X5565444Y-18795960D02*
X5546396Y-18805484D01*
X5546396Y-18805484D02*
X5527348Y-18805484D01*
X5527348Y-18805484D02*
X5508301Y-18795960D01*
X5508301Y-18795960D02*
X5498777Y-18786436D01*
X5498777Y-18786436D02*
X5489253Y-18767389D01*
X5489253Y-18767389D02*
X5479729Y-18729293D01*
X5479729Y-18729293D02*
X5479729Y-18681674D01*
X5479729Y-18681674D02*
X5489253Y-18643579D01*
X5489253Y-18643579D02*
X5498777Y-18624531D01*
X5498777Y-18624531D02*
X5508301Y-18615008D01*
X5508301Y-18615008D02*
X5527348Y-18605484D01*
X5765444Y-18672150D02*
X5765444Y-18805484D01*
X5717825Y-18595960D02*
X5670206Y-18738817D01*
X5670206Y-18738817D02*
X5794015Y-18738817D01*
X5908301Y-18605484D02*
X5927348Y-18605484D01*
X5927348Y-18605484D02*
X5946396Y-18615008D01*
X5946396Y-18615008D02*
X5955920Y-18624531D01*
X5955920Y-18624531D02*
X5965444Y-18643579D01*
X5965444Y-18643579D02*
X5974967Y-18681674D01*
X5974967Y-18681674D02*
X5974967Y-18729293D01*
X5974967Y-18729293D02*
X5965444Y-18767389D01*
X5965444Y-18767389D02*
X5955920Y-18786436D01*
X5955920Y-18786436D02*
X5946396Y-18795960D01*
X5946396Y-18795960D02*
X5927348Y-18805484D01*
X5927348Y-18805484D02*
X5908301Y-18805484D01*
X5908301Y-18805484D02*
X5889253Y-18795960D01*
X5889253Y-18795960D02*
X5879729Y-18786436D01*
X5879729Y-18786436D02*
X5870206Y-18767389D01*
X5870206Y-18767389D02*
X5860682Y-18729293D01*
X5860682Y-18729293D02*
X5860682Y-18681674D01*
X5860682Y-18681674D02*
X5870206Y-18643579D01*
X5870206Y-18643579D02*
X5879729Y-18624531D01*
X5879729Y-18624531D02*
X5889253Y-18615008D01*
X5889253Y-18615008D02*
X5908301Y-18605484D01*
X6051158Y-18624531D02*
X6060682Y-18615008D01*
X6060682Y-18615008D02*
X6079729Y-18605484D01*
X6079729Y-18605484D02*
X6127348Y-18605484D01*
X6127348Y-18605484D02*
X6146396Y-18615008D01*
X6146396Y-18615008D02*
X6155920Y-18624531D01*
X6155920Y-18624531D02*
X6165444Y-18643579D01*
X6165444Y-18643579D02*
X6165444Y-18662627D01*
X6165444Y-18662627D02*
X6155920Y-18691198D01*
X6155920Y-18691198D02*
X6041634Y-18805484D01*
X6041634Y-18805484D02*
X6165444Y-18805484D01*
X6241634Y-18605484D02*
X6241634Y-18643579D01*
X6317825Y-18605484D02*
X6317825Y-18643579D01*
X6613063Y-18881674D02*
X6603539Y-18872150D01*
X6603539Y-18872150D02*
X6584491Y-18843579D01*
X6584491Y-18843579D02*
X6574968Y-18824531D01*
X6574968Y-18824531D02*
X6565444Y-18795960D01*
X6565444Y-18795960D02*
X6555920Y-18748341D01*
X6555920Y-18748341D02*
X6555920Y-18710246D01*
X6555920Y-18710246D02*
X6565444Y-18662627D01*
X6565444Y-18662627D02*
X6574968Y-18634055D01*
X6574968Y-18634055D02*
X6584491Y-18615008D01*
X6584491Y-18615008D02*
X6603539Y-18586436D01*
X6603539Y-18586436D02*
X6613063Y-18576912D01*
X6679729Y-18624531D02*
X6689253Y-18615008D01*
X6689253Y-18615008D02*
X6708301Y-18605484D01*
X6708301Y-18605484D02*
X6755920Y-18605484D01*
X6755920Y-18605484D02*
X6774968Y-18615008D01*
X6774968Y-18615008D02*
X6784491Y-18624531D01*
X6784491Y-18624531D02*
X6794015Y-18643579D01*
X6794015Y-18643579D02*
X6794015Y-18662627D01*
X6794015Y-18662627D02*
X6784491Y-18691198D01*
X6784491Y-18691198D02*
X6670206Y-18805484D01*
X6670206Y-18805484D02*
X6794015Y-18805484D01*
X6908301Y-18691198D02*
X6889253Y-18681674D01*
X6889253Y-18681674D02*
X6879729Y-18672150D01*
X6879729Y-18672150D02*
X6870206Y-18653103D01*
X6870206Y-18653103D02*
X6870206Y-18643579D01*
X6870206Y-18643579D02*
X6879729Y-18624531D01*
X6879729Y-18624531D02*
X6889253Y-18615008D01*
X6889253Y-18615008D02*
X6908301Y-18605484D01*
X6908301Y-18605484D02*
X6946396Y-18605484D01*
X6946396Y-18605484D02*
X6965444Y-18615008D01*
X6965444Y-18615008D02*
X6974968Y-18624531D01*
X6974968Y-18624531D02*
X6984491Y-18643579D01*
X6984491Y-18643579D02*
X6984491Y-18653103D01*
X6984491Y-18653103D02*
X6974968Y-18672150D01*
X6974968Y-18672150D02*
X6965444Y-18681674D01*
X6965444Y-18681674D02*
X6946396Y-18691198D01*
X6946396Y-18691198D02*
X6908301Y-18691198D01*
X6908301Y-18691198D02*
X6889253Y-18700722D01*
X6889253Y-18700722D02*
X6879729Y-18710246D01*
X6879729Y-18710246D02*
X6870206Y-18729293D01*
X6870206Y-18729293D02*
X6870206Y-18767389D01*
X6870206Y-18767389D02*
X6879729Y-18786436D01*
X6879729Y-18786436D02*
X6889253Y-18795960D01*
X6889253Y-18795960D02*
X6908301Y-18805484D01*
X6908301Y-18805484D02*
X6946396Y-18805484D01*
X6946396Y-18805484D02*
X6965444Y-18795960D01*
X6965444Y-18795960D02*
X6974968Y-18786436D01*
X6974968Y-18786436D02*
X6984491Y-18767389D01*
X6984491Y-18767389D02*
X6984491Y-18729293D01*
X6984491Y-18729293D02*
X6974968Y-18710246D01*
X6974968Y-18710246D02*
X6965444Y-18700722D01*
X6965444Y-18700722D02*
X6946396Y-18691198D01*
X7060682Y-18624531D02*
X7070206Y-18615008D01*
X7070206Y-18615008D02*
X7089253Y-18605484D01*
X7089253Y-18605484D02*
X7136872Y-18605484D01*
X7136872Y-18605484D02*
X7155920Y-18615008D01*
X7155920Y-18615008D02*
X7165444Y-18624531D01*
X7165444Y-18624531D02*
X7174968Y-18643579D01*
X7174968Y-18643579D02*
X7174968Y-18662627D01*
X7174968Y-18662627D02*
X7165444Y-18691198D01*
X7165444Y-18691198D02*
X7051158Y-18805484D01*
X7051158Y-18805484D02*
X7174968Y-18805484D01*
X7413063Y-18805484D02*
X7413063Y-18605484D01*
X7498777Y-18805484D02*
X7498777Y-18700722D01*
X7498777Y-18700722D02*
X7489253Y-18681674D01*
X7489253Y-18681674D02*
X7470206Y-18672150D01*
X7470206Y-18672150D02*
X7441634Y-18672150D01*
X7441634Y-18672150D02*
X7422587Y-18681674D01*
X7422587Y-18681674D02*
X7413063Y-18691198D01*
X7622587Y-18805484D02*
X7603539Y-18795960D01*
X7603539Y-18795960D02*
X7594015Y-18786436D01*
X7594015Y-18786436D02*
X7584491Y-18767389D01*
X7584491Y-18767389D02*
X7584491Y-18710246D01*
X7584491Y-18710246D02*
X7594015Y-18691198D01*
X7594015Y-18691198D02*
X7603539Y-18681674D01*
X7603539Y-18681674D02*
X7622587Y-18672150D01*
X7622587Y-18672150D02*
X7651158Y-18672150D01*
X7651158Y-18672150D02*
X7670206Y-18681674D01*
X7670206Y-18681674D02*
X7679730Y-18691198D01*
X7679730Y-18691198D02*
X7689253Y-18710246D01*
X7689253Y-18710246D02*
X7689253Y-18767389D01*
X7689253Y-18767389D02*
X7679730Y-18786436D01*
X7679730Y-18786436D02*
X7670206Y-18795960D01*
X7670206Y-18795960D02*
X7651158Y-18805484D01*
X7651158Y-18805484D02*
X7622587Y-18805484D01*
X7803539Y-18805484D02*
X7784491Y-18795960D01*
X7784491Y-18795960D02*
X7774968Y-18776912D01*
X7774968Y-18776912D02*
X7774968Y-18605484D01*
X7955920Y-18795960D02*
X7936872Y-18805484D01*
X7936872Y-18805484D02*
X7898777Y-18805484D01*
X7898777Y-18805484D02*
X7879730Y-18795960D01*
X7879730Y-18795960D02*
X7870206Y-18776912D01*
X7870206Y-18776912D02*
X7870206Y-18700722D01*
X7870206Y-18700722D02*
X7879730Y-18681674D01*
X7879730Y-18681674D02*
X7898777Y-18672150D01*
X7898777Y-18672150D02*
X7936872Y-18672150D01*
X7936872Y-18672150D02*
X7955920Y-18681674D01*
X7955920Y-18681674D02*
X7965444Y-18700722D01*
X7965444Y-18700722D02*
X7965444Y-18719770D01*
X7965444Y-18719770D02*
X7870206Y-18738817D01*
X8041634Y-18795960D02*
X8060682Y-18805484D01*
X8060682Y-18805484D02*
X8098777Y-18805484D01*
X8098777Y-18805484D02*
X8117825Y-18795960D01*
X8117825Y-18795960D02*
X8127349Y-18776912D01*
X8127349Y-18776912D02*
X8127349Y-18767389D01*
X8127349Y-18767389D02*
X8117825Y-18748341D01*
X8117825Y-18748341D02*
X8098777Y-18738817D01*
X8098777Y-18738817D02*
X8070206Y-18738817D01*
X8070206Y-18738817D02*
X8051158Y-18729293D01*
X8051158Y-18729293D02*
X8041634Y-18710246D01*
X8041634Y-18710246D02*
X8041634Y-18700722D01*
X8041634Y-18700722D02*
X8051158Y-18681674D01*
X8051158Y-18681674D02*
X8070206Y-18672150D01*
X8070206Y-18672150D02*
X8098777Y-18672150D01*
X8098777Y-18672150D02*
X8117825Y-18681674D01*
X8194015Y-18881674D02*
X8203539Y-18872150D01*
X8203539Y-18872150D02*
X8222587Y-18843579D01*
X8222587Y-18843579D02*
X8232111Y-18824531D01*
X8232111Y-18824531D02*
X8241634Y-18795960D01*
X8241634Y-18795960D02*
X8251158Y-18748341D01*
X8251158Y-18748341D02*
X8251158Y-18710246D01*
X8251158Y-18710246D02*
X8241634Y-18662627D01*
X8241634Y-18662627D02*
X8232111Y-18634055D01*
X8232111Y-18634055D02*
X8222587Y-18615008D01*
X8222587Y-18615008D02*
X8203539Y-18586436D01*
X8203539Y-18586436D02*
X8194015Y-18576912D01*
M02*
